<svg width="119" height="40" viewBox="0 0 119 40" fill="none" xmlns="http://www.w3.org/2000/svg">
<rect x="0.5" y="0.5" width="118" height="39" rx="5.5" stroke="white"/>
<path d="M24.6314 20.3007C24.6421 19.466 24.8626 18.6476 25.2723 17.9217C25.6821 17.1957 26.2678 16.5858 26.9749 16.1486C26.5257 15.5035 25.933 14.9725 25.2441 14.598C24.5551 14.2234 23.7887 14.0156 23.0059 13.991C21.336 13.8147 19.7171 14.9958 18.8661 14.9958C17.9987 14.9958 16.6885 14.0085 15.2776 14.0376C14.365 14.0673 13.4757 14.3341 12.6961 14.8122C11.9166 15.2903 11.2735 15.9632 10.8295 16.7655C8.90626 20.1139 10.3408 25.0349 12.1832 27.7416C13.1049 29.0669 14.1822 30.5473 15.5918 30.4948C16.9711 30.4373 17.4863 29.6104 19.1513 29.6104C20.8009 29.6104 21.2842 30.4948 22.7224 30.4615C24.2025 30.4373 25.1351 29.1302 26.0245 27.7923C26.6868 26.848 27.1964 25.8043 27.5345 24.6998C26.6746 24.3341 25.9407 23.7219 25.4245 22.9396C24.9082 22.1573 24.6324 21.2395 24.6314 20.3007Z" fill="white"/>
<path d="M21.9149 12.2109C22.722 11.2367 23.1196 9.98457 23.0233 8.72034C21.7903 8.85056 20.6514 9.44311 19.8335 10.3799C19.4336 10.8376 19.1273 11.37 18.9321 11.9468C18.737 12.5236 18.6568 13.1334 18.6961 13.7413C19.3128 13.7477 19.9229 13.6133 20.4805 13.3482C21.038 13.0831 21.5285 12.6943 21.9149 12.2109Z" fill="white"/>
<path d="M42.0675 27.1396H37.3604L36.23 30.4961H34.2362L38.6947 18.0781H40.7662L45.2247 30.4961H43.1969L42.0675 27.1396ZM37.8479 25.5908H41.5791L39.7397 20.1436H39.6882L37.8479 25.5908Z" fill="white"/>
<path d="M54.8536 25.9698C54.8536 28.7833 53.3561 30.5909 51.0962 30.5909C50.5238 30.621 49.9544 30.4884 49.4534 30.2083C48.9525 29.9281 48.54 29.5118 48.2634 29.0069H48.2206V33.4913H46.3726V21.4425H48.1614V22.9483H48.1954C48.4848 22.4459 48.9042 22.0317 49.409 21.7498C49.9138 21.468 50.4851 21.329 51.0622 21.3477C53.3473 21.3477 54.8536 23.1641 54.8536 25.9698ZM52.954 25.9698C52.954 24.1368 52.012 22.9317 50.5747 22.9317C49.1627 22.9317 48.2129 24.1622 48.2129 25.9698C48.2129 27.794 49.1627 29.0157 50.5747 29.0157C52.012 29.0157 52.954 27.8194 52.954 25.9698Z" fill="white"/>
<path d="M64.7631 25.9698C64.7631 28.7833 63.2656 30.5909 61.0058 30.5909C60.4333 30.621 59.864 30.4884 59.363 30.2082C58.862 29.9281 58.4496 29.5118 58.173 29.0069H58.1302V33.4912H56.2821V21.4425H58.0709V22.9483H58.1049C58.3943 22.4459 58.8137 22.0317 59.3185 21.7498C59.8233 21.468 60.3947 21.329 60.9718 21.3477C63.2569 21.3477 64.7631 23.1641 64.7631 25.9698ZM62.8636 25.9698C62.8636 24.1368 61.9216 22.9317 60.4843 22.9317C59.0722 22.9317 58.1224 24.1622 58.1224 25.9698C58.1224 27.794 59.0722 29.0157 60.4843 29.0157C61.9216 29.0157 62.8636 27.8194 62.8636 25.9698H62.8636Z" fill="white"/>
<path d="M71.3125 27.0362C71.4494 28.2676 72.6391 29.0761 74.2648 29.0761C75.8225 29.0761 76.9432 28.2676 76.9432 27.1572C76.9432 26.1933 76.2673 25.6162 74.6668 25.2207L73.0664 24.833C70.7988 24.2822 69.746 23.2158 69.746 21.4853C69.746 19.3428 71.6029 17.8711 74.2395 17.8711C76.849 17.8711 78.6378 19.3428 78.698 21.4853H76.8325C76.7208 20.2461 75.702 19.498 74.2133 19.498C72.7245 19.498 71.7058 20.2549 71.7058 21.3564C71.7058 22.2344 72.3565 22.751 73.9482 23.1464L75.3087 23.4824C77.8424 24.0849 78.8952 25.1084 78.8952 26.9247C78.8952 29.248 77.0548 30.7031 74.1278 30.7031C71.3892 30.7031 69.5401 29.2822 69.4207 27.0361L71.3125 27.0362Z" fill="white"/>
<path d="M82.8837 19.2998V21.4424H84.5958V22.9141H82.8837V27.9052C82.8837 28.6806 83.2265 29.042 83.9791 29.042C84.1824 29.0384 84.3853 29.024 84.587 28.999V30.4618C84.2487 30.5254 83.9047 30.5542 83.5605 30.5478C81.7377 30.5478 81.0268 29.8593 81.0268 28.1035V22.9141H79.7177V21.4424H81.0268V19.2998H82.8837Z" fill="white"/>
<path d="M85.5874 25.9697C85.5874 23.1211 87.2558 21.3311 89.8575 21.3311C92.4679 21.3311 94.1286 23.121 94.1286 25.9697C94.1286 28.8262 92.4767 30.6084 89.8575 30.6084C87.2392 30.6084 85.5874 28.8261 85.5874 25.9697ZM92.2455 25.9697C92.2455 24.0156 91.355 22.8623 89.8575 22.8623C88.36 22.8623 87.4704 24.0244 87.4704 25.9697C87.4704 27.9316 88.36 29.0761 89.8575 29.0761C91.355 29.0761 92.2455 27.9316 92.2455 25.9697H92.2455Z" fill="white"/>
<path d="M95.6523 21.4424H97.4149V22.9834H97.4576C97.5769 22.5021 97.8573 22.0768 98.2517 21.7789C98.6461 21.481 99.1304 21.3287 99.6233 21.3476C99.8363 21.3469 100.049 21.3702 100.256 21.417V23.1553C99.9876 23.0726 99.7071 23.0347 99.4261 23.043C99.1576 23.032 98.89 23.0796 98.6415 23.1825C98.3931 23.2854 98.1697 23.4411 97.9867 23.639C97.8038 23.8369 97.6656 24.0723 97.5816 24.3289C97.4977 24.5856 97.4699 24.8575 97.5003 25.126V30.4961H95.6523L95.6523 21.4424Z" fill="white"/>
<path d="M108.777 27.8369C108.529 29.4804 106.937 30.6084 104.9 30.6084C102.281 30.6084 100.656 28.8437 100.656 26.0127C100.656 23.1728 102.29 21.3311 104.823 21.3311C107.314 21.3311 108.88 23.0517 108.88 25.7969V26.4336H102.521V26.5459C102.492 26.8791 102.533 27.2147 102.643 27.5306C102.752 27.8464 102.928 28.1352 103.157 28.3778C103.386 28.6203 103.663 28.8111 103.972 28.9374C104.28 29.0637 104.611 29.1226 104.943 29.1103C105.38 29.1515 105.818 29.0498 106.193 28.8203C106.567 28.5909 106.858 28.246 107.022 27.8369L108.777 27.8369ZM102.53 25.1348H107.031C107.048 24.8352 107.003 24.5353 106.898 24.2541C106.794 23.9729 106.634 23.7164 106.426 23.5006C106.219 23.2849 105.969 23.1145 105.693 23.0003C105.418 22.8861 105.121 22.8305 104.823 22.8369C104.522 22.8351 104.223 22.8932 103.945 23.008C103.666 23.1227 103.413 23.2918 103.2 23.5054C102.987 23.7191 102.818 23.973 102.703 24.2527C102.588 24.5323 102.529 24.8321 102.53 25.1348V25.1348Z" fill="white"/>
<path d="M36.5344 11.2535H37.3279C37.4644 11.2706 37.6031 11.2591 37.735 11.2196C37.8669 11.1802 37.9893 11.1137 38.0944 11.0243C38.1995 10.935 38.2851 10.8247 38.3457 10.7004C38.4063 10.5762 38.4407 10.4406 38.4466 10.3023C38.4466 9.75205 38.0348 9.39658 37.3366 9.39658C37.1967 9.37692 37.0542 9.38565 36.9177 9.42226C36.7812 9.45887 36.6533 9.52261 36.5417 9.60972C36.4301 9.69684 36.337 9.80556 36.2678 9.92947C36.1987 10.0534 36.1549 10.19 36.1392 10.3311H35.268C35.283 10.0748 35.3503 9.8244 35.4657 9.59539C35.5812 9.36638 35.7422 9.16371 35.9389 9.00001C36.1356 8.8363 36.3637 8.71507 36.609 8.64385C36.8543 8.57263 37.1115 8.55295 37.3647 8.58603C38.533 8.58603 39.3556 9.24374 39.3556 10.1905C39.3584 10.5077 39.2528 10.8162 39.0567 11.0646C38.8605 11.313 38.5855 11.4862 38.2776 11.5553V11.6256C38.6426 11.6419 38.9863 11.8028 39.2336 12.0731C39.4809 12.3435 39.6117 12.7014 39.5974 13.0684C39.5704 13.3323 39.4913 13.5881 39.3647 13.8209C39.2381 14.0536 39.0666 14.2586 38.8602 14.4238C38.6538 14.589 38.4166 14.7112 38.1627 14.783C37.9087 14.8549 37.6431 14.8751 37.3813 14.8424C37.1189 14.8783 36.8521 14.8608 36.5966 14.7909C36.3411 14.7209 36.1023 14.5999 35.8943 14.4352C35.6863 14.2704 35.5134 14.0652 35.386 13.8318C35.2585 13.5984 35.1791 13.3416 35.1525 13.0767H36.0372C36.0906 13.6475 36.6121 14.0157 37.3813 14.0157C38.1504 14.0157 38.6525 13.6022 38.6525 13.0192C38.6525 12.4279 38.1795 12.0636 37.3531 12.0636H36.5344V11.2535Z" fill="white"/>
<path d="M40.6025 13.4244C40.6025 12.6139 41.2037 12.1466 42.268 12.0802L43.481 12.0099V11.6212C43.481 11.1456 43.1693 10.8771 42.5643 10.8771C42.0709 10.8771 41.73 11.0592 41.631 11.3776H40.7754C40.8657 10.6041 41.5902 10.108 42.606 10.108C43.7287 10.108 44.3618 10.67 44.3618 11.6212V14.6979H43.5101V14.0651H43.4402C43.2983 14.292 43.099 14.4771 42.8627 14.6013C42.6264 14.7255 42.3615 14.7844 42.0952 14.772C41.9072 14.7917 41.7172 14.7715 41.5375 14.7128C41.3577 14.6541 41.1922 14.5582 41.0515 14.4313C40.9109 14.3043 40.7983 14.1491 40.721 13.9757C40.6436 13.8023 40.6033 13.6145 40.6025 13.4244ZM43.481 13.0397V12.6632L42.3875 12.7335C41.7708 12.775 41.4911 12.9859 41.4911 13.3829C41.4911 13.7882 41.8407 14.024 42.3215 14.024C42.4623 14.0384 42.6046 14.0241 42.7399 13.982C42.8751 13.9399 43.0006 13.8709 43.1088 13.779C43.2169 13.6872 43.3057 13.5744 43.3696 13.4474C43.4336 13.3204 43.4714 13.1817 43.481 13.0397Z" fill="white"/>
<path d="M46.7071 10.943V14.6979H45.8234V10.1949H48.7718V10.9429L46.7071 10.943Z" fill="white"/>
<path d="M54.1277 12.4444C54.1277 13.8751 53.4081 14.772 52.2776 14.772C52.0001 14.7911 51.723 14.73 51.4789 14.596C51.2347 14.462 51.0338 14.2607 50.8996 14.0157H50.8297V16.1949H49.9459V10.1949H50.7966V10.9391H50.8627C50.9993 10.6855 51.2029 10.4749 51.451 10.3304C51.6992 10.1858 51.9822 10.1131 52.2689 10.1202C53.408 10.1202 54.1277 11.0133 54.1277 12.4444ZM53.2187 12.4444C53.2187 11.4932 52.771 10.9185 52.0222 10.9185C51.2784 10.9185 50.8132 11.5054 50.8132 12.4483C50.8132 13.3868 51.2783 13.9742 52.0183 13.9742C52.771 13.9742 53.2187 13.3995 53.2187 12.4444Z" fill="white"/>
<path d="M55.3047 16.3107V15.5455C55.4003 15.5577 55.4967 15.5633 55.5931 15.5621C55.7814 15.5761 55.9682 15.5198 56.1176 15.4038C56.2671 15.2878 56.3687 15.1204 56.403 14.9337L56.469 14.7145L54.8482 10.1949H55.8106L56.9333 13.7716H57.0032L58.122 10.1949H59.0591L57.3897 14.8839C57.0071 15.9796 56.5837 16.3312 55.6708 16.3312C55.597 16.3312 55.3872 16.3229 55.3047 16.3107Z" fill="white"/>
<path d="M59.7477 13.42H60.6275C60.7139 13.817 61.084 14.024 61.6016 14.024C62.1901 14.024 62.5513 13.7633 62.5513 13.358C62.5513 12.9239 62.227 12.7169 61.6016 12.7169H60.9315V12.0265H61.5899C62.124 12.0265 62.396 11.8199 62.396 11.4435C62.396 11.1129 62.1328 10.8605 61.5899 10.8605C61.0956 10.8605 60.7343 11.0714 60.677 11.4269H59.8253C59.889 11.0184 60.1096 10.6514 60.4396 10.4048C60.7695 10.1581 61.1826 10.0516 61.5899 10.108C62.6543 10.108 63.2632 10.5919 63.2632 11.3527C63.2682 11.5645 63.2007 11.7717 63.072 11.9395C62.9433 12.1073 62.7612 12.2255 62.5562 12.2745V12.3449C62.8003 12.3765 63.0243 12.4972 63.1858 12.6839C63.3473 12.8707 63.4349 13.1106 63.4322 13.358C63.4322 14.214 62.7077 14.7804 61.6016 14.7804C60.6236 14.7804 59.8292 14.3297 59.7477 13.42Z" fill="white"/>
<path d="M64.7049 14.6979V10.1949H65.5808V13.2921H65.6508L67.7144 10.195H68.5904V14.6979H67.7144V11.5841H67.6484L65.5808 14.6979L64.7049 14.6979Z" fill="white"/>
<path d="M73.416 10.9429H72.0059V14.6978H71.1212V10.9429H69.711V10.1949H73.416V10.9429Z" fill="white"/>
<path d="M78.1766 13.482C78.0561 13.8935 77.7958 14.2494 77.4409 14.4875C77.0861 14.7256 76.6594 14.8308 76.2352 14.7847C75.9402 14.7926 75.647 14.7357 75.3761 14.6182C75.1051 14.5007 74.8628 14.3253 74.6659 14.1041C74.4691 13.883 74.3225 13.6214 74.2363 13.3376C74.1501 13.0538 74.1264 12.7545 74.1667 12.4605C74.1274 12.1656 74.1516 11.8657 74.2376 11.581C74.3236 11.2964 74.4694 11.0336 74.6652 10.8105C74.861 10.5874 75.1021 10.4093 75.3723 10.2881C75.6426 10.1669 75.9355 10.1054 76.2314 10.108C77.4773 10.108 78.23 10.964 78.23 12.378V12.6881H75.0679V12.7379C75.0539 12.9032 75.0745 13.0696 75.1282 13.2264C75.182 13.3832 75.2678 13.527 75.3801 13.6485C75.4924 13.77 75.6288 13.8665 75.7804 13.9318C75.932 13.9972 76.0956 14.0299 76.2605 14.0279C76.4718 14.0533 76.6857 14.0149 76.8753 13.9177C77.0648 13.8205 77.2213 13.6688 77.3249 13.482L78.1766 13.482ZM75.0679 12.0308H77.3287C77.3399 11.8798 77.3195 11.7281 77.2689 11.5854C77.2183 11.4427 77.1386 11.3123 77.0349 11.2024C76.9312 11.0926 76.8058 11.0058 76.6667 10.9475C76.5277 10.8893 76.3781 10.861 76.2275 10.8643C76.0746 10.8623 75.9228 10.891 75.7812 10.9489C75.6395 11.0068 75.5108 11.0926 75.4027 11.2014C75.2946 11.3101 75.2093 11.4395 75.1518 11.582C75.0943 11.7245 75.0658 11.8771 75.0679 12.0308H75.0679Z" fill="white"/>
<path d="M81.9232 10.1949H83.9422C84.8182 10.1949 85.3319 10.6412 85.3319 11.3399C85.3333 11.5616 85.2589 11.7771 85.1212 11.9502C84.9835 12.1234 84.7908 12.2437 84.5754 12.2911V12.3614C84.8369 12.378 85.0821 12.495 85.2603 12.6882C85.4385 12.8814 85.5361 13.136 85.533 13.3995C85.533 14.1851 84.9454 14.6978 83.9626 14.6978H81.9232V10.1949ZM82.7992 10.8771V12.0431H83.6752C84.2093 12.0431 84.4647 11.8365 84.4647 11.4557C84.4647 11.1046 84.2423 10.8771 83.7733 10.8771L82.7992 10.8771ZM82.7992 12.6964V14.0157H83.8471C84.3696 14.0157 84.6493 13.7838 84.6493 13.358C84.6493 12.9074 84.3327 12.6964 83.7364 12.6964L82.7992 12.6964Z" fill="white"/>
</svg>
