<svg width="72" height="72" viewBox="0 0 72 72" fill="none" xmlns="http://www.w3.org/2000/svg">
<path d="M64.8292 57.1151C66.4481 55.881 67.5 53.9381 67.5 51.75C67.5 48.4121 65.0621 45.6401 61.875 45.1013V43.875C61.875 40.7734 59.3516 38.25 56.25 38.25H37.125V34.1505C37.7325 34.6129 38.4626 34.875 39.2389 34.875C41.1334 34.875 42.6712 33.3653 42.7376 31.4876C44.5736 31.4224 46.0474 29.9486 46.1126 28.1126C47.9486 28.0474 49.4224 26.5736 49.4876 24.7376C51.3652 24.6713 52.875 23.1322 52.875 21.2389C52.875 20.3006 52.5094 19.4186 51.8467 18.756L51.6127 18.522C53.1585 16.6253 54 14.2762 54 11.7956C54 5.91187 49.2131 1.125 43.3294 1.125C40.5765 1.125 37.9901 2.169 36 4.0545C34.0099 2.169 31.4235 1.125 28.6706 1.125C22.7869 1.125 18 5.91187 18 11.7956C18 14.5597 19.0519 17.1574 20.9531 19.1509C20.5043 19.7539 20.25 20.4739 20.25 21.2389C20.25 23.1334 21.7597 24.6713 23.6374 24.7376C23.7026 26.5736 25.1764 28.0474 27.0124 28.1126C27.0776 29.9486 28.5514 31.4224 30.3874 31.4876C30.4537 33.3653 31.9928 34.875 33.8861 34.875C34.2281 34.875 34.5566 34.8109 34.875 34.7175V38.25H15.75C12.6484 38.25 10.125 40.7734 10.125 43.875V45.1013C6.93788 45.6401 4.5 48.4121 4.5 51.75C4.5 53.9381 5.55188 55.881 7.17075 57.1151C3.61575 58.6879 1.125 62.244 1.125 66.375V70.875H21.375V66.375C21.375 62.244 18.8843 58.6879 15.3293 57.1151C16.9481 55.881 18 53.9381 18 51.75C18 48.4121 15.5621 45.6401 12.375 45.1013V43.875C12.375 42.0142 13.8892 40.5 15.75 40.5H34.875V45.1013C31.6879 45.639 29.25 48.411 29.25 51.75C29.25 53.9381 30.3019 55.881 31.9208 57.1151C28.3658 58.6879 25.875 62.244 25.875 66.375V70.875H46.125V66.375C46.125 62.244 43.6342 58.6879 40.0792 57.1151C41.6981 55.881 42.75 53.9381 42.75 51.75C42.75 48.4121 40.3121 45.6401 37.125 45.1013V40.5H56.25C58.1108 40.5 59.625 42.0142 59.625 43.875V45.1013C56.4379 45.639 54 48.411 54 51.75C54 53.9381 55.0519 55.881 56.6708 57.1151C53.1158 58.6879 50.625 62.244 50.625 66.375V70.875H70.875V66.375C70.875 62.244 68.3842 58.6879 64.8292 57.1151ZM43.3294 3.375C47.9722 3.375 51.75 7.15275 51.75 11.7956C51.75 13.6732 51.1324 15.4519 50.0063 16.9144L44.8335 11.7416C45.1688 11.4896 45.4939 11.2219 45.7965 10.9204L44.2057 9.32963C42.966 10.5683 41.3201 11.25 39.5674 11.25H37.7842L35.8639 13.1704C35.6512 13.383 35.3677 13.5 35.0674 13.5H30.8407C30.5842 13.5 30.375 13.2908 30.375 13.0343C30.375 12.9116 30.4245 12.7913 30.5111 12.7046L37.3748 5.841C38.9655 4.25137 41.0794 3.375 43.3294 3.375V3.375ZM28.6706 3.375C30.8171 3.375 32.8354 4.1805 34.398 5.63512L28.9192 11.1139C28.4074 11.6257 28.125 12.3086 28.125 13.0343C28.125 14.5316 29.3434 15.75 30.8407 15.75H35.0674C35.9685 15.75 36.8167 15.399 37.4546 14.7611L38.7158 13.5H39.5674C40.6913 13.5 41.7803 13.2851 42.795 12.8858L50.256 20.3468C50.4934 20.5853 50.625 20.9014 50.625 21.2389C50.625 21.9341 50.0591 22.5 49.3639 22.5C49.0264 22.5 48.7102 22.3684 48.4717 22.131L45.7954 19.4546L44.2046 21.0454L46.881 23.7218C47.1184 23.9603 47.25 24.2764 47.25 24.6139C47.25 25.3091 46.6841 25.875 45.9889 25.875C45.6514 25.875 45.3352 25.7434 45.0967 25.506L42.4204 22.8296L40.8296 24.4204L43.506 27.0968C43.7434 27.3353 43.875 27.6514 43.875 27.9889C43.875 28.6841 43.3091 29.25 42.6139 29.25C42.2764 29.25 41.9602 29.1184 41.7217 28.881L39.0454 26.2046L37.4546 27.7954L40.131 30.4718C40.3684 30.7103 40.5 31.0264 40.5 31.3639C40.5 32.0591 39.9341 32.625 39.2389 32.625C38.9014 32.625 38.5852 32.4934 38.3467 32.256L37.971 31.8802C38.1521 31.4527 38.25 30.9904 38.25 30.5111C38.25 28.6166 36.7403 27.0787 34.8626 27.0124C34.7974 25.1764 33.3236 23.7026 31.4876 23.6374C31.4224 21.8014 29.9486 20.3276 28.1126 20.2624C28.0463 18.3847 26.5072 16.875 24.6139 16.875C23.8567 16.875 23.1435 17.1225 22.5461 17.5624C21.0679 15.9941 20.25 13.9601 20.25 11.7956C20.25 7.15275 24.0278 3.375 28.6706 3.375V3.375ZM22.5 21.2389C22.5 20.9014 22.6316 20.5853 22.869 20.3468L23.7218 19.494C23.9603 19.2566 24.2764 19.125 24.6139 19.125C25.3091 19.125 25.875 19.6909 25.875 20.3861C25.875 20.7236 25.7434 21.0397 25.506 21.2782L24.6532 22.131C24.4147 22.3684 24.0986 22.5 23.7611 22.5C23.0659 22.5 22.5 21.9341 22.5 21.2389ZM25.875 24.6139C25.875 24.2764 26.0066 23.9603 26.244 23.7218L27.0968 22.869C27.3353 22.6316 27.6514 22.5 27.9889 22.5C28.6841 22.5 29.25 23.0659 29.25 23.7611C29.25 24.0986 29.1184 24.4147 28.881 24.6532L28.0282 25.506C27.7897 25.7434 27.4736 25.875 27.1361 25.875C26.4409 25.875 25.875 25.3091 25.875 24.6139ZM29.25 27.9889C29.25 27.6514 29.3816 27.3353 29.619 27.0968L30.4718 26.244C30.7103 26.0066 31.0264 25.875 31.3639 25.875C32.0591 25.875 32.625 26.4409 32.625 27.1361C32.625 27.4736 32.4934 27.7897 32.256 28.0282L31.4032 28.881C31.1647 29.1184 30.8486 29.25 30.5111 29.25C29.8159 29.25 29.25 28.6841 29.25 27.9889ZM33.8861 32.625C33.1909 32.625 32.625 32.0591 32.625 31.3639C32.625 31.0264 32.7566 30.7103 32.994 30.4718L33.8468 29.619C34.0853 29.3816 34.4014 29.25 34.7389 29.25C35.4341 29.25 36 29.8159 36 30.5111C36 30.8486 35.8684 31.1647 35.631 31.4032L34.7782 32.256C34.5397 32.4934 34.2236 32.625 33.8861 32.625ZM19.125 66.375V68.625H16.875V64.125H14.625V68.625H7.875V64.125H5.625V68.625H3.375V66.375C3.375 62.0325 6.9075 58.5 11.25 58.5C15.5925 58.5 19.125 62.0325 19.125 66.375ZM15.75 51.75C15.75 54.2318 13.7318 56.25 11.25 56.25C8.76825 56.25 6.75 54.2318 6.75 51.75C6.75 49.2682 8.76825 47.25 11.25 47.25C13.7318 47.25 15.75 49.2682 15.75 51.75ZM43.875 66.375V68.625H41.625V64.125H39.375V68.625H32.625V64.125H30.375V68.625H28.125V66.375C28.125 62.0325 31.6575 58.5 36 58.5C40.3425 58.5 43.875 62.0325 43.875 66.375ZM40.5 51.75C40.5 54.2318 38.4818 56.25 36 56.25C33.5182 56.25 31.5 54.2318 31.5 51.75C31.5 49.2682 33.5182 47.25 36 47.25C38.4818 47.25 40.5 49.2682 40.5 51.75ZM56.25 51.75C56.25 49.2682 58.2682 47.25 60.75 47.25C63.2318 47.25 65.25 49.2682 65.25 51.75C65.25 54.2318 63.2318 56.25 60.75 56.25C58.2682 56.25 56.25 54.2318 56.25 51.75ZM68.625 68.625H66.375V64.125H64.125V68.625H57.375V64.125H55.125V68.625H52.875V66.375C52.875 62.0325 56.4075 58.5 60.75 58.5C65.0925 58.5 68.625 62.0325 68.625 66.375V68.625Z" fill="#404040"/>
<path d="M42.75 42.75H45V45H42.75V42.75Z" fill="#404040"/>
<path d="M47.25 42.75H49.5V45H47.25V42.75Z" fill="#404040"/>
<path d="M51.75 42.75H54V45H51.75V42.75Z" fill="#404040"/>
<path d="M18 42.75H20.25V45H18V42.75Z" fill="#404040"/>
<path d="M22.5 42.75H24.75V45H22.5V42.75Z" fill="#404040"/>
<path d="M27 42.75H29.25V45H27V42.75Z" fill="#404040"/>
</svg>
