<svg width="72" height="72" viewBox="0 0 72 72" fill="none" xmlns="http://www.w3.org/2000/svg">
<path d="M58.4309 62.7097L55.7425 54.6434C54.803 51.8272 52.4061 49.7485 49.4843 49.2166L41.7234 47.8045V47.203C43.074 46.4191 44.2492 45.3704 45.1852 44.129H47.5299C49.4506 44.129 51.0137 42.5659 51.0137 40.6452V26.7097C51.0137 18.3855 44.2411 11.6129 35.917 11.6129C27.5928 11.6129 20.8202 18.3855 20.8202 26.7097V34.8387C20.8202 37.0777 22.4123 38.9508 24.5235 39.3875C25.175 42.725 27.2607 45.5493 30.1105 47.203V47.8045L22.3484 49.2166C19.4278 49.7485 17.0297 51.8272 16.0914 54.6434L15.6269 56.0381L11.6715 52.0827C11.2186 51.6298 11.2186 50.8924 11.6715 50.4395L16.2586 45.8535L7.64882 37.2437L2.46482 42.4277C0.929598 43.963 0.0841789 46.0045 0.0841789 48.1761C0.0841789 50.3477 0.929598 52.3881 2.46482 53.9233L18.1597 69.6182C19.6949 71.1534 21.7364 72 23.9081 72C26.0797 72 28.1201 71.1534 29.6193 69.653L35.2759 64.4702L33.5119 62.7097H58.4309ZM48.6912 40.6452C48.6912 41.2862 48.1697 41.8064 47.5299 41.8064H46.5532C46.89 41.0388 47.1455 40.2294 47.3104 39.3875C47.8074 39.2841 48.265 39.0867 48.6912 38.8382V40.6452ZM47.5299 36.8384V32.839C48.2208 33.2419 48.6912 33.9828 48.6912 34.8387C48.6912 35.6946 48.2208 36.4355 47.5299 36.8384ZM24.3041 36.8384C23.6131 36.4355 23.1428 35.6946 23.1428 34.8387C23.1428 33.9828 23.6131 33.2419 24.3041 32.839V36.8384ZM24.3041 29.0323V30.3584C23.8906 30.4664 23.5028 30.629 23.1428 30.8392V26.7097C23.1428 19.6664 28.8737 13.9355 35.917 13.9355C42.9602 13.9355 48.6912 19.6664 48.6912 26.7097V30.8392C48.3312 30.629 47.9433 30.4653 47.5299 30.3584V29.0323H46.3686C42.9346 29.0323 39.7062 27.6944 37.2768 25.2662L35.917 23.9063L34.5571 25.2662C32.1277 27.6944 28.8993 29.0323 25.4653 29.0323H24.3041ZM26.6266 37.1613V31.3107C30.114 31.0483 33.3656 29.6094 35.917 27.1835C38.4683 29.6094 41.7199 31.0494 45.2073 31.3107V37.1613C45.2073 38.8544 44.7451 40.4384 43.9508 41.8064H35.917V44.129H42.0416C40.4042 45.5702 38.2639 46.4516 35.917 46.4516C30.7945 46.4516 26.6266 42.2837 26.6266 37.1613ZM39.4008 48.2388V48.2934L35.917 51.7773L32.4331 48.2934V48.2388C33.534 48.5849 34.7034 48.7742 35.917 48.7742C37.1305 48.7742 38.2999 48.5849 39.4008 48.2388ZM18.2932 55.3773C18.9633 53.3659 20.6762 51.8806 22.763 51.4997L30.8804 50.0249L35.917 55.0614L40.9523 50.0261L49.0686 51.5009C51.1554 51.8818 52.8683 53.3659 53.5384 55.3784L55.2095 60.3871H31.1893L26.6661 55.8639L21.6401 60.4103C21.2022 60.8504 20.437 60.8504 19.998 60.4103L17.4617 57.8741L18.2932 55.3773ZM7.64766 40.5279L12.9733 45.8535L11.7122 47.1147L6.3865 41.789L7.64766 40.5279ZM28.0109 67.9784C26.9146 69.0724 25.4561 69.6774 23.9057 69.6774C22.3554 69.6774 20.8968 69.0724 19.7994 67.9761L4.10457 52.2824C3.00831 51.1862 2.40444 49.7276 2.40444 48.1773C2.40444 46.6258 3.00831 45.1672 4.10457 44.071L4.74328 43.4323L10.069 48.7579L10.0271 48.7997C8.6696 50.1584 8.6696 52.3684 10.0271 53.7271L18.3548 62.0547C19.0132 62.712 19.8877 63.0755 20.819 63.0755C21.7504 63.0755 22.6248 62.7132 23.2403 62.0954L23.3274 62.0175L28.6775 67.3676L28.0109 67.9784ZM30.3915 65.7952L25.0531 60.4568L26.5871 59.0702L31.9163 64.3994L30.3915 65.7952Z" fill="#404040"/>
<path d="M68.4331 0H52.1751C50.2543 0 48.6912 1.5631 48.6912 3.48387V12.7742C48.6912 14.695 50.2543 16.2581 52.1751 16.2581H55.2769L54.0761 23.2618L65.2825 16.2581H68.4331C70.3539 16.2581 71.917 14.695 71.917 12.7742V3.48387C71.917 1.5631 70.3539 0 68.4331 0ZM69.5944 12.7742C69.5944 13.4141 69.073 13.9355 68.4331 13.9355H64.616L57.2406 18.5446L58.0314 13.9355H52.1751C51.5352 13.9355 51.0138 13.4141 51.0138 12.7742V3.48387C51.0138 2.844 51.5352 2.32258 52.1751 2.32258H68.4331C69.073 2.32258 69.5944 2.844 69.5944 3.48387V12.7742Z" fill="#404040"/>
<path d="M67.2718 4.64516H53.3363V6.96774H67.2718V4.64516Z" fill="#404040"/>
<path d="M62.6267 9.29033H53.3363V11.6129H62.6267V9.29033Z" fill="#404040"/>
<path d="M67.2718 9.29033H64.9493V11.6129H67.2718V9.29033Z" fill="#404040"/>
<path d="M35.9169 3.48387C20.7435 3.48387 7.67321 13.9796 4.27527 28.62L2.07463 24.9515L0.0830154 26.1465L4.16495 32.9481L10.9666 28.8662L9.77166 26.8746L6.62456 28.7628C9.91566 15.3697 21.9594 5.80645 35.9169 5.80645C38.9677 5.80645 41.9777 6.25936 44.8635 7.15355L45.551 4.93548C42.4422 3.97161 39.2011 3.48387 35.9169 3.48387Z" fill="#404040"/>
<path d="M71.3526 25.7132L64.5509 21.6313L60.4701 28.4341L62.4617 29.6291L64.494 26.2416C65.5635 29.3713 66.1105 32.645 66.1105 35.9999C66.1105 42.9061 63.7183 49.6579 59.3762 55.0102L61.1797 56.4735C65.8574 50.7088 68.4331 43.4368 68.4331 35.9999C68.4331 32.4475 67.8606 28.9788 66.7446 25.6575L70.1576 27.7048L71.3526 25.7132Z" fill="#404040"/>
</svg>
