<svg width="72" height="72" viewBox="0 0 72 72" fill="none" xmlns="http://www.w3.org/2000/svg">
<g clip-path="url(#clip0)">
<path d="M30.3725 12.8972L28.2744 11.9719C28.1793 11.6196 28.076 11.2862 27.9609 10.9646L29.1268 8.95691C29.3393 8.58976 29.3429 8.13801 29.1363 7.76756C28.5619 6.74216 27.876 5.78335 27.0911 4.90854C26.8001 4.58077 26.353 4.4389 25.9264 4.53869L23.7191 5.04365C23.462 4.83821 23.1936 4.64013 22.9137 4.44957L22.7 2.1131C22.6604 1.68614 22.3965 1.31268 22.0074 1.13279C20.9552 0.640008 19.8503 0.268955 18.714 0.0268464C18.2854 -0.0643763 17.8413 0.0860585 17.5564 0.418939L16.016 2.20718H15.0908L13.5501 0.418789C13.2655 0.0856077 12.8211 -0.0649775 12.3925 0.0266961C11.2562 0.268955 10.1513 0.640007 9.09914 1.13264C8.7096 1.31283 8.4457 1.68689 8.40647 2.11415L8.19277 4.44942C7.91444 4.63968 7.64453 4.83806 7.38739 5.0435L5.17986 4.53869C4.75321 4.4386 4.30596 4.58062 4.01516 4.90854C3.23007 5.7832 2.54417 6.74201 1.96994 7.76756C1.76329 8.13801 1.7669 8.58976 1.9794 8.95691L3.14531 10.9646C3.03019 11.2863 2.92695 11.6196 2.83182 11.9719L0.733545 12.8971C0.29802 13.0896 0.0171382 13.5209 0.0172884 13.9972V17.2634C0.0169879 17.7397 0.29787 18.171 0.733545 18.3635L2.83167 19.2888C2.9268 19.6411 3.03004 19.9746 3.14516 20.2962L1.97925 22.3038C1.76675 22.671 1.76314 23.1227 1.96979 23.4932C2.54417 24.5186 3.23007 25.4774 4.01501 26.3522C4.30641 26.6792 4.75306 26.8211 5.17971 26.722L7.38694 26.2171C7.64408 26.4225 7.91249 26.6206 8.19232 26.8112L8.40602 29.1476C8.4457 29.5746 8.7096 29.9481 9.09869 30.1279C10.1508 30.6207 11.2557 30.9918 12.392 31.2339C12.8206 31.3245 13.2644 31.1742 13.5497 30.8418L15.0901 29.0537H16.0152L17.5557 30.8418C17.7839 31.1074 18.1167 31.26 18.4668 31.2597C18.5496 31.2599 18.6323 31.2512 18.7134 31.2339C19.8497 30.9916 20.9546 30.6206 22.0068 30.1279C22.3963 29.9478 22.6602 29.5737 22.6994 29.1464L22.9131 26.8112C23.1915 26.6209 23.4614 26.4225 23.7185 26.2171L25.9259 26.7219C26.3526 26.8214 26.7995 26.6794 27.0906 26.352C27.8757 25.4774 28.5616 24.5186 29.1358 23.493C29.3425 23.1226 29.3389 22.6708 29.1264 22.3037L27.9605 20.296C28.0756 19.9743 28.1788 19.6409 28.2739 19.2887L30.3721 18.3635C30.8076 18.171 31.0885 17.7397 31.0883 17.2634V13.9973C31.0889 13.521 30.808 13.0896 30.3725 12.8972ZM28.6844 16.4805L26.7648 17.327C26.4181 17.4806 26.164 17.7887 26.079 18.1582C25.9442 18.7673 25.758 19.364 25.5225 19.9417C25.3792 20.2879 25.4052 20.6811 25.593 21.0054L26.6931 22.9015C26.4059 23.3576 26.0918 23.7963 25.7526 24.2153L23.6745 23.7398C23.2967 23.6511 22.8995 23.7518 22.6096 24.0099C22.1492 24.414 21.656 24.7789 21.1348 25.1006C20.8141 25.2993 20.6054 25.6371 20.5713 26.0129L20.3693 28.219C19.8894 28.4138 19.3986 28.5805 18.8993 28.718L17.4775 27.0673C17.2491 26.802 16.9165 26.6495 16.5663 26.6493H14.5397C14.1897 26.6495 13.8571 26.802 13.6286 27.0673L12.2067 28.718C11.707 28.5805 11.2159 28.4138 10.7356 28.219L10.5336 26.0106C10.4987 25.6355 10.2901 25.2983 9.97004 25.0996C9.449 24.7787 8.95607 24.4141 8.4965 24.01C8.2066 23.7521 7.80939 23.6514 7.43158 23.74L5.35344 24.2155C5.01425 23.7965 4.70031 23.3578 4.41296 22.9017L5.51305 21.0055C5.70075 20.6812 5.7269 20.2881 5.58353 19.9418C5.34803 19.3641 5.16183 18.7675 5.02703 18.1584C4.94211 17.7888 4.68813 17.4807 4.34128 17.3272L2.42169 16.4806V14.7804L4.34143 13.9339C4.68813 13.7803 4.94226 13.4722 5.02718 13.1027C5.16198 12.4936 5.34818 11.8969 5.58368 11.3192C5.72705 10.973 5.70105 10.5798 5.5132 10.2555L4.41311 8.35938C4.70031 7.90326 5.01425 7.46458 5.35344 7.04559L7.43158 7.52109C7.80939 7.609 8.2063 7.50831 8.4965 7.25103C8.95682 6.84691 9.45005 6.48202 9.97124 6.16026C10.2919 5.96159 10.5007 5.62375 10.5348 5.24803L10.7368 3.04186C11.2166 2.84709 11.7075 2.68042 12.2067 2.54291L13.6286 4.19364C13.857 4.45889 14.1896 4.61143 14.5397 4.61158H16.5662C16.9162 4.61143 17.2488 4.45874 17.4774 4.19364L18.8992 2.54291C19.3989 2.68042 19.89 2.84709 20.3703 3.04186L20.5723 5.25029C20.6072 5.6254 20.8158 5.96264 21.1359 6.16131C21.6569 6.48217 22.1498 6.84676 22.6094 7.25088C22.8995 7.50831 23.2965 7.609 23.6743 7.52094L25.7525 7.04544C26.0917 7.46443 26.4058 7.90311 26.693 8.35923L25.5929 10.2554C25.4052 10.5797 25.379 10.9728 25.5224 11.3191C25.7579 11.8968 25.9441 12.4934 26.0789 13.1025C26.1638 13.4721 26.4178 13.7801 26.7646 13.9337L28.6842 14.7803V16.4805H28.6844Z" fill="#404040"/>
<path d="M15.5531 7.21452C10.9051 7.21452 7.13717 10.9825 7.13717 15.6305C7.14273 20.2761 10.9075 24.0408 15.5531 24.0464C20.2011 24.0464 23.969 20.2785 23.969 15.6305C23.969 10.9825 20.2011 7.21452 15.5531 7.21452ZM15.5531 21.6418C12.2332 21.6418 9.54172 18.9504 9.54172 15.6305C9.54563 12.312 12.2347 9.62298 15.5531 9.61907C18.873 9.61907 21.5645 12.3105 21.5645 15.6305C21.5645 18.9504 18.873 21.6418 15.5531 21.6418Z" fill="#404040"/>
<path d="M71.2653 10.7648L69.6051 10.0321C69.5405 9.79966 69.4701 9.57663 69.395 9.35932L70.3201 7.76495C70.5326 7.39736 70.5363 6.9453 70.3296 6.5744C69.8428 5.70771 69.2626 4.89707 68.5989 4.15692C68.3081 3.82975 67.8618 3.68773 67.4354 3.78707L65.6884 4.18623C65.5169 4.05232 65.3408 3.92248 65.16 3.79639L64.9909 1.94368C64.9521 1.51627 64.6881 1.14191 64.2982 0.962171C63.4071 0.545883 62.4717 0.231938 61.5097 0.0263489C61.0811 -0.0651745 60.6367 0.0852604 60.3521 0.418441L59.1286 1.83908H58.5416L57.3181 0.418441C57.0336 0.0849599 56.5891 -0.0656253 56.1605 0.0263489C55.1987 0.231938 54.2631 0.545732 53.372 0.962171C52.9821 1.14191 52.7181 1.51627 52.6793 1.94368L52.5102 3.79639C52.3294 3.92203 52.1533 4.05202 51.9818 4.18623L50.2348 3.78707C49.8084 3.68833 49.3624 3.8302 49.0713 4.15692C48.4074 4.89692 47.8275 5.70816 47.3418 6.5756C47.1351 6.94605 47.1386 7.39781 47.3511 7.76495L48.2752 9.35812C48.2001 9.57528 48.13 9.79996 48.0651 10.032L46.4049 10.7648C45.9688 10.9567 45.6873 11.3883 45.6876 11.8649V14.5864C45.6873 15.0629 45.9688 15.4945 46.4049 15.6865L48.0651 16.4191C48.1297 16.6516 48.2001 16.8746 48.2752 17.0919L47.35 18.6864C47.1375 19.054 47.1339 19.5061 47.3406 19.877C47.8272 20.7437 48.4076 21.5543 49.0713 22.2945C49.3624 22.6218 49.8093 22.7638 50.236 22.6643L51.9806 22.264C52.1521 22.3989 52.3293 22.5294 52.5101 22.655L52.6791 24.5077C52.7179 24.9353 52.9821 25.3095 53.3718 25.4892C54.263 25.9055 55.1984 26.2195 56.1603 26.425C56.5889 26.5158 57.0329 26.3655 57.318 26.033L58.5414 24.6123H59.1285L60.3519 26.033C60.5802 26.2985 60.9129 26.4512 61.2631 26.4509C61.3459 26.451 61.4286 26.4423 61.5097 26.425C62.4717 26.2195 63.4071 25.9057 64.2982 25.4892C64.6881 25.3095 64.9521 24.9351 64.9909 24.5077L65.16 22.655C65.3408 22.5294 65.5169 22.3994 65.6884 22.2652L67.4354 22.6643C67.8618 22.7632 68.308 22.6213 68.5989 22.2945C69.2624 21.5545 69.8428 20.7437 70.3296 19.877C70.5363 19.5061 70.5326 19.054 70.3201 18.6864L69.395 17.0921C69.4701 16.8749 69.5406 16.6517 69.6051 16.4192L71.2653 15.6866C71.7014 15.4947 71.9829 15.0631 71.9826 14.5865V11.8649C71.9829 11.3883 71.7014 10.9567 71.2653 10.7648ZM69.578 13.8034L68.0974 14.4562C67.7491 14.6094 67.4942 14.9187 67.4106 15.2899C67.3008 15.7852 67.1491 16.2702 66.9574 16.7398C66.814 17.0864 66.84 17.48 67.0279 17.8047L67.8837 19.2795C67.69 19.58 67.481 19.8728 67.2567 20.1577L65.6458 19.7891C65.2688 19.7009 64.8725 19.8016 64.5833 20.0591C64.2088 20.3877 63.8076 20.6842 63.3835 20.9455C63.0619 21.1442 62.8522 21.4825 62.8175 21.8589L62.6613 23.5755C62.3385 23.7023 62.0144 23.8126 61.6916 23.9043L60.5903 22.6257C60.3618 22.3604 60.0293 22.2079 59.6792 22.2078H57.9909C57.6409 22.2079 57.3084 22.3606 57.0799 22.6257L55.9786 23.9043C55.6558 23.8128 55.3317 23.7023 55.0089 23.5755L54.8527 21.8589C54.818 21.4825 54.6085 21.1442 54.2867 20.9455C53.8628 20.6845 53.4618 20.3878 53.0879 20.0591C52.7968 19.8034 52.401 19.7025 52.023 19.7879L50.4133 20.1565C50.1891 19.8735 49.98 19.58 49.7863 19.2795L50.6422 17.8047C50.8299 17.48 50.856 17.0864 50.7127 16.7398C50.5209 16.2702 50.3693 15.785 50.2594 15.2899C50.1757 14.9187 49.9208 14.6094 49.5726 14.4562L48.092 13.8034V12.6482L49.5726 11.9953C49.921 11.8422 50.1758 11.5329 50.2594 11.1617C50.3694 10.6657 50.5211 10.1799 50.7127 9.70934C50.856 9.36308 50.83 8.96994 50.6422 8.64562L49.7874 7.17088C49.9799 6.87151 50.1889 6.57801 50.4131 6.29382L52.024 6.66247C52.4011 6.74963 52.797 6.64909 53.0866 6.3924C53.4611 6.06388 53.8623 5.76737 54.2864 5.50603C54.608 5.30735 54.8177 4.96906 54.8524 4.5926L55.0085 2.87605C55.3314 2.74921 55.6555 2.6389 55.9783 2.54722L57.0796 3.82584C57.3081 4.0911 57.6406 4.24364 57.9908 4.24379H59.6791C60.0291 4.24364 60.3618 4.0911 60.5903 3.82584L61.6916 2.54722C62.0144 2.63875 62.3385 2.74921 62.6613 2.87605L62.8175 4.5926C62.8522 4.96906 63.0617 5.30735 63.3835 5.50603C63.8076 5.76737 64.2088 6.06388 64.5833 6.3924C64.8728 6.64939 65.2689 6.75008 65.6458 6.66247L67.2567 6.29382C67.481 6.57801 67.69 6.87061 67.8837 7.17208L67.0279 8.64682C66.8402 8.97159 66.814 9.36518 66.9574 9.71174C67.1491 10.1814 67.3008 10.6665 67.4106 11.1617C67.4943 11.5329 67.7492 11.8422 68.0974 11.9953L69.578 12.6482V13.8034V13.8034Z" fill="#404040"/>
<path d="M58.8351 7.21452C55.5152 7.21452 52.8237 9.90596 52.8237 13.2259C52.8276 16.5443 55.5167 19.2334 58.8351 19.2373C62.155 19.2373 64.8465 16.5458 64.8465 13.2259C64.8465 9.90596 62.155 7.21452 58.8351 7.21452ZM58.8351 16.8327C56.8431 16.8327 55.2283 15.2179 55.2283 13.2259C55.2304 11.2348 56.844 9.62117 58.8351 9.61907C60.8271 9.61907 62.4419 11.2339 62.4419 13.2259C62.4419 15.2179 60.827 16.8327 58.8351 16.8327Z" fill="#404040"/>
<path d="M70.9681 50.8767L69.2257 50.5103C69.1541 50.2086 69.0731 49.9068 68.9827 49.6074L70.3189 48.4098C70.7026 48.0664 70.8249 47.5168 70.6229 47.0431C70.043 45.6972 69.3013 44.427 68.4145 43.2602C68.104 42.8499 67.5677 42.6816 67.0783 42.841L65.3981 43.3929C65.1844 43.1662 64.9626 42.9444 64.736 42.7307L65.2878 41.0517C65.4485 40.5631 65.2805 40.0265 64.8699 39.7167C63.7032 38.8284 62.4326 38.0859 61.0857 37.5059C60.6119 37.306 60.0635 37.4281 59.719 37.8099L58.5214 39.1472C58.2221 39.0556 57.9203 38.9746 57.6185 38.903L57.2521 37.1606C57.1349 36.6044 56.6442 36.2061 56.0757 36.2059H51.9759C51.4074 36.2061 50.9167 36.6042 50.7995 37.1606L50.4331 38.903C50.1313 38.9746 49.8296 39.0556 49.5302 39.146L48.3326 37.8098C47.9883 37.4278 47.4397 37.3057 46.9659 37.5058C45.62 38.0857 44.3497 38.8274 43.1829 39.7142C42.7716 40.0239 42.6031 40.561 42.7638 41.0504L43.3156 42.7305C43.089 42.9443 42.8672 43.1661 42.6535 43.3927L40.9745 42.8409C40.4859 42.6826 39.9506 42.8502 39.6395 43.2588C38.7512 44.4255 38.0086 45.6961 37.4287 47.043C37.2267 47.5167 37.349 48.0663 37.7327 48.4097L39.0699 49.6073C38.9784 49.9066 38.8974 50.2084 38.8257 50.5102L37.0833 50.8766C36.5271 50.9938 36.1289 51.4845 36.1287 52.053V56.1529C36.1289 56.7214 36.527 57.2121 37.0833 57.3293L38.8257 57.6957C38.8974 57.9975 38.9784 58.2993 39.0687 58.5986L37.7326 59.7963C37.3489 60.1397 37.2266 60.6892 37.4285 61.1629C38.0085 62.5089 38.7501 63.7791 39.637 64.9459C39.9475 65.3562 40.4838 65.5245 40.9732 65.3651L42.6533 64.8132C42.867 65.0398 43.0889 65.2617 43.3155 65.4754L42.7636 67.1543C42.603 67.6429 42.771 68.1796 43.1816 68.4893C44.3482 69.3776 45.6189 70.1202 46.9657 70.7002C47.4393 70.9032 47.9896 70.7807 48.3324 70.3961L49.5301 69.0589C49.8294 69.1504 50.1312 69.2314 50.433 69.3031L50.7994 71.0455C50.9166 71.6017 51.4073 72 51.9758 72.0001H56.0757C56.6442 72 57.1349 71.6019 57.2521 71.0455L57.6185 69.3031C57.9203 69.2314 58.2221 69.1504 58.5214 69.0601L59.719 70.3963C60.0618 70.7809 60.6122 70.9032 61.0857 70.7003C62.4317 70.1204 63.7019 69.3787 64.8687 68.4919C65.28 68.1821 65.4485 67.6449 65.2878 67.1557L64.736 65.4755C64.9626 65.2618 65.1844 65.04 65.3981 64.8134L67.0771 65.3652C67.5657 65.5247 68.1016 65.3568 68.4121 64.9473C69.3004 63.7806 70.043 62.5099 70.6229 61.1631C70.8249 60.6894 70.7026 60.1398 70.3189 59.7964L68.9817 58.5988C69.0732 58.2994 69.1542 57.9977 69.2259 57.6959L70.9683 57.3295C71.5245 57.2123 71.9228 56.7216 71.9229 56.1531V52.0532C71.9226 51.4848 71.5245 50.9939 70.9681 50.8767ZM69.518 55.1774L67.9625 55.505C67.4836 55.6057 67.1136 55.9864 67.0266 56.4678C66.8968 57.1809 66.7079 57.8818 66.4619 58.5636C66.2962 59.0244 66.4268 59.5394 66.7917 59.8657L68.0528 60.9952C67.7391 61.6216 67.3842 62.2265 66.9903 62.8057L65.4018 62.2832C64.9363 62.1312 64.4252 62.2755 64.108 62.6484C63.6388 63.2031 63.1243 63.7179 62.5699 64.1876C62.1974 64.5047 62.0536 65.0155 62.206 65.4803L62.7285 67.0676C62.1493 67.4618 61.5446 67.8168 60.918 68.1301L59.7874 66.8691C59.46 66.5053 58.9452 66.375 58.4842 66.5392C57.8034 66.7857 57.103 66.9746 56.3907 67.104C55.9093 67.191 55.5285 67.561 55.428 68.0398L55.1004 69.5956H52.9517L52.6241 68.0398C52.5234 67.561 52.1428 67.191 51.6614 67.104C50.9483 66.9742 50.2474 66.7852 49.5655 66.5392H49.5657C49.1049 66.3763 48.5912 66.5065 48.2636 66.8691L47.1341 68.1301C46.5077 67.8165 45.9028 67.4615 45.3236 67.0676L45.8461 65.4791C45.9988 65.0137 45.8544 64.5021 45.4809 64.1853C44.9262 63.7161 44.4114 63.2017 43.9417 62.6473C43.6242 62.2755 43.114 62.1318 42.649 62.2833L41.0615 62.8059C40.6673 62.2267 40.3124 61.6219 39.999 60.9954L41.26 59.8648C41.6251 59.5381 41.7555 59.0226 41.5899 58.5615C41.3435 57.8807 41.1545 57.1804 41.0252 56.4681C40.9381 55.9867 40.5681 55.6059 40.0893 55.5053L38.5336 55.1777V53.0291L40.0893 52.7015C40.5681 52.6008 40.9381 52.2201 41.0252 51.7388C41.155 51.0257 41.3439 50.3247 41.5899 49.6429C41.7555 49.1821 41.6249 48.6671 41.26 48.3408L39.999 47.2114C40.3127 46.585 40.6676 45.9802 41.0615 45.401L42.65 45.9235C43.1155 46.0754 43.6266 45.9312 43.9438 45.5583C44.413 45.0036 44.9274 44.4887 45.4818 44.0191C45.8544 43.702 45.9982 43.1912 45.8458 42.7263L45.3233 41.139C45.9025 40.7448 46.5072 40.3899 47.1338 40.0765L48.2644 41.3376C48.5915 41.7019 49.1066 41.8321 49.5676 41.6674C50.2484 41.421 50.9487 41.2321 51.6611 41.1027C52.1425 41.0157 52.5233 40.6457 52.6238 40.1668L52.9514 38.6111H55.1001L55.4277 40.1668C55.5284 40.6457 55.909 41.0157 56.3904 41.1027C57.1035 41.2325 57.8044 41.4214 58.4861 41.6674C58.9469 41.8324 59.4616 41.702 59.7882 41.3376L60.9177 40.0765C61.5441 40.3902 62.149 40.7451 62.7282 41.139L62.2057 42.7275C62.053 43.193 62.1974 43.7045 62.5708 44.0213C63.1255 44.4905 63.6404 45.005 64.1101 45.5594C64.4282 45.93 64.9378 46.0735 65.4028 45.9233L66.9901 45.4008C67.3843 45.98 67.7393 46.5847 68.0526 47.2113L66.7916 48.3419C66.4265 48.6686 66.2961 49.1841 66.4617 49.6451C66.7082 50.3259 66.8971 51.0263 67.0265 51.7386C67.1135 52.22 67.4835 52.6008 67.9623 52.7013L69.518 53.0289V55.1774V55.1774Z" fill="#404040"/>
<path d="M54.026 43.2828C48.0501 43.2828 43.2055 48.1272 43.2055 54.1033C43.2055 60.0792 48.0501 64.9238 54.026 64.9238C59.9993 64.9173 64.84 60.0767 64.8465 54.1033C64.8465 48.1272 60.0019 43.2828 54.026 43.2828ZM54.026 62.5193C49.3804 62.5137 45.6156 58.7489 45.61 54.1033C45.61 49.4553 49.378 45.6874 54.026 45.6874C58.674 45.6874 62.4419 49.4553 62.4419 54.1033C62.4419 58.7513 58.674 62.5193 54.026 62.5193Z" fill="#404040"/>
<path d="M43.2055 13.2259H33.5873V15.6304H43.2055V13.2259Z" fill="#404040"/>
<path d="M33.4905 52.4285C33.3689 52.1442 33.1424 51.9177 32.8581 51.7961L24.4421 48.1893C23.8324 47.9275 23.1259 48.2096 22.8642 48.8193C22.7998 48.9693 22.7666 49.1308 22.7668 49.294V51.6986H8.33945V32.4622H5.93489V52.9009C5.93444 53.5645 6.47216 54.1027 7.13582 54.1031C7.13627 54.1031 7.13672 54.1031 7.13717 54.1031H22.7668V56.5077C22.7663 57.1712 23.3039 57.7095 23.9674 57.71C23.968 57.71 23.9684 57.71 23.969 57.71C24.1318 57.7103 24.2929 57.6772 24.4421 57.6126L32.8581 54.0057C33.4682 53.745 33.7514 53.0387 33.4905 52.4285ZM25.1713 54.6844V51.1176L29.3324 52.901L25.1713 54.6844Z" fill="#404040"/>
<path d="M57.911 49.7263L52.7426 55.929L50.0667 53.2533L48.3667 54.9533L51.9736 58.5602C52.1987 58.786 52.5047 58.9127 52.8236 58.9124C52.8411 58.9124 52.8599 58.9124 52.8775 58.9112C53.2152 58.896 53.5308 58.7397 53.7475 58.4804L59.7589 51.2667L57.911 49.7263Z" fill="#404040"/>
</g>
<defs>
<clipPath id="clip0">
<rect width="72" height="72" fill="white"/>
</clipPath>
</defs>
</svg>
