<svg width="135" height="40" viewBox="0 0 135 40" fill="none" xmlns="http://www.w3.org/2000/svg">
<mask id="path-1-inside-1" fill="white">
<path d="M130 0.8C131.114 0.8 132.182 1.2425 132.97 2.03015C133.758 2.8178 134.2 3.88609 134.2 5V35C134.2 36.1139 133.758 37.1822 132.97 37.9698C132.182 38.7575 131.114 39.2 130 39.2H5C3.88609 39.2 2.8178 38.7575 2.03015 37.9698C1.2425 37.1822 0.8 36.1139 0.8 35V5C0.8 3.88609 1.2425 2.8178 2.03015 2.03015C2.8178 1.2425 3.88609 0.8 5 0.8H130ZM130 0H5C3.67392 0 2.40215 0.526784 1.46447 1.46447C0.526784 2.40215 0 3.67392 0 5V35C0 36.3261 0.526784 37.5979 1.46447 38.5355C2.40215 39.4732 3.67392 40 5 40H130C131.326 40 132.598 39.4732 133.536 38.5355C134.473 37.5979 135 36.3261 135 35V5C135 3.67392 134.473 2.40215 133.536 1.46447C132.598 0.526784 131.326 0 130 0Z"/>
</mask>
<path d="M0.8 35H-0.2H0.8ZM130 0V-1V0ZM5 0V-1V0ZM0 5H-1H0ZM0 35H-1H0ZM135 35H136H135ZM130 1.8C130.849 1.8 131.663 2.13714 132.263 2.73726L133.677 1.32304C132.702 0.347855 131.379 -0.2 130 -0.2V1.8ZM132.263 2.73726C132.863 3.33737 133.2 4.15131 133.2 5H135.2C135.2 3.62088 134.652 2.29824 133.677 1.32304L132.263 2.73726ZM133.2 5V35H135.2V5H133.2ZM133.2 35C133.2 35.8487 132.863 36.6626 132.263 37.2627L133.677 38.677C134.652 37.7018 135.2 36.3791 135.2 35H133.2ZM132.263 37.2627C131.663 37.8629 130.849 38.2 130 38.2V40.2C131.379 40.2 132.702 39.6521 133.677 38.677L132.263 37.2627ZM130 38.2H5V40.2H130V38.2ZM5 38.2C4.15131 38.2 3.33737 37.8629 2.73726 37.2627L1.32304 38.677C2.29823 39.6521 3.62087 40.2 5 40.2V38.2ZM2.73726 37.2627C2.13714 36.6626 1.8 35.8487 1.8 35H-0.2C-0.2 36.3791 0.347855 37.7018 1.32304 38.677L2.73726 37.2627ZM1.8 35V5H-0.2V35H1.8ZM1.8 5C1.8 4.15131 2.13714 3.33737 2.73726 2.73726L1.32304 1.32304C0.347855 2.29823 -0.2 3.62087 -0.2 5H1.8ZM2.73726 2.73726C3.33737 2.13714 4.15131 1.8 5 1.8V-0.2C3.62087 -0.2 2.29823 0.347855 1.32304 1.32304L2.73726 2.73726ZM5 1.8H130V-0.2H5V1.8ZM130 -1H5V1H130V-1ZM5 -1C3.4087 -1 1.88258 -0.367859 0.757359 0.757359L2.17157 2.17157C2.92172 1.42143 3.93913 1 5 1V-1ZM0.757359 0.757359C-0.367859 1.88258 -1 3.4087 -1 5H1C1 3.93913 1.42143 2.92172 2.17157 2.17157L0.757359 0.757359ZM-1 5V35H1V5H-1ZM-1 35C-1 36.5913 -0.367859 38.1174 0.757359 39.2426L2.17157 37.8284C1.42143 37.0783 1 36.0609 1 35H-1ZM0.757359 39.2426C1.88258 40.3679 3.4087 41 5 41V39C3.93913 39 2.92172 38.5786 2.17157 37.8284L0.757359 39.2426ZM5 41H130V39H5V41ZM130 41C131.591 41 133.117 40.3679 134.243 39.2426L132.828 37.8284C132.078 38.5786 131.061 39 130 39V41ZM134.243 39.2426C135.368 38.1174 136 36.5913 136 35H134C134 36.0609 133.579 37.0783 132.828 37.8284L134.243 39.2426ZM136 35V5H134V35H136ZM136 5C136 3.4087 135.368 1.88258 134.243 0.757359L132.828 2.17157C133.579 2.92172 134 3.93913 134 5H136ZM134.243 0.757359C133.117 -0.36786 131.591 -1 130 -1V1C131.061 1 132.078 1.42143 132.828 2.17157L134.243 0.757359Z" fill="black" mask="url(#path-1-inside-1)"/>
<path d="M68.14 21.75C67.2975 21.752 66.4744 22.0037 65.775 22.4735C65.0755 22.9432 64.5311 23.6098 64.2105 24.389C63.8899 25.1682 63.8075 26.0249 63.9738 26.8509C64.1402 27.6768 64.5477 28.4349 65.1448 29.0293C65.742 29.6237 66.502 30.0276 67.3287 30.1901C68.1555 30.3525 69.0118 30.2661 69.7895 29.9419C70.5671 29.6176 71.2312 29.07 71.6976 28.3684C72.1641 27.6667 72.412 26.8425 72.41 26C72.4182 25.4379 72.3131 24.88 72.1012 24.3593C71.8892 23.8387 71.5747 23.366 71.1763 22.9695C70.7778 22.5729 70.3037 22.2606 69.7821 22.0511C69.2605 21.8416 68.702 21.7392 68.14 21.75ZM68.14 28.58C67.6236 28.6161 67.1082 28.496 66.661 28.2354C66.2137 27.9747 65.8552 27.5855 65.632 27.1184C65.4089 26.6513 65.3314 26.1279 65.4097 25.6161C65.488 25.1044 65.7184 24.6281 66.071 24.249C66.4236 23.87 66.882 23.6058 67.3868 23.4908C67.8915 23.3757 68.4192 23.4152 68.9012 23.6041C69.3832 23.7929 69.7973 24.1224 70.0895 24.5497C70.3818 24.977 70.5387 25.4823 70.54 26C70.5561 26.328 70.5064 26.6559 70.3937 26.9644C70.2811 27.2729 70.1078 27.5557 69.8841 27.7962C69.6605 28.0366 69.3909 28.2299 69.0914 28.3645C68.7918 28.4991 68.4683 28.5724 68.14 28.58ZM58.82 21.75C57.9775 21.752 57.1544 22.0037 56.455 22.4735C55.7555 22.9432 55.2111 23.6098 54.8905 24.389C54.5699 25.1682 54.4875 26.0249 54.6538 26.8509C54.8202 27.6768 55.2277 28.4349 55.8248 29.0293C56.422 29.6237 57.182 30.0276 58.0087 30.1901C58.8355 30.3525 59.6918 30.2661 60.4695 29.9419C61.2471 29.6176 61.9112 29.07 62.3776 28.3684C62.8441 27.6667 63.092 26.8425 63.09 26C63.0982 25.4379 62.9931 24.88 62.7812 24.3593C62.5692 23.8387 62.2547 23.366 61.8563 22.9695C61.4578 22.5729 60.9837 22.2606 60.4621 22.0511C59.9405 21.8416 59.382 21.7392 58.82 21.75ZM58.82 28.58C58.3036 28.6161 57.7882 28.496 57.341 28.2354C56.8937 27.9747 56.5352 27.5855 56.312 27.1184C56.0889 26.6513 56.0114 26.1279 56.0897 25.6161C56.168 25.1044 56.3984 24.6281 56.751 24.249C57.1036 23.87 57.562 23.6058 58.0668 23.4908C58.5715 23.3757 59.0992 23.4152 59.5812 23.6041C60.0632 23.7929 60.4773 24.1224 60.7695 24.5497C61.0618 24.977 61.2187 25.4823 61.22 26C61.2361 26.328 61.1864 26.6559 61.0737 26.9644C60.9611 27.2729 60.7878 27.5557 60.5641 27.7962C60.3405 28.0366 60.0709 28.2299 59.7714 28.3645C59.4718 28.4991 59.1483 28.5724 58.82 28.58ZM47.74 23.06V24.86H52.06C51.9923 25.7078 51.6399 26.5078 51.06 27.13C50.6267 27.5715 50.1055 27.9171 49.5301 28.1445C48.9548 28.3719 48.3381 28.476 47.72 28.45C46.447 28.45 45.2261 27.9443 44.3259 27.0441C43.4257 26.1439 42.92 24.923 42.92 23.65C42.92 22.3769 43.4257 21.156 44.3259 20.2559C45.2261 19.3557 46.447 18.85 47.72 18.85C48.9405 18.8318 50.1189 19.2953 51 20.14L52.27 18.87C51.674 18.2805 50.9663 17.8159 50.1885 17.5034C49.4106 17.1908 48.5782 17.0367 47.74 17.05C46.851 17.0154 45.9642 17.1606 45.1326 17.477C44.3011 17.7933 43.542 18.2743 42.9008 18.891C42.2596 19.5077 41.7494 20.2476 41.401 21.0662C41.0526 21.8848 40.873 22.7653 40.873 23.655C40.873 24.5447 41.0526 25.4252 41.401 26.2438C41.7494 27.0624 42.2596 27.8022 42.9008 28.419C43.542 29.0357 44.3011 29.5167 45.1326 29.833C45.9642 30.1494 46.851 30.2946 47.74 30.26C48.5954 30.2941 49.4484 30.147 50.2429 29.8281C51.0374 29.5093 51.7555 29.026 52.35 28.41C53.4001 27.2564 53.9597 25.7392 53.91 24.18C53.9136 23.8047 53.8835 23.4299 53.82 23.06H47.74ZM93.05 24.46C92.7892 23.6927 92.3015 23.0228 91.6515 22.5388C91.0015 22.0549 90.2198 21.7798 89.41 21.75C88.863 21.7489 88.3216 21.86 87.8192 22.0765C87.3169 22.293 86.8643 22.6102 86.4894 23.0085C86.1145 23.4068 85.8253 23.8778 85.6396 24.3924C85.454 24.9069 85.3758 25.454 85.41 26C85.4015 26.9128 85.6885 27.804 86.2281 28.5402C86.7678 29.2765 87.5312 29.8185 88.4043 30.0851C89.2773 30.3518 90.2133 30.3288 91.0722 30.0197C91.9312 29.7106 92.6671 29.1318 93.17 28.37L91.72 27.37C91.5039 27.7303 91.1973 28.0278 90.8307 28.233C90.464 28.4382 90.0501 28.5441 89.63 28.54C89.1966 28.5579 88.7679 28.4442 88.4002 28.214C88.0326 27.9838 87.7432 27.6477 87.57 27.25L93.26 24.9L93.05 24.46ZM87.25 25.88C87.2297 25.5694 87.2716 25.2578 87.3733 24.9636C87.4749 24.6694 87.6342 24.3984 87.8419 24.1665C88.0496 23.9346 88.3014 23.7465 88.5827 23.6132C88.864 23.4798 89.169 23.404 89.48 23.39C89.8022 23.3703 90.1231 23.4462 90.4023 23.6081C90.6816 23.7699 90.9069 24.0106 91.05 24.3L87.25 25.88ZM82.63 30H84.5V17.5H82.63V30ZM79.57 22.7H79.5C79.2207 22.3818 78.8759 22.1278 78.4893 21.9552C78.1027 21.7826 77.6834 21.6956 77.26 21.7C76.1672 21.753 75.1367 22.2244 74.382 23.0166C73.6273 23.8087 73.2063 24.8609 73.2063 25.955C73.2063 27.0491 73.6273 28.1012 74.382 28.8934C75.1367 29.6856 76.1672 30.157 77.26 30.21C77.684 30.2185 78.1046 30.1333 78.4918 29.9604C78.879 29.7875 79.2233 29.5313 79.5 29.21H79.57V29.82C79.57 31.45 78.7 32.32 77.3 32.32C76.8323 32.3097 76.3783 32.1607 75.9955 31.8918C75.6126 31.623 75.3184 31.2464 75.15 30.81L73.53 31.48C73.8295 32.2322 74.3503 32.8759 75.0234 33.3258C75.6966 33.7758 76.4904 34.0109 77.3 34C79.49 34 81.3 32.71 81.3 29.57V22H79.57V22.7ZM77.42 28.58C76.7648 28.5391 76.1498 28.2501 75.7003 27.7716C75.2508 27.2932 75.0006 26.6615 75.0006 26.005C75.0006 25.3485 75.2508 24.7167 75.7003 24.2383C76.1498 23.7599 76.7648 23.4708 77.42 23.43C77.7402 23.4438 78.0544 23.5219 78.3439 23.6596C78.6333 23.7973 78.8921 23.9919 79.1048 24.2317C79.3175 24.4714 79.4798 24.7516 79.5821 25.0553C79.6843 25.3591 79.7244 25.6804 79.7 26C79.7273 26.3207 79.6892 26.6436 79.5882 26.9491C79.4871 27.2547 79.3251 27.5366 79.112 27.7778C78.8988 28.0189 78.639 28.2144 78.3482 28.3523C78.0574 28.4902 77.7416 28.5676 77.42 28.58ZM101.81 17.5H97.33V30H99.2V25.26H101.81C102.343 25.2983 102.878 25.2264 103.382 25.0487C103.886 24.8711 104.348 24.5915 104.739 24.2275C105.13 23.8634 105.442 23.4227 105.655 22.9328C105.869 22.4429 105.979 21.9143 105.979 21.38C105.979 20.8457 105.869 20.3171 105.655 19.8272C105.442 19.3372 105.13 18.8965 104.739 18.5325C104.348 18.1685 103.886 17.8889 103.382 17.7113C102.878 17.5336 102.343 17.4617 101.81 17.5ZM101.81 23.5H99.2V19.24H101.85C102.131 19.24 102.409 19.2953 102.669 19.4029C102.929 19.5104 103.164 19.6681 103.363 19.8668C103.562 20.0655 103.72 20.3014 103.827 20.561C103.935 20.8207 103.99 21.099 103.99 21.38C103.99 21.661 103.935 21.9393 103.827 22.1989C103.72 22.4586 103.562 22.6945 103.363 22.8932C103.164 23.0919 102.929 23.2495 102.669 23.3571C102.409 23.4646 102.131 23.52 101.85 23.52L101.81 23.5ZM113.35 21.71C112.669 21.668 111.991 21.8265 111.399 22.166C110.807 22.5055 110.328 23.011 110.02 23.62L111.67 24.31C111.837 24.0094 112.087 23.7635 112.39 23.602C112.694 23.4405 113.038 23.3704 113.38 23.4C113.617 23.3723 113.858 23.3921 114.088 23.4583C114.317 23.5245 114.531 23.6358 114.718 23.7857C114.904 23.9356 115.058 24.121 115.172 24.3312C115.286 24.5414 115.356 24.7722 115.38 25.01V25.13C114.779 24.8139 114.109 24.6491 113.43 24.65C111.65 24.65 109.83 25.65 109.83 27.47C109.848 27.8568 109.943 28.2362 110.11 28.5855C110.277 28.9349 110.513 29.2471 110.803 29.5036C111.093 29.7601 111.431 29.9557 111.799 30.0788C112.166 30.2018 112.554 30.2499 112.94 30.22C113.409 30.2459 113.877 30.1466 114.295 29.9323C114.713 29.7179 115.067 29.3961 115.32 29H115.38V30H117.18V25.19C117.18 23 115.52 21.73 113.39 21.73L113.35 21.71ZM113.12 28.56C112.51 28.56 111.66 28.25 111.66 27.5C111.66 26.5 112.72 26.16 113.66 26.16C114.254 26.1453 114.841 26.2904 115.36 26.58C115.297 27.1231 115.04 27.625 114.635 27.9927C114.231 28.3604 113.707 28.5691 113.16 28.58L113.12 28.56ZM123.74 22L121.6 27.42H121.54L119.32 22H117.32L120.65 29.58L118.75 33.79H120.7L125.82 22H123.74ZM106.94 30H108.8V17.5H106.94V30Z" fill="black"/>
<path d="M10.44 7.53997C10.1105 7.92959 9.94233 8.43043 9.97 8.93997V31.06C9.93597 31.5704 10.1049 32.0735 10.44 32.46L10.51 32.54L22.9 20.15V19.85L10.51 7.46997L10.44 7.53997Z" fill="url(#paint0_linear)"/>
<path d="M27 24.28L22.9 20.15V19.85L27 15.72L27.09 15.78L32 18.56C33.4 19.35 33.4 20.65 32 21.45L27.11 24.23L27 24.28Z" fill="url(#paint1_linear)"/>
<path d="M27.12 24.22L22.9 20L10.44 32.46C10.7226 32.7115 11.0843 32.8562 11.4624 32.869C11.8404 32.8818 12.2111 32.7619 12.51 32.53L27.12 24.22Z" fill="url(#paint2_linear)"/>
<path d="M27.12 15.78L12.51 7.47997C12.213 7.24488 11.8427 7.12203 11.4641 7.133C11.0855 7.14397 10.7229 7.28808 10.44 7.53997L22.9 20L27.12 15.78Z" fill="url(#paint3_linear)"/>
<path opacity="0.2" d="M27 24.13L12.51 32.38C12.2219 32.5974 11.8709 32.715 11.51 32.715C11.1491 32.715 10.7981 32.5974 10.51 32.38L10.44 32.45L10.51 32.53C10.7981 32.7474 11.1491 32.865 11.51 32.865C11.8709 32.865 12.2219 32.7474 12.51 32.53L27.12 24.22L27 24.13Z" fill="black"/>
<path opacity="0.12" d="M10.44 32.32C10.1188 31.9234 9.96138 31.419 10 30.91V31.06C9.96597 31.5704 10.1349 32.0736 10.47 32.46L10.54 32.39L10.44 32.32Z" fill="black"/>
<path opacity="0.12" d="M32 21.3L27 24.13L27.09 24.22L32 21.44C32.2898 21.3174 32.5413 21.119 32.7278 20.8656C32.9143 20.6122 33.0291 20.3132 33.06 20C32.9975 20.2846 32.869 20.5505 32.6849 20.7763C32.5007 21.0021 32.2662 21.1815 32 21.3Z" fill="black"/>
<path opacity="0.25" d="M12.51 7.61998L32 18.7C32.2662 18.8185 32.5007 18.9979 32.6849 19.2237C32.869 19.4495 32.9975 19.7154 33.06 20C33.0291 19.6868 32.9143 19.3878 32.7278 19.1344C32.5413 18.881 32.2898 18.6825 32 18.56L12.51 7.47998C11.12 6.67998 9.97 7.33998 9.97 8.93998V9.08998C10 7.48998 11.12 6.82998 12.51 7.61998Z" fill="white"/>
<path d="M42.11 14.27H41.38V12.27H42C42.279 11.9672 42.4887 11.6073 42.6148 11.2153C42.7408 10.8234 42.7801 10.4087 42.73 10V7H46.73V12.26H47.4V14.26H46.66V13H42.11V14.27ZM43.5 10C43.5446 10.8033 43.346 11.6014 42.93 12.29H45.93V7.74H43.5V10Z" fill="black" stroke="black" stroke-width="0.2" stroke-miterlimit="10"/>
<path d="M53.41 12.22C53.122 12.5088 52.7799 12.7379 52.4032 12.8942C52.0266 13.0505 51.6228 13.131 51.215 13.131C50.8072 13.131 50.4034 13.0505 50.0267 12.8942C49.6501 12.7379 49.308 12.5088 49.02 12.22C48.4479 11.6225 48.1285 10.8272 48.1285 10C48.1285 9.1728 48.4479 8.37752 49.02 7.78002C49.308 7.49127 49.6501 7.26217 50.0267 7.10586C50.4034 6.94954 50.8072 6.86908 51.215 6.86908C51.6228 6.86908 52.0266 6.94954 52.4032 7.10586C52.7799 7.26217 53.122 7.49127 53.41 7.78002C53.6989 8.07202 53.9264 8.41885 54.0793 8.8001C54.2321 9.18136 54.3072 9.58933 54.3 10C54.3118 10.4113 54.2389 10.8206 54.0858 11.2026C53.9327 11.5845 53.7026 11.9308 53.41 12.22ZM49.58 11.72C49.7907 11.9389 50.0441 12.1121 50.3245 12.2291C50.6048 12.3461 50.9062 12.4042 51.21 12.4C51.514 12.406 51.8159 12.3487 52.0966 12.2316C52.3772 12.1145 52.6304 11.9403 52.84 11.72C53.2715 11.2511 53.511 10.6372 53.511 10C53.511 9.36282 53.2715 8.74889 52.84 8.28002C52.6304 8.05973 52.3772 7.88549 52.0966 7.76842C51.8159 7.65135 51.514 7.594 51.21 7.60002C50.9062 7.59581 50.6048 7.65398 50.3245 7.77095C50.0441 7.88791 49.7907 8.06118 49.58 8.28002C49.1548 8.75203 48.9196 9.36477 48.9196 10C48.9196 10.6353 49.1548 11.248 49.58 11.72Z" fill="black" stroke="black" stroke-width="0.2" stroke-miterlimit="10"/>
<path d="M58.18 13.13C57.7754 13.1364 57.3737 13.0608 56.999 12.9078C56.6244 12.7549 56.2846 12.5277 56 12.24C55.423 11.637 55.101 10.8346 55.101 10C55.101 9.16542 55.423 8.36302 56 7.76001C56.2892 7.46735 56.6356 7.23732 57.0175 7.08421C57.3994 6.9311 57.8087 6.85819 58.22 6.87001C58.6387 6.85817 59.0545 6.9421 59.4357 7.1154C59.817 7.28871 60.1537 7.54681 60.42 7.87001L59.89 8.39001C59.6936 8.13743 59.4394 7.93567 59.1488 7.80169C58.8582 7.6677 58.5397 7.6054 58.22 7.62001C57.9122 7.61216 57.6061 7.66757 57.3205 7.78282C57.035 7.89806 56.7761 8.07069 56.56 8.29001C56.1293 8.76322 55.8905 9.38011 55.8905 10.02C55.8905 10.6599 56.1293 11.2768 56.56 11.75C56.7761 11.9693 57.035 12.142 57.3205 12.2572C57.6061 12.3725 57.9122 12.4279 58.22 12.42C58.5636 12.4103 58.901 12.3255 59.2084 12.1718C59.5159 12.0181 59.786 11.799 60 11.53L60.54 12.06C60.2661 12.3883 59.9251 12.6542 59.54 12.84C59.1146 13.0388 58.6495 13.1379 58.18 13.13Z" fill="black" stroke="black" stroke-width="0.2" stroke-miterlimit="10"/>
<path d="M63.68 13H62.91V7.74H61.23V7H65.35V7.74H63.68V13Z" fill="black" stroke="black" stroke-width="0.2" stroke-miterlimit="10"/>
<path d="M70.65 7L68.38 12.06C68.325 12.2629 68.2265 12.4514 68.0913 12.6124C67.9562 12.7734 67.7877 12.9031 67.5974 12.9925C67.4072 13.0819 67.1997 13.1289 66.9895 13.1302C66.7793 13.1315 66.5713 13.0871 66.38 13L66.58 12.29C66.7024 12.3588 66.8397 12.3965 66.98 12.4C67.128 12.4074 67.2747 12.369 67.4 12.29C67.5215 12.1889 67.6145 12.058 67.67 11.91L67.89 11.43L65.89 7H66.8L68.28 10.44L69.74 7H70.65Z" fill="black" stroke="black" stroke-width="0.2" stroke-miterlimit="10"/>
<path d="M71.52 13V7H75.86V13H75.09V7.74H72.29V13H71.52Z" fill="black" stroke="black" stroke-width="0.2" stroke-miterlimit="10"/>
<path d="M77.23 13V7H78V9.57H81V7H81.78V13H81V10.29H78V13H77.23Z" fill="black" stroke="black" stroke-width="0.2" stroke-miterlimit="10"/>
<path d="M88.06 12.22C87.7712 12.5091 87.4282 12.7384 87.0507 12.8948C86.6732 13.0513 86.2686 13.1318 85.86 13.1318C85.4514 13.1318 85.0468 13.0513 84.6693 12.8948C84.2918 12.7384 83.9488 12.5091 83.66 12.22C83.0879 11.6225 82.7686 10.8272 82.7686 10C82.7686 9.1728 83.0879 8.37752 83.66 7.78002C83.948 7.49127 84.2901 7.26217 84.6667 7.10586C85.0434 6.94954 85.4472 6.86908 85.855 6.86908C86.2628 6.86908 86.6666 6.94954 87.0433 7.10586C87.4199 7.26217 87.762 7.49127 88.05 7.78002C88.6176 8.37984 88.9338 9.17425 88.9338 10C88.9338 10.8258 88.6176 11.6202 88.05 12.22H88.06ZM84.23 11.72C84.4396 11.9403 84.6928 12.1145 84.9734 12.2316C85.254 12.3487 85.556 12.406 85.86 12.4C86.1638 12.4042 86.4652 12.3461 86.7455 12.2291C87.0259 12.1121 87.2793 11.9389 87.49 11.72C87.9151 11.248 88.1504 10.6353 88.1504 10C88.1504 9.36477 87.9151 8.75203 87.49 8.28002C87.2793 8.06118 87.0259 7.88791 86.7455 7.77095C86.4652 7.65398 86.1638 7.59581 85.86 7.60002C85.556 7.594 85.254 7.65135 84.9734 7.76842C84.6928 7.88549 84.4396 8.05973 84.23 8.28002C83.7985 8.74889 83.559 9.36282 83.559 10C83.559 10.6372 83.7985 11.2511 84.23 11.72Z" fill="black" stroke="black" stroke-width="0.2" stroke-miterlimit="10"/>
<path d="M92.09 13V6.99997H94.26C94.7099 6.99545 95.1451 7.15956 95.48 7.45997C95.6471 7.60498 95.7803 7.78495 95.8701 7.98713C95.96 8.18931 96.0043 8.40876 96 8.62997C96.0024 8.89934 95.9259 9.16354 95.78 9.38997C95.6324 9.60468 95.4282 9.77429 95.19 9.87997C95.4787 9.97869 95.7324 10.1594 95.92 10.4C96.1038 10.645 96.2022 10.9436 96.2 11.25C96.2051 11.4805 96.1594 11.7093 96.066 11.9202C95.9727 12.131 95.8341 12.3187 95.66 12.47C95.3129 12.7929 94.854 12.9686 94.38 12.96L92.09 13ZM92.86 9.56997H94.26C94.391 9.57755 94.522 9.5554 94.6432 9.50518C94.7644 9.45496 94.8727 9.37797 94.96 9.27997C95.1296 9.1138 95.2266 8.88736 95.23 8.64997C95.2395 8.41184 95.1571 8.17916 95 7.99997C94.9159 7.90671 94.8122 7.83324 94.6964 7.78482C94.5806 7.73641 94.4554 7.71426 94.33 7.71997H92.89L92.86 9.56997ZM92.86 12.26H94.42C94.5554 12.2645 94.6902 12.2391 94.8147 12.1855C94.9391 12.1319 95.0502 12.0515 95.14 11.95C95.3127 11.7655 95.4091 11.5226 95.41 11.27C95.4039 11.0194 95.304 10.7803 95.13 10.6C95.0336 10.4987 94.917 10.4189 94.7879 10.3655C94.6587 10.3121 94.5197 10.2864 94.38 10.29H92.86V12.26Z" fill="black" stroke="black" stroke-width="0.2" stroke-miterlimit="10"/>
<defs>
<linearGradient id="paint0_linear" x1="21.8" y1="8.70997" x2="5.02" y2="25.49" gradientUnits="userSpaceOnUse">
<stop stop-color="#00A0FF"/>
<stop offset="0.01" stop-color="#00A1FF"/>
<stop offset="0.26" stop-color="#00BEFF"/>
<stop offset="0.51" stop-color="#00D2FF"/>
<stop offset="0.76" stop-color="#00DFFF"/>
<stop offset="1" stop-color="#00E3FF"/>
</linearGradient>
<linearGradient id="paint1_linear" x1="33.83" y1="20" x2="9.64" y2="20" gradientUnits="userSpaceOnUse">
<stop stop-color="#FFE000"/>
<stop offset="0.41" stop-color="#FFBD00"/>
<stop offset="0.78" stop-color="#FFA500"/>
<stop offset="1" stop-color="#FF9C00"/>
</linearGradient>
<linearGradient id="paint2_linear" x1="24.83" y1="22.3" x2="2.07" y2="45.05" gradientUnits="userSpaceOnUse">
<stop stop-color="#FF3A44"/>
<stop offset="1" stop-color="#C31162"/>
</linearGradient>
<linearGradient id="paint3_linear" x1="7.3" y1="0.17997" x2="17.46" y2="10.34" gradientUnits="userSpaceOnUse">
<stop stop-color="#32A071"/>
<stop offset="0.07" stop-color="#2DA771"/>
<stop offset="0.48" stop-color="#15CF74"/>
<stop offset="0.8" stop-color="#06E775"/>
<stop offset="1" stop-color="#00F076"/>
</linearGradient>
</defs>
</svg>
