<svg width="52" height="52" viewBox="0 0 52 52" fill="none" xmlns="http://www.w3.org/2000/svg">
<path d="M34.9583 28.1081L30.532 26.1408C30.2193 26.0019 30.0174 25.691 30.0174 25.3489V24.1334C31.5043 22.9487 32.46 21.1243 32.46 19.0799V17.3688C32.9498 17.0982 33.2741 16.5751 33.2741 15.9893V15.8233C33.2741 12.2608 30.3758 9.36255 26.8134 9.36255H25.1851C21.6227 9.36255 18.7244 12.2608 18.7244 15.8233V17.3299C18.7244 17.8449 18.946 18.3113 19.3323 18.6098C19.3978 18.6604 19.4667 18.7049 19.5386 18.7434V19.0798C19.5386 21.1242 20.4942 22.9486 21.9809 24.1332V25.3488C21.9809 25.6909 21.7789 26.0018 21.4663 26.1407L17.04 28.108C15.5904 28.7522 14.6537 30.1936 14.6537 31.7799V41.8756C14.6537 42.2963 14.9947 42.6373 15.4154 42.6373C15.8361 42.6373 16.1771 42.2963 16.1771 41.8756V31.78C16.1771 31.6917 16.1834 31.6045 16.1926 31.5179L18.2321 33.5575C18.5495 33.875 18.7244 34.297 18.7244 34.746V41.8757C18.7244 42.2964 19.0655 42.6374 19.4861 42.6374C19.9068 42.6374 20.2479 42.2964 20.2479 41.8757V34.746C20.2479 33.8901 19.9146 33.0856 19.3094 32.4803L16.8779 30.0487C17.097 29.8214 17.3598 29.633 17.6588 29.5001L22.0105 27.566L25.2376 30.7932V41.8756C25.2376 42.2963 25.5787 42.6373 25.9994 42.6373C26.42 42.6373 26.7611 42.2963 26.7611 41.8756V30.7933L29.9882 27.5661L34.3398 29.5001C34.6388 29.633 34.9016 29.8214 35.1207 30.0488L32.6892 32.4803C32.084 33.0856 31.7508 33.8901 31.7508 34.746V41.8757C31.7508 42.2964 32.0918 42.6374 32.5125 42.6374C32.9332 42.6374 33.2742 42.2964 33.2742 41.8757V34.746C33.2742 34.2971 33.449 33.875 33.7665 33.5575L35.806 31.518C35.8151 31.6046 35.8214 31.6916 35.8214 31.7799V41.8756C35.8214 42.2963 36.1625 42.6373 36.5831 42.6373C37.0038 42.6373 37.3448 42.2963 37.3448 41.8756V31.78C37.3445 30.1937 36.4079 28.7523 34.9583 28.1081ZM25.9991 29.4006L23.1674 26.5688C23.3827 26.2065 23.5043 25.7874 23.5043 25.3489V25.039C24.2724 25.3617 25.1153 25.5406 25.9992 25.5406C26.8831 25.5406 27.7258 25.3618 28.4938 25.0391V25.3489C28.4938 25.7875 28.6154 26.2065 28.8308 26.5689L25.9991 29.4006ZM25.9992 24.017C23.2768 24.0171 21.0619 21.8023 21.0619 19.0799V18.7373C21.5372 18.5489 22.0011 18.2491 22.4453 17.8393C22.7543 17.554 22.7737 17.0721 22.4883 16.7629C22.2031 16.4539 21.7212 16.4345 21.412 16.7197C21.031 17.0715 20.6504 17.2987 20.2809 17.3951C20.2719 17.3975 20.2653 17.3985 20.2607 17.3989C20.2552 17.3882 20.2478 17.3659 20.2478 17.33V15.8234C20.2478 13.101 22.4626 10.8861 25.185 10.8861H26.8133C29.5358 10.8861 31.7506 13.101 31.7506 15.8234V15.9894C31.7506 16.0141 31.7357 16.0355 31.7162 16.0394C27.1549 16.9402 24.8671 15.2424 24.0953 14.4705C23.7978 14.1731 23.3155 14.1731 23.0181 14.4705C22.7206 14.768 22.7206 15.2503 23.0181 15.5477C25.3835 17.9131 28.8351 17.9558 30.9364 17.7033V19.0798C30.9364 21.8021 28.7216 24.017 25.9992 24.017Z" fill="black"/>
<path d="M13.7355 23.9648V22.3362C13.7355 20.349 12.7029 18.5997 11.1468 17.593C11.2429 17.2848 11.2931 16.9619 11.2931 16.6372C11.2931 14.8704 9.85575 13.4331 8.08896 13.4331C6.32218 13.4331 4.88486 14.8705 4.88486 16.6372C4.88486 16.966 4.93463 17.2857 5.03091 17.5932C3.47497 18.5998 2.44238 20.3491 2.44238 22.3362V23.9644C2.44238 25.8888 3.41058 27.5903 4.88476 28.6102V30.2853C4.88476 30.6157 4.70124 30.9127 4.40579 31.0604L1.77115 32.3777C0.678642 32.9241 0 34.0222 0 35.2437V41.8756C0 42.2963 0.341048 42.6374 0.76172 42.6374C1.18239 42.6374 1.52344 42.2963 1.52344 41.8756V35.5732L2.76433 36.8141C3.08172 37.1315 3.25661 37.5535 3.25661 38.0025V41.8756C3.25661 42.2963 3.59766 42.6374 4.01833 42.6374C4.439 42.6374 4.78005 42.2963 4.78005 41.8756V38.0025C4.78005 37.1467 4.44672 36.3421 3.84161 35.7369L2.11454 34.0098C2.10621 34.0015 2.09727 33.9943 2.08874 33.9865C2.19711 33.8908 2.31868 33.8075 2.45254 33.7405L5.08717 32.4232C5.22215 32.3557 5.34778 32.2759 5.46489 32.1874L7.32724 34.0498V41.8757C7.32724 42.2964 7.66829 42.6375 8.08896 42.6375C8.50963 42.6375 8.85068 42.2964 8.85068 41.8757V34.0497L10.7131 32.1873C10.8303 32.2759 10.9559 32.3557 11.0908 32.4231L11.8173 32.7864C11.9267 32.8411 12.0429 32.867 12.1575 32.867C12.4369 32.867 12.7059 32.7127 12.8394 32.4459C13.0275 32.0696 12.875 31.612 12.4987 31.4239L11.7722 31.0606C11.4767 30.9129 11.2932 30.6159 11.2932 30.2856V28.6105C12.7673 27.5906 13.7355 25.889 13.7355 23.9648ZM8.08896 14.9565C9.01572 14.9565 9.76962 15.7105 9.76962 16.6372C9.76962 16.7393 9.76048 16.8393 9.74301 16.9373C9.21956 16.7767 8.66431 16.6896 8.08896 16.6896C7.51442 16.6896 6.95989 16.7763 6.43725 16.9366C6.41968 16.8386 6.4083 16.7391 6.4083 16.6372C6.4083 15.7104 7.1622 14.9565 8.08896 14.9565ZM8.08896 18.2132C10.3624 18.2132 12.2121 20.0628 12.2121 22.3363V22.6123C9.04081 23.5833 7.15083 21.1709 7.07008 21.0651C6.93754 20.8885 6.73493 20.778 6.51474 20.7624C6.29455 20.7469 6.07822 20.8275 5.92212 20.9836C5.19503 21.7107 4.48288 22.0614 3.96856 22.2307C4.02493 20.0058 5.85092 18.2132 8.08896 18.2132ZM8.08896 32.6569L6.32878 30.8967C6.38017 30.7003 6.4083 30.4955 6.4083 30.2854V29.3556C6.93937 29.5216 7.50396 29.611 8.08896 29.611C8.67396 29.611 9.23855 29.5216 9.76962 29.3556V30.2854C9.76962 30.4955 9.79775 30.7004 9.84914 30.8967L8.08896 32.6569ZM8.08896 28.0876C5.81548 28.0876 3.96582 26.2379 3.96582 23.9644V23.8066C4.57327 23.6671 5.47392 23.3428 6.41348 22.5872C6.7459 22.9008 7.22101 23.2855 7.82601 23.6155C8.54163 24.0058 9.52993 24.3668 10.7371 24.3668C11.1959 24.3668 11.6867 24.3135 12.2056 24.191C12.0875 26.3596 10.2864 28.0876 8.08896 28.0876Z" fill="black"/>
<path d="M50.2284 30.7496L45.9655 28.6181C45.67 28.4703 45.4865 28.1734 45.4865 27.8431V26.7636C46.4844 25.8776 47.1148 24.5866 47.1148 23.1505V22.2834C47.1323 22.2834 47.1496 22.284 47.1672 22.284C47.5879 22.284 47.9289 21.9429 47.9289 21.5222V19.894C47.9289 17.2294 45.761 15.0615 43.0964 15.0615H41.4682C38.8036 15.0615 36.6357 17.2294 36.6357 19.894V21.5222C36.6357 21.9429 36.9768 22.284 37.3975 22.284C37.4038 22.284 37.422 22.2837 37.4499 22.2826V23.1505C37.4499 24.5867 38.0804 25.8777 39.0782 26.7637V27.8432C39.0782 28.1736 38.8947 28.4705 38.5992 28.6182C38.2229 28.8063 38.0703 29.2638 38.2585 29.6401C38.392 29.907 38.661 30.0614 38.9404 30.0614C39.0549 30.0614 39.171 30.0355 39.2804 29.9809C39.4154 29.9133 39.541 29.8336 39.6581 29.7451L41.5206 31.6075V41.8758C41.5206 42.2965 41.8616 42.6375 42.2823 42.6375C42.703 42.6375 43.044 42.2965 43.044 41.8758V31.6073L44.9064 29.7449C45.0236 29.8335 45.1491 29.9132 45.2841 29.9807L49.4091 32.0432L48.1579 33.2944C47.5528 33.8996 47.2195 34.7042 47.2195 35.56V41.8756C47.2195 42.2963 47.5605 42.6373 47.9812 42.6373C48.4019 42.6373 48.7429 42.2963 48.7429 41.8756V35.56C48.7429 35.1111 48.9177 34.689 49.2352 34.3715L50.4203 33.1864C50.4563 33.3242 50.476 33.4679 50.476 33.6154V41.8756C50.476 42.2963 50.817 42.6373 51.2377 42.6373C51.6584 42.6373 51.9994 42.2963 51.9994 41.8756V33.6154C51.9995 32.394 51.3209 31.2959 50.2284 30.7496ZM38.1591 20.6038V19.8939H38.1592C38.1592 18.0693 39.6436 16.5849 41.4682 16.5849H43.0964C44.921 16.5849 46.4055 18.0693 46.4055 19.8939V20.74C43.0942 20.5613 41.096 19.2728 41.0766 19.2601C40.9477 19.1742 40.8006 19.1322 40.6543 19.1322C40.4576 19.1322 40.2626 19.2081 40.1154 19.3553C39.3866 20.0841 38.6725 20.4349 38.1591 20.6038ZM42.2823 30.2146L40.5221 28.4544C40.5735 28.258 40.6017 28.0532 40.6017 27.8431V27.6809C41.1253 27.8758 41.6915 27.9828 42.2823 27.9828C42.8731 27.9828 43.4393 27.8758 43.963 27.6809V27.8431C43.963 28.0532 43.991 28.258 44.0425 28.4544L42.2823 30.2146ZM42.2823 26.4595C40.4577 26.4595 38.9733 24.9752 38.9733 23.1505V21.9225C39.5068 21.7093 40.1284 21.3704 40.7609 20.8315C41.5608 21.2477 43.2344 21.9671 45.5913 22.2047V23.1505C45.5913 24.9751 44.1069 26.4595 42.2823 26.4595Z" fill="black"/>
</svg>
