<svg width="72" height="72" viewBox="0 0 72 72" fill="none" xmlns="http://www.w3.org/2000/svg">
<path d="M62.1473 4.50001C59.3696 4.50001 56.7596 3.41889 54.7954 1.45464L54 0.659264L53.2046 1.45464C51.2404 3.41889 48.6304 4.50001 45.8527 4.50001H37.125V12.375H6.75C3.64838 12.375 1.125 14.8984 1.125 18V65.25C1.125 68.3516 3.64838 70.875 6.75 70.875H40.5C43.6016 70.875 46.125 68.3516 46.125 65.25V37.7494C48.348 39.456 50.8928 40.7835 53.6918 41.5823L54 41.67L54.3082 41.5823C64.062 38.7956 70.875 29.7641 70.875 19.6189V4.50001H62.1473ZM7.875 48.375H39.375V59.625H7.875V48.375ZM39.375 46.125H7.875V34.875H39.375V46.125ZM39.375 32.625H7.875V21.375H37.1981C37.4186 24.2123 38.1814 26.928 39.375 29.4199V32.625ZM37.125 19.125H7.875V14.625H37.125V19.125ZM40.5 68.625H6.75C4.88925 68.625 3.375 67.1108 3.375 65.25V18C3.375 16.5353 4.31887 15.2978 5.625 14.832V59.625C5.625 60.8659 6.63412 61.875 7.875 61.875H39.375C40.6159 61.875 41.625 60.8659 41.625 59.625V33.1796C42.3079 34.1021 43.0616 34.9706 43.875 35.7829V65.25C43.875 67.1108 42.3608 68.625 40.5 68.625ZM68.625 19.6189C68.625 28.656 62.6276 36.7144 54 39.3278C45.3724 36.7155 39.375 28.6571 39.375 19.6189V6.75001H45.8527C48.8677 6.75001 51.723 5.70151 54 3.77664C56.277 5.70151 59.1323 6.75001 62.1473 6.75001H68.625V19.6189Z" fill="#404040"/>
<path d="M10.125 30.375H16.875V23.625H10.125V30.375ZM12.375 25.875H14.625V28.125H12.375V25.875Z" fill="#404040"/>
<path d="M19.125 23.625V30.375H25.875V23.625H19.125ZM23.625 28.125H21.375V25.875H23.625V28.125Z" fill="#404040"/>
<path d="M10.125 57.375H16.875V50.625H10.125V57.375ZM12.375 52.875H14.625V55.125H12.375V52.875Z" fill="#404040"/>
<path d="M19.125 57.375H25.875V50.625H19.125V57.375ZM21.375 52.875H23.625V55.125H21.375V52.875Z" fill="#404040"/>
<path d="M37.125 37.125H30.375V43.875H37.125V37.125ZM34.875 41.625H32.625V39.375H34.875V41.625Z" fill="#404040"/>
<path d="M28.125 43.875V37.125H21.375V43.875H28.125ZM23.625 39.375H25.875V41.625H23.625V39.375Z" fill="#404040"/>
<path d="M5.625 64.125H7.875V66.375H5.625V64.125Z" fill="#404040"/>
<path d="M10.125 64.125H12.375V66.375H10.125V64.125Z" fill="#404040"/>
<path d="M14.625 64.125H16.875V66.375H14.625V64.125Z" fill="#404040"/>
<path d="M54.5737 6.93902L54 6.59927L53.4263 6.93902C51.1504 8.28677 48.5314 9.00002 45.8527 9.00002H41.625V19.6189C41.625 27.2554 46.4411 34.1696 53.6096 36.8224L54 36.9675L54.3904 36.8224C61.5589 34.1696 66.375 27.2565 66.375 19.6189V9.00002H62.1473C59.4686 9.00002 56.8496 8.28677 54.5737 6.93902ZM64.125 19.6189C64.125 25.7648 60.5689 31.3774 55.125 34.0605V14.625H52.875V34.0605C47.4311 31.3774 43.875 25.7648 43.875 19.6189V11.25H45.8527C48.2895 11.25 50.6824 10.7314 52.875 9.74927V12.375H55.125V9.74927C57.3176 10.7314 59.7105 11.25 62.1473 11.25H64.125V19.6189Z" fill="#404040"/>
</svg>
