<svg width="446" height="111" viewBox="0 0 446 111" fill="none" xmlns="http://www.w3.org/2000/svg">
<rect width="105" height="111" fill="#2CACB5" fill-opacity="0.75"/>
<path d="M52.9863 27C32.0405 27 15 38.2743 15 52.1323C15 52.31 15.0642 52.4854 15.1871 52.6434L15.3344 52.8328C15.3629 52.8694 15.3944 52.905 15.4287 52.9392L51.5636 88.9921C51.7499 89.1899 52.0227 89.3426 52.3438 89.4315C52.3661 89.4377 52.3879 89.4443 52.4106 89.4498C52.4536 89.4601 52.4972 89.4693 52.5413 89.4775C52.5773 89.4842 52.6138 89.4898 52.6507 89.495C52.6878 89.5001 52.7246 89.5053 52.7624 89.509C52.8305 89.5153 52.8995 89.519 52.9691 89.5199C52.9774 89.5199 52.9854 89.5212 52.9935 89.5212C52.9944 89.5212 52.9955 89.5211 52.9964 89.5211C52.9975 89.5211 52.9988 89.5212 53.0001 89.5212C53.0003 89.5212 53.0005 89.5212 53.0009 89.5212C53.0846 89.5212 53.167 89.5158 53.2485 89.5078C53.2616 89.5064 53.2744 89.5045 53.2875 89.5029C53.3604 89.4946 53.4318 89.4831 53.502 89.4686C53.5114 89.4666 53.5208 89.4647 53.5304 89.4626C53.8851 89.3848 54.197 89.232 54.4085 89.0204L90.692 52.7489C90.8751 52.566 90.9725 52.3516 90.9725 52.1323C90.9724 38.2743 73.9318 27 52.9863 27ZM47.0125 30.8577C48.4028 30.0795 49.8381 29.5801 51.297 29.3621V49.8355C49.0903 48.9577 46.5597 48.488 43.9119 48.4878C41.2987 48.4878 38.7993 48.9459 36.6129 49.8015C37.0088 44.4413 38.7666 39.4841 41.6636 35.6507C43.2274 33.5814 45.0271 31.969 47.0125 30.8577ZM43.22 30.1648C41.5432 31.35 40.0017 32.8526 38.6424 34.6514C35.5091 38.7974 33.6221 44.133 33.2275 49.8664C31.0025 48.9683 28.4428 48.4878 25.7633 48.4878C23.1895 48.4878 20.7269 48.9327 18.5645 49.7637C20.0205 40.4312 29.9823 32.7452 43.22 30.1648ZM18.8709 52.3297C20.8175 51.2892 23.2198 50.7227 25.7633 50.7227C28.5537 50.7227 31.176 51.4028 33.2109 52.6448L33.0625 52.6777L47.29 80.6846L18.8709 52.3297ZM51.2973 81.5575L36.5762 52.5793C38.5952 51.3796 41.1717 50.7227 43.9119 50.7227C46.6741 50.7227 49.2712 51.3899 51.2971 52.6084V81.5575H51.2973ZM54.6749 29.3621C56.1338 29.5801 57.5692 30.0795 58.9597 30.8577C60.9451 31.969 62.7448 33.5814 64.3086 35.6507C67.2055 39.4842 68.9643 44.4416 69.36 49.8018C67.1738 48.946 64.674 48.488 62.0604 48.4878C59.4126 48.4878 56.8815 48.9577 54.6749 49.8355V29.3621ZM54.6749 52.6085C56.701 51.3901 59.2977 50.7228 62.0604 50.7228C64.8007 50.7228 67.3776 51.3799 69.3963 52.5795L54.6749 81.5807V52.6085ZM58.6897 80.6912L72.9097 52.6778L72.7613 52.6449C74.7962 51.4028 77.4186 50.7228 80.2089 50.7228C82.7408 50.7228 85.1327 51.2842 87.0749 52.3157L58.6897 80.6912ZM80.2089 48.4878C77.5297 48.4878 74.9696 48.9683 72.7447 49.8664C72.3501 44.133 70.4631 38.7973 67.3298 34.6514C65.9702 32.8523 64.4282 31.35 62.7509 30.1646C75.9894 32.7449 85.9516 40.4312 87.408 49.7638C85.2455 48.9327 82.7827 48.4878 80.2089 48.4878Z" fill="white"/>
<path d="M137.088 38.2V55H134.736V40.288H124.992V55H122.616V38.2H137.088ZM149.887 42.16C151.119 42.16 152.223 42.432 153.199 42.976C154.175 43.52 154.935 44.28 155.479 45.256C156.039 46.232 156.319 47.36 156.319 48.64C156.319 49.92 156.039 51.056 155.479 52.048C154.935 53.024 154.175 53.784 153.199 54.328C152.223 54.872 151.119 55.144 149.887 55.144C148.975 55.144 148.135 54.968 147.367 54.616C146.615 54.264 145.975 53.752 145.447 53.08V59.656H143.143V42.28H145.351V44.296C145.863 43.592 146.511 43.064 147.295 42.712C148.079 42.344 148.943 42.16 149.887 42.16ZM149.695 53.128C150.511 53.128 151.239 52.944 151.879 52.576C152.535 52.192 153.047 51.664 153.415 50.992C153.799 50.304 153.991 49.52 153.991 48.64C153.991 47.76 153.799 46.984 153.415 46.312C153.047 45.624 152.535 45.096 151.879 44.728C151.239 44.36 150.511 44.176 149.695 44.176C148.895 44.176 148.167 44.368 147.511 44.752C146.871 45.12 146.359 45.64 145.975 46.312C145.607 46.984 145.423 47.76 145.423 48.64C145.423 49.52 145.607 50.304 145.975 50.992C146.343 51.664 146.855 52.192 147.511 52.576C148.167 52.944 148.895 53.128 149.695 53.128ZM166.602 46.6C168.202 46.616 169.426 46.984 170.274 47.704C171.122 48.424 171.546 49.44 171.546 50.752C171.546 52.128 171.082 53.192 170.154 53.944C169.242 54.68 167.93 55.04 166.218 55.024L160.866 55V42.28H163.17V46.576L166.602 46.6ZM173.442 42.28H175.746V55H173.442V42.28ZM166.05 53.272C167.09 53.288 167.874 53.08 168.402 52.648C168.946 52.216 169.218 51.576 169.218 50.728C169.218 49.896 168.954 49.288 168.426 48.904C167.898 48.52 167.106 48.32 166.05 48.304L163.17 48.256V53.248L166.05 53.272ZM192.994 49.624H190.522V55H188.218V49.624H185.746L182.242 55H179.506L183.874 48.424L179.842 42.28H182.29L185.722 47.656H188.218V42.28H190.522V47.656H193.018L196.45 42.28H198.922L194.89 48.448L199.258 55H196.522L192.994 49.624ZM207.937 49.624H205.297V55H202.993V42.28H205.297V47.656H207.985L212.113 42.28H214.585L209.761 48.4L214.921 55H212.209L207.937 49.624ZM218.537 42.28H220.841V51.544L228.641 42.28H230.729V55H228.425V45.736L220.649 55H218.537V42.28ZM249.59 55.144C248.294 55.144 247.134 54.864 246.11 54.304C245.102 53.744 244.31 52.976 243.734 52C243.158 51.008 242.87 49.888 242.87 48.64C242.87 47.392 243.158 46.28 243.734 45.304C244.31 44.312 245.102 43.544 246.11 43C247.134 42.44 248.294 42.16 249.59 42.16C250.742 42.16 251.766 42.392 252.662 42.856C253.574 43.32 254.278 43.992 254.774 44.872L253.022 46C252.622 45.392 252.126 44.936 251.534 44.632C250.942 44.328 250.286 44.176 249.566 44.176C248.734 44.176 247.982 44.36 247.31 44.728C246.654 45.096 246.134 45.624 245.75 46.312C245.382 46.984 245.198 47.76 245.198 48.64C245.198 49.536 245.382 50.328 245.75 51.016C246.134 51.688 246.654 52.208 247.31 52.576C247.982 52.944 248.734 53.128 249.566 53.128C250.286 53.128 250.942 52.976 251.534 52.672C252.126 52.368 252.622 51.912 253.022 51.304L254.774 52.408C254.278 53.288 253.574 53.968 252.662 54.448C251.766 54.912 250.742 55.144 249.59 55.144ZM278.386 42.28V55H276.082V44.296H268.906V55H266.602V42.28H278.386ZM288.581 42.16C290.341 42.16 291.685 42.592 292.613 43.456C293.557 44.32 294.029 45.608 294.029 47.32V55H291.845V53.32C291.461 53.912 290.909 54.368 290.189 54.688C289.485 54.992 288.645 55.144 287.669 55.144C286.245 55.144 285.101 54.8 284.237 54.112C283.389 53.424 282.965 52.52 282.965 51.4C282.965 50.28 283.373 49.384 284.189 48.712C285.005 48.024 286.301 47.68 288.077 47.68H291.725V47.224C291.725 46.232 291.437 45.472 290.861 44.944C290.285 44.416 289.437 44.152 288.317 44.152C287.565 44.152 286.829 44.28 286.109 44.536C285.389 44.776 284.781 45.104 284.285 45.52L283.325 43.792C283.981 43.264 284.765 42.864 285.677 42.592C286.589 42.304 287.557 42.16 288.581 42.16ZM288.053 53.368C288.933 53.368 289.693 53.176 290.333 52.792C290.973 52.392 291.437 51.832 291.725 51.112V49.336H288.173C286.221 49.336 285.245 49.992 285.245 51.304C285.245 51.944 285.493 52.448 285.989 52.816C286.485 53.184 287.173 53.368 288.053 53.368ZM306.121 42.16C307.353 42.16 308.457 42.432 309.433 42.976C310.409 43.52 311.169 44.28 311.713 45.256C312.273 46.232 312.553 47.36 312.553 48.64C312.553 49.92 312.273 51.056 311.713 52.048C311.169 53.024 310.409 53.784 309.433 54.328C308.457 54.872 307.353 55.144 306.121 55.144C305.209 55.144 304.369 54.968 303.601 54.616C302.849 54.264 302.209 53.752 301.681 53.08V59.656H299.377V42.28H301.585V44.296C302.097 43.592 302.745 43.064 303.529 42.712C304.313 42.344 305.177 42.16 306.121 42.16ZM305.929 53.128C306.745 53.128 307.473 52.944 308.113 52.576C308.769 52.192 309.281 51.664 309.649 50.992C310.033 50.304 310.225 49.52 310.225 48.64C310.225 47.76 310.033 46.984 309.649 46.312C309.281 45.624 308.769 45.096 308.113 44.728C307.473 44.36 306.745 44.176 305.929 44.176C305.129 44.176 304.401 44.368 303.745 44.752C303.105 45.12 302.593 45.64 302.209 46.312C301.841 46.984 301.657 47.76 301.657 48.64C301.657 49.52 301.841 50.304 302.209 50.992C302.577 51.664 303.089 52.192 303.745 52.576C304.401 52.944 305.129 53.128 305.929 53.128ZM321.52 42.16C323.28 42.16 324.624 42.592 325.552 43.456C326.496 44.32 326.968 45.608 326.968 47.32V55H324.784V53.32C324.4 53.912 323.848 54.368 323.128 54.688C322.424 54.992 321.584 55.144 320.608 55.144C319.184 55.144 318.04 54.8 317.176 54.112C316.328 53.424 315.904 52.52 315.904 51.4C315.904 50.28 316.312 49.384 317.128 48.712C317.944 48.024 319.24 47.68 321.016 47.68H324.664V47.224C324.664 46.232 324.376 45.472 323.8 44.944C323.224 44.416 322.376 44.152 321.256 44.152C320.504 44.152 319.768 44.28 319.048 44.536C318.328 44.776 317.72 45.104 317.224 45.52L316.264 43.792C316.92 43.264 317.704 42.864 318.616 42.592C319.528 42.304 320.496 42.16 321.52 42.16ZM320.992 53.368C321.872 53.368 322.632 53.176 323.272 52.792C323.912 52.392 324.376 51.832 324.664 51.112V49.336H321.112C319.16 49.336 318.184 49.992 318.184 51.304C318.184 51.944 318.432 52.448 318.928 52.816C319.424 53.184 320.112 53.368 320.992 53.368ZM350.436 42.28V55H332.316V42.28H334.62V52.984H340.236V42.28H342.54V52.984H348.132V42.28H350.436ZM367.366 42.16C368.598 42.16 369.702 42.44 370.678 43C371.654 43.544 372.422 44.312 372.982 45.304C373.542 46.28 373.822 47.392 373.822 48.64C373.822 49.888 373.542 51.008 372.982 52C372.422 52.976 371.654 53.744 370.678 54.304C369.702 54.864 368.598 55.144 367.366 55.144C366.246 55.144 365.23 54.912 364.318 54.448C363.406 53.984 362.654 53.336 362.062 52.504C361.486 51.656 361.126 50.696 360.982 49.624H358.414V55H356.11V42.28H358.414V47.488H361.006C361.166 46.432 361.534 45.504 362.11 44.704C362.702 43.888 363.446 43.264 364.342 42.832C365.254 42.384 366.262 42.16 367.366 42.16ZM367.366 53.128C368.15 53.128 368.854 52.944 369.478 52.576C370.118 52.208 370.622 51.688 370.99 51.016C371.358 50.328 371.542 49.536 371.542 48.64C371.542 47.76 371.358 46.984 370.99 46.312C370.622 45.624 370.118 45.096 369.478 44.728C368.854 44.36 368.15 44.176 367.366 44.176C366.582 44.176 365.87 44.36 365.23 44.728C364.59 45.096 364.086 45.624 363.718 46.312C363.366 46.984 363.19 47.76 363.19 48.64C363.19 49.536 363.366 50.328 363.718 51.016C364.086 51.688 364.59 52.208 365.23 52.576C365.87 52.944 366.582 53.128 367.366 53.128ZM387.345 44.296H382.689V55H380.385V44.296H375.729V42.28H387.345V44.296ZM395.786 55.144C394.522 55.144 393.386 54.864 392.378 54.304C391.37 53.744 390.578 52.976 390.002 52C389.442 51.008 389.162 49.888 389.162 48.64C389.162 47.392 389.442 46.28 390.002 45.304C390.578 44.312 391.37 43.544 392.378 43C393.386 42.44 394.522 42.16 395.786 42.16C397.05 42.16 398.178 42.44 399.17 43C400.178 43.544 400.962 44.312 401.522 45.304C402.098 46.28 402.386 47.392 402.386 48.64C402.386 49.888 402.098 51.008 401.522 52C400.962 52.976 400.178 53.744 399.17 54.304C398.178 54.864 397.05 55.144 395.786 55.144ZM395.786 53.128C396.602 53.128 397.33 52.944 397.97 52.576C398.626 52.192 399.138 51.664 399.506 50.992C399.874 50.304 400.058 49.52 400.058 48.64C400.058 47.76 399.874 46.984 399.506 46.312C399.138 45.624 398.626 45.096 397.97 44.728C397.33 44.36 396.602 44.176 395.786 44.176C394.97 44.176 394.234 44.36 393.578 44.728C392.938 45.096 392.426 45.624 392.042 46.312C391.674 46.984 391.49 47.76 391.49 48.64C391.49 49.52 391.674 50.304 392.042 50.992C392.426 51.664 392.938 52.192 393.578 52.576C394.234 52.944 394.97 53.128 395.786 53.128ZM421.577 42.28V55H419.489V45.712L414.737 53.56H413.729L409.025 45.688V55H406.913V42.28H409.289L414.281 50.872L419.417 42.28H421.577ZM130.896 77.4C132.544 77.816 133.368 78.848 133.368 80.496C133.368 81.616 132.944 82.48 132.096 83.088C131.264 83.696 130.016 84 128.352 84H122.232V71.28H128.136C129.64 71.28 130.816 71.568 131.664 72.144C132.512 72.704 132.936 73.504 132.936 74.544C132.936 75.216 132.752 75.8 132.384 76.296C132.032 76.776 131.536 77.144 130.896 77.4ZM124.488 76.752H127.944C128.824 76.752 129.488 76.592 129.936 76.272C130.4 75.952 130.632 75.488 130.632 74.88C130.632 73.664 129.736 73.056 127.944 73.056H124.488V76.752ZM128.184 82.224C129.144 82.224 129.864 82.072 130.344 81.768C130.824 81.464 131.064 80.992 131.064 80.352C131.064 79.696 130.84 79.208 130.392 78.888C129.96 78.568 129.272 78.408 128.328 78.408H124.488V82.224H128.184ZM157.748 69.288H151.988V84H149.635V69.288H143.899V67.2H157.748V69.288ZM172.036 71.28L165.868 85.272C165.324 86.568 164.684 87.48 163.948 88.008C163.228 88.536 162.356 88.8 161.332 88.8C160.708 88.8 160.1 88.696 159.508 88.488C158.932 88.296 158.452 88.008 158.068 87.624L159.052 85.896C159.708 86.52 160.468 86.832 161.332 86.832C161.892 86.832 162.356 86.68 162.724 86.376C163.108 86.088 163.452 85.584 163.756 84.864L164.164 83.976L158.548 71.28H160.948L165.388 81.456L169.78 71.28H172.036ZM185.835 71.28V84H183.531V73.296H178.059L177.915 76.128C177.835 77.84 177.683 79.272 177.459 80.424C177.235 81.56 176.867 82.472 176.355 83.16C175.843 83.848 175.131 84.192 174.219 84.192C173.803 84.192 173.331 84.12 172.803 83.976L172.947 82.032C173.155 82.08 173.347 82.104 173.523 82.104C174.163 82.104 174.643 81.824 174.963 81.264C175.283 80.704 175.491 80.04 175.587 79.272C175.683 78.504 175.771 77.408 175.851 75.984L176.067 71.28H185.835ZM202.986 77.712C202.986 77.888 202.97 78.12 202.938 78.408H192.618C192.762 79.528 193.25 80.432 194.082 81.12C194.93 81.792 195.978 82.128 197.226 82.128C198.746 82.128 199.97 81.616 200.898 80.592L202.17 82.08C201.594 82.752 200.874 83.264 200.01 83.616C199.162 83.968 198.21 84.144 197.154 84.144C195.81 84.144 194.618 83.872 193.578 83.328C192.538 82.768 191.73 81.992 191.154 81C190.594 80.008 190.314 78.888 190.314 77.64C190.314 76.408 190.586 75.296 191.13 74.304C191.69 73.312 192.45 72.544 193.41 72C194.386 71.44 195.482 71.16 196.698 71.16C197.914 71.16 198.994 71.44 199.938 72C200.898 72.544 201.642 73.312 202.17 74.304C202.714 75.296 202.986 76.432 202.986 77.712ZM196.698 73.104C195.594 73.104 194.666 73.44 193.914 74.112C193.178 74.784 192.746 75.664 192.618 76.752H200.778C200.65 75.68 200.21 74.808 199.458 74.136C198.722 73.448 197.802 73.104 196.698 73.104ZM215.405 71.28H217.709V80.544L225.509 71.28H227.597V84H225.293V74.736L217.517 84H215.405V71.28ZM246.363 84.144C245.099 84.144 243.963 83.864 242.955 83.304C241.947 82.744 241.155 81.976 240.579 81C240.019 80.008 239.739 78.888 239.739 77.64C239.739 76.392 240.019 75.28 240.579 74.304C241.155 73.312 241.947 72.544 242.955 72C243.963 71.44 245.099 71.16 246.363 71.16C247.627 71.16 248.755 71.44 249.747 72C250.755 72.544 251.539 73.312 252.099 74.304C252.675 75.28 252.963 76.392 252.963 77.64C252.963 78.888 252.675 80.008 252.099 81C251.539 81.976 250.755 82.744 249.747 83.304C248.755 83.864 247.627 84.144 246.363 84.144ZM246.363 82.128C247.179 82.128 247.907 81.944 248.547 81.576C249.203 81.192 249.715 80.664 250.083 79.992C250.451 79.304 250.635 78.52 250.635 77.64C250.635 76.76 250.451 75.984 250.083 75.312C249.715 74.624 249.203 74.096 248.547 73.728C247.907 73.36 247.179 73.176 246.363 73.176C245.547 73.176 244.811 73.36 244.155 73.728C243.515 74.096 243.003 74.624 242.619 75.312C242.251 75.984 242.067 76.76 242.067 77.64C242.067 78.52 242.251 79.304 242.619 79.992C243.003 80.664 243.515 81.192 244.155 81.576C244.811 81.944 245.547 82.128 246.363 82.128ZM263.97 71.712C265.154 71.712 266.21 71.976 267.138 72.504C268.066 73.032 268.786 73.768 269.298 74.712C269.826 75.64 270.09 76.704 270.09 77.904C270.09 79.136 269.81 80.232 269.25 81.192C268.706 82.136 267.93 82.872 266.922 83.4C265.93 83.928 264.794 84.192 263.514 84.192C261.354 84.192 259.682 83.456 258.498 81.984C257.33 80.496 256.746 78.408 256.746 75.72C256.746 73.112 257.282 71.072 258.354 69.6C259.426 68.112 261.066 67.128 263.274 66.648L269.082 65.352L269.418 67.464L264.066 68.616C262.402 68.984 261.162 69.608 260.346 70.488C259.53 71.368 259.066 72.632 258.954 74.28C259.498 73.464 260.202 72.832 261.066 72.384C261.93 71.936 262.898 71.712 263.97 71.712ZM263.562 82.272C264.378 82.272 265.098 82.088 265.722 81.72C266.362 81.352 266.858 80.848 267.21 80.208C267.562 79.552 267.738 78.808 267.738 77.976C267.738 76.712 267.354 75.696 266.586 74.928C265.818 74.16 264.81 73.776 263.562 73.776C262.314 73.776 261.298 74.16 260.514 74.928C259.746 75.696 259.362 76.712 259.362 77.976C259.362 78.808 259.538 79.552 259.89 80.208C260.258 80.848 260.762 81.352 261.402 81.72C262.042 82.088 262.762 82.272 263.562 82.272ZM285.407 71.28V84H283.103V73.296H277.631L277.487 76.128C277.407 77.84 277.255 79.272 277.031 80.424C276.807 81.56 276.439 82.472 275.927 83.16C275.415 83.848 274.703 84.192 273.791 84.192C273.375 84.192 272.903 84.12 272.375 83.976L272.519 82.032C272.727 82.08 272.919 82.104 273.095 82.104C273.735 82.104 274.215 81.824 274.535 81.264C274.855 80.704 275.063 80.04 275.159 79.272C275.255 78.504 275.343 77.408 275.423 75.984L275.639 71.28H285.407ZM295.598 71.16C297.358 71.16 298.702 71.592 299.63 72.456C300.574 73.32 301.046 74.608 301.046 76.32V84H298.862V82.32C298.478 82.912 297.926 83.368 297.206 83.688C296.502 83.992 295.662 84.144 294.686 84.144C293.262 84.144 292.118 83.8 291.254 83.112C290.406 82.424 289.982 81.52 289.982 80.4C289.982 79.28 290.39 78.384 291.206 77.712C292.022 77.024 293.318 76.68 295.094 76.68H298.742V76.224C298.742 75.232 298.454 74.472 297.878 73.944C297.302 73.416 296.454 73.152 295.334 73.152C294.582 73.152 293.846 73.28 293.126 73.536C292.406 73.776 291.798 74.104 291.302 74.52L290.342 72.792C290.998 72.264 291.782 71.864 292.694 71.592C293.606 71.304 294.574 71.16 295.598 71.16ZM295.07 82.368C295.95 82.368 296.71 82.176 297.35 81.792C297.99 81.392 298.454 80.832 298.742 80.112V78.336H295.19C293.238 78.336 292.262 78.992 292.262 80.304C292.262 80.944 292.51 81.448 293.006 81.816C293.502 82.184 294.19 82.368 295.07 82.368ZM311.939 84.144C310.643 84.144 309.483 83.864 308.459 83.304C307.451 82.744 306.659 81.976 306.083 81C305.507 80.008 305.219 78.888 305.219 77.64C305.219 76.392 305.507 75.28 306.083 74.304C306.659 73.312 307.451 72.544 308.459 72C309.483 71.44 310.643 71.16 311.939 71.16C313.091 71.16 314.115 71.392 315.011 71.856C315.923 72.32 316.627 72.992 317.123 73.872L315.371 75C314.971 74.392 314.475 73.936 313.883 73.632C313.291 73.328 312.635 73.176 311.915 73.176C311.083 73.176 310.331 73.36 309.659 73.728C309.003 74.096 308.483 74.624 308.099 75.312C307.731 75.984 307.547 76.76 307.547 77.64C307.547 78.536 307.731 79.328 308.099 80.016C308.483 80.688 309.003 81.208 309.659 81.576C310.331 81.944 311.083 82.128 311.915 82.128C312.635 82.128 313.291 81.976 313.883 81.672C314.475 81.368 314.971 80.912 315.371 80.304L317.123 81.408C316.627 82.288 315.923 82.968 315.011 83.448C314.115 83.912 313.091 84.144 311.939 84.144ZM330.621 73.296H325.965V84H323.661V73.296H319.005V71.28H330.621V73.296ZM334.177 71.28H336.481V80.544L344.281 71.28H346.369V84H344.065V74.736L336.289 84H334.177V71.28Z" fill="white"/>
</svg>
