<svg width="449" height="292" viewBox="0 0 449 292" fill="none" xmlns="http://www.w3.org/2000/svg">
<g filter="url(#filter0_f)">
<rect x="4.57864" y="146" width="200" height="200" rx="100" transform="rotate(-45 4.57864 146)" fill="#FFD600" fill-opacity="0.78"/>
</g>
<path d="M103.125 159.625V155.25H98.75V150.875H94.375V146.5H90V129H98.75V142.125H103.125V146.5H107.5V142.125H111.875V129H120.625V146.5H116.25V150.875H111.875V155.25H107.5V159.625H103.125ZM128.5 159.625V129H159.125V133.375H137.25V142.125H154.75V146.5H137.25V155.25H159.125V159.625H128.5ZM167 159.625V129H193.25V133.375H197.625V146.5H188.875V150.875H193.25V155.25H197.625V159.625H184.5V155.25H180.125V150.875H175.75V159.625H167ZM175.75 146.5H184.5V142.125H188.875V133.375H175.75V146.5ZM209.875 159.625V155.25H205.5V150.875H214.25V155.25H227.375V146.5H209.875V142.125H205.5V133.375H209.875V129H231.75V133.375H236.125V137.75H227.375V133.375H214.25V142.125H231.75V146.5H236.125V155.25H231.75V159.625H209.875ZM248.375 159.625V129H257.125V155.25H274.625V159.625H248.375ZM286.875 159.625V155.25H295.625V133.375H286.875V129H313.125V133.375H304.375V155.25H313.125V159.625H286.875ZM321 159.625V129H347.25V133.375H351.625V142.125H347.25V146.5H351.625V155.25H347.25V159.625H321ZM329.75 142.125H342.875V133.375H329.75V142.125ZM329.75 155.25H342.875V146.5H329.75V155.25ZM359.5 159.625V129H385.75V133.375H390.125V146.5H381.375V150.875H385.75V155.25H390.125V159.625H377V155.25H372.625V150.875H368.25V159.625H359.5ZM368.25 146.5H377V142.125H381.375V133.375H368.25V146.5ZM398 159.625V129H428.625V133.375H406.75V142.125H424.25V146.5H406.75V155.25H428.625V159.625H398Z" fill="#000C76"/>
<defs>
<filter id="filter0_f" x="0.578644" y="0.578613" width="290.843" height="290.843" filterUnits="userSpaceOnUse" color-interpolation-filters="sRGB">
<feFlood flood-opacity="0" result="BackgroundImageFix"/>
<feBlend mode="normal" in="SourceGraphic" in2="BackgroundImageFix" result="shape"/>
<feGaussianBlur stdDeviation="2" result="effect1_foregroundBlur"/>
</filter>
</defs>
</svg>
