<svg width="21" height="21" viewBox="0 0 21 21" fill="none" xmlns="http://www.w3.org/2000/svg">
<g clip-path="url(#clip0)">
<path d="M20.9794 6.17406C20.9302 5.05825 20.7498 4.29114 20.4913 3.62643C20.2247 2.92085 19.8144 2.28915 19.2769 1.76402C18.7518 1.23071 18.1159 0.816306 17.4185 0.553819C16.75 0.295338 15.9869 0.114898 14.8711 0.0657019C13.7469 0.0123391 13.3901 0 10.5389 0C7.68777 0 7.3309 0.0123391 6.21092 0.0615355C5.09511 0.110732 4.328 0.291332 3.66345 0.549653C2.95772 0.816306 2.32602 1.22654 1.80088 1.76402C1.26757 2.28915 0.853332 2.92502 0.590684 3.62242C0.332203 4.29114 0.151763 5.05408 0.102567 6.16989C0.0492044 7.29403 0.0368652 7.65091 0.0368652 10.5021C0.0368652 13.3532 0.0492044 13.7101 0.0984007 14.83C0.147597 15.9459 0.328197 16.713 0.586678 17.3777C0.853332 18.0833 1.26757 18.715 1.80088 19.2401C2.32602 19.7734 2.96188 20.1878 3.65928 20.4503C4.328 20.7088 5.09095 20.8892 6.20692 20.9384C7.32673 20.9878 7.68377 20.9999 10.5349 20.9999C13.3861 20.9999 13.7429 20.9878 14.8629 20.9384C15.9787 20.8892 16.7458 20.7088 17.4104 20.4503C18.8217 19.9046 19.9375 18.7888 20.4831 17.3777C20.7415 16.709 20.9221 15.9459 20.9713 14.83C21.0205 13.7101 21.0328 13.3532 21.0328 10.5021C21.0328 7.65091 21.0286 7.29403 20.9794 6.17406ZM19.0883 14.748C19.0431 15.7736 18.8709 16.3274 18.7273 16.6966C18.3744 17.6115 17.6483 18.3376 16.7335 18.6904C16.3643 18.834 15.8064 19.0063 14.7849 19.0513C13.6772 19.1007 13.345 19.1128 10.5431 19.1128C7.74114 19.1128 7.40477 19.1007 6.30114 19.0513C5.27555 19.0063 4.72173 18.834 4.35252 18.6904C3.89725 18.5222 3.48285 18.2555 3.14649 17.9068C2.79779 17.5663 2.53113 17.1561 2.36287 16.7008C2.21929 16.3316 2.04702 15.7736 2.00199 14.7522C1.95264 13.6445 1.94046 13.3122 1.94046 10.5102C1.94046 7.70828 1.95264 7.37192 2.00199 6.26844C2.04702 5.24285 2.21929 4.68903 2.36287 4.31982C2.53113 3.86439 2.79779 3.45015 3.15066 3.11363C3.49102 2.76493 3.90126 2.49828 4.35669 2.33017C4.7259 2.18659 5.28388 2.01432 6.30531 1.96913C7.41295 1.91994 7.7453 1.9076 10.5471 1.9076C13.3532 1.9076 13.6854 1.91994 14.789 1.96913C15.8146 2.01432 16.3684 2.18659 16.7377 2.33017C17.1929 2.49828 17.6073 2.76493 17.9437 3.11363C18.2924 3.45416 18.559 3.86439 18.7273 4.31982C18.8709 4.68903 19.0431 5.24686 19.0883 6.26844C19.1375 7.37608 19.1499 7.70828 19.1499 10.5102C19.1499 13.3122 19.1375 13.6404 19.0883 14.748Z" fill="#313131"/>
<path d="M10.5389 5.10742C7.56067 5.10742 5.14429 7.52365 5.14429 10.502C5.14429 13.4804 7.56067 15.8966 10.5389 15.8966C13.5173 15.8966 15.9335 13.4804 15.9335 10.502C15.9335 7.52365 13.5173 5.10742 10.5389 5.10742ZM10.5389 14.0014C8.60678 14.0014 7.03955 12.4343 7.03955 10.502C7.03955 8.56975 8.60678 7.00268 10.5389 7.00268C12.4712 7.00268 14.0382 8.56975 14.0382 10.502C14.0382 12.4343 12.4712 14.0014 10.5389 14.0014Z" fill="#313131"/>
<path d="M17.4064 4.89416C17.4064 5.58964 16.8425 6.15355 16.1468 6.15355C15.4514 6.15355 14.8875 5.58964 14.8875 4.89416C14.8875 4.19852 15.4514 3.63477 16.1468 3.63477C16.8425 3.63477 17.4064 4.19852 17.4064 4.89416Z" fill="#313131"/>
</g>
<defs>
<clipPath id="clip0">
<rect width="21" height="21" fill="white"/>
</clipPath>
</defs>
</svg>
