<svg width="160" height="14" viewBox="0 0 160 14" fill="none" xmlns="http://www.w3.org/2000/svg">
<path d="M0.44674 12.7321H0V7.52757H0.44674C0.44674 8.92921 0.949322 10.1187 1.95449 11.1015C2.95965 12.0843 4.1826 12.5757 5.62892 12.5757C6.22644 12.5757 6.70668 12.4026 7.06966 12.0508C7.43264 11.699 7.61692 11.2355 7.61692 10.6547C7.61692 10.0014 7.19251 9.44296 6.34371 8.97947C5.88021 8.73935 5.08725 8.3652 3.95365 7.85145C2.82005 7.3377 2.02708 6.90213 1.56359 6.54474C0.642189 5.82996 0.234539 4.88622 0.346224 3.70794C0.457909 2.52966 0.899064 1.61943 1.67527 0.971659C2.45149 0.323886 3.32263 0 4.29987 0C5.27712 0 6.15384 0.128438 6.93564 0.390897C7.71743 0.653357 8.15859 0.781795 8.26469 0.781795C8.56065 0.781795 8.71143 0.519335 8.71143 0H9.15817V4.08767H8.71143C8.71143 3.01549 8.31495 2.13877 7.52757 1.46307C6.74019 0.787379 5.72386 0.44674 4.48974 0.44674C3.9369 0.44674 3.50691 0.608683 3.19419 0.926985C2.88147 1.24529 2.72511 1.60268 2.72511 1.98799C2.72511 2.37331 2.77537 2.67485 2.88147 2.88147C2.98757 3.08809 3.16627 3.27795 3.42873 3.45107C3.69119 3.62418 3.91456 3.7582 4.11001 3.8643C4.30546 3.9704 4.61259 4.11001 5.03699 4.2887C5.4614 4.4674 5.75736 4.59584 5.9193 4.66843C6.74019 5.04258 7.22043 5.26036 7.37121 5.32737C7.52198 5.39438 7.73419 5.50048 8.01898 5.65126C8.30378 5.80203 8.51598 5.93606 8.65559 6.05332C8.79519 6.17059 8.97947 6.32137 9.20284 6.50007C9.42621 6.67876 9.58816 6.86304 9.69426 7.04732C9.80036 7.2316 9.90087 7.4438 10.007 7.68393C10.2136 8.15859 10.2918 8.71701 10.2303 9.3592C10.1131 10.5654 9.66075 11.4868 8.87896 12.1178C8.09716 12.7488 7.04174 13.0671 5.71827 13.0671C4.52883 13.0671 3.34496 12.76 2.16669 12.1513C1.76462 11.9447 1.46866 11.8386 1.27321 11.8386C0.725953 11.8386 0.44674 12.1346 0.44674 12.7321Z" fill="#313131"/>
<path d="M32.813 4.02287C32.813 2.69941 32.5952 1.80593 32.1541 1.3536C31.7129 0.90128 30.892 0.672326 29.6858 0.672326H29.0157V12.2876H30.5793V12.7343H24.1016V12.2876H25.6652V0.672326H24.9951C23.8056 0.672326 22.9903 0.90128 22.5492 1.3536C22.108 1.80593 21.8902 2.69941 21.8902 4.02287H21.4435V0.225586H33.2598V4.02287H32.813Z" fill="#313131"/>
<path d="M57.7184 12.2853V12.7321H51.8438V12.2853H53.1617L51.6651 9.1805H47.153L45.8575 12.2853H47.6221V12.7321H43.8025V12.2853H45.2991L50.4142 0H50.9727L56.6463 12.2853H57.7184ZM47.3541 8.71143H51.4417L49.2527 4.15468L47.3541 8.71143Z" fill="#313131"/>
<path d="M81.7315 12.9577H80.7487C78.8891 12.9577 77.5936 12.5556 76.862 11.7515C76.2813 11.126 75.8848 10.2996 75.6782 9.27207C75.5888 8.84208 75.4939 8.4456 75.3878 8.08821C75.1477 7.28408 74.6674 6.88201 73.9359 6.88201H72.9531V12.2876H74.0699V12.7343H68.4857V12.2876H69.6025V0.672326H68.4857V0.225586H74.3603C78.1576 0.225586 80.0562 1.33685 80.0562 3.5538C80.0562 4.43053 79.7379 5.14531 79.0957 5.69815C78.4535 6.25099 77.6382 6.52462 76.6387 6.52462V6.68098C78.1297 6.68098 79.1627 7.66381 79.7435 9.62946C80.0395 10.6737 80.341 11.4108 80.6482 11.852C80.9553 12.2931 81.3127 12.5109 81.7315 12.5109V12.9577ZM72.9531 0.672326V6.43527C74.4441 6.43527 75.438 6.21749 75.9462 5.7875C76.4544 5.35751 76.7057 4.63156 76.7057 3.62081C76.7057 2.61006 76.4432 1.86177 75.9239 1.38711C75.4045 0.912449 74.4105 0.672326 72.9531 0.672326Z" fill="#313131"/>
<path d="M92.051 0.672326V0.225586H98.5958V0.672326H97.5012L100.561 7.57446L101.991 4.02287L100.494 0.672326H99.6456V0.225586H105.766V0.672326H104.716L107.709 7.48511L110.077 0.672326H108.29V0.225586H112.132V0.672326H110.613L106.436 12.7343H105.9L105.989 12.4886L105.878 12.7343L102.281 4.64831L99.0425 12.7343H98.5064L93.1232 0.672326H92.051Z" fill="#313131"/>
<path d="M136.367 12.2853V12.7321H130.493V12.2853H131.811L130.314 9.1805H125.802L124.506 12.2853H126.271V12.7321H122.451V12.2853H123.948L129.063 0H129.622L135.295 12.2853H136.367ZM126.003 8.71143H130.091L127.902 4.15468L126.003 8.71143Z" fill="#313131"/>
<path d="M156.091 12.7343H150.953V12.2876H151.847V7.57446L147.849 0.672326H146.687V0.225586H152.941V0.672326H151.847L154.974 6.30125L157.878 0.672326H156.091V0.225586H160V0.672326H158.436L155.198 6.97136V12.2876H156.091V12.7343Z" fill="#313131"/>
</svg>
