<?xml version="1.0" encoding="iso-8859-1"?>
<!-- Generator: Adobe Illustrator 19.0.0, SVG Export Plug-In . SVG Version: 6.00 Build 0)  -->
<svg version="1.1" id="Capa_1" xmlns="http://www.w3.org/2000/svg" xmlns:xlink="http://www.w3.org/1999/xlink" x="0px" y="0px"
	 viewBox="0 0 470 470" style="enable-background:new 0 0 470 470;" xml:space="preserve">
<g>
	<path style="fill:#FDF3C2;" d="M85.12,135h-9.751c-4.136,0-7.5,3.364-7.5,7.5s3.364,7.5,7.5,7.5h9.751V135z"/>
	<path style="fill:#FDF3C2;" d="M166.12,384.022v29.5c0,1.355,1.145,2.5,2.5,2.5h10c1.355,0,2.5-1.145,2.5-2.5v-29.5H166.12z"/>
	<rect x="166.12" y="165" style="fill:#FDF3C2;" width="15" height="15"/>
	<path style="fill:#FFD691;" d="M194.62,231h-42c-4.142,0-7.5-3.358-7.5-7.5h-15v117.02h15c0.001-4.141,3.358-7.498,7.5-7.498h42
		c4.141,0,7.499,3.357,7.5,7.498h15V223.5h-15C202.12,227.642,198.762,231,194.62,231z M194.62,318.767h-42
		c-4.142,0-7.5-3.358-7.5-7.5s3.358-7.5,7.5-7.5h42c4.142,0,7.5,3.358,7.5,7.5S198.762,318.767,194.62,318.767z M194.62,289.511h-42
		c-4.142,0-7.5-3.358-7.5-7.5s3.358-7.5,7.5-7.5h42c4.142,0,7.5,3.358,7.5,7.5S198.762,289.511,194.62,289.511z M194.62,260.255h-42
		c-4.142,0-7.5-3.358-7.5-7.5s3.358-7.5,7.5-7.5h42c4.142,0,7.5,3.358,7.5,7.5S198.762,260.255,194.62,260.255z"/>
	<path style="fill:#FEC76B;" d="M202.12,340.522c0,4.142-3.358,7.5-7.5,7.5h-42c-4.142,0-7.5-3.358-7.5-7.5
		c0-0.002-15-0.002-15-0.002c0,15.717,12.785,28.502,28.5,28.502h30c15.715,0,28.5-12.785,28.5-28.5
		C217.12,340.52,202.12,340.52,202.12,340.522z"/>
	<path style="fill:#FEC76B;" d="M188.62,195h-30c-15.715,0-28.5,12.785-28.5,28.5h15c0-4.142,3.358-7.5,7.5-7.5h42
		c4.142,0,7.5,3.358,7.5,7.5h15C217.12,207.785,204.334,195,188.62,195z"/>
	<path style="fill:#F53635;" d="M299.125,45v75h43.006V67.5c0-4.142,3.357-7.499,7.499-7.5V45H299.125z"/>
	<path style="fill:#F53635;" d="M211.12,45v75h43.006V67.5c0-4.142,3.358-7.5,7.5-7.5c0.005,0,0.005-15,0.005-15H211.12z"/>
	<rect x="130.12" y="135" style="fill:#C3F2AA;" width="272.012" height="15"/>
	<rect x="181.12" y="15" style="fill:#C3F2AA;" width="221.012" height="15"/>
	<path style="fill:#570100;" d="M409.631,45c4.142,0,7.5-3.358,7.5-7.5v-30c0-4.142-3.358-7.5-7.5-7.5H173.62
		c-4.142,0-7.5,3.358-7.5,7.5V120h-43.5c-4.142,0-7.5,3.358-7.5,7.5v7.5h-15v-7.5c0-4.142-3.358-7.5-7.5-7.5H75.369
		c-12.407,0-22.5,10.093-22.5,22.5s10.093,22.5,22.5,22.5H92.62c4.142,0,7.5-3.358,7.5-7.5V150h15v7.5c0,4.142,3.358,7.5,7.5,7.5
		h28.5v15.661c-20.422,3.566-36,21.412-36,42.839v117.022c0,21.427,15.578,39.273,36,42.839v30.161c0,8.798,6.534,16.081,15,17.3
		V462.5c0,4.142,3.358,7.5,7.5,7.5s7.5-3.358,7.5-7.5v-31.678c8.466-1.22,15-8.502,15-17.3v-30.161
		c20.422-3.566,36-21.412,36-42.839V223.5c0-21.427-15.578-39.273-36-42.839V165h213.512c4.142,0,7.5-3.358,7.5-7.5v-30
		c0-4.142-3.358-7.5-7.5-7.5h-22.5V45H409.631z M67.869,142.5c0-4.136,3.364-7.5,7.5-7.5h9.751v15h-9.751
		C71.233,150,67.869,146.636,67.869,142.5z M402.131,150H130.12v-15h272.012V150z M217.12,340.522c0,15.715-12.785,28.5-28.5,28.5
		h-30c-15.715,0-28.5-12.785-28.5-28.5V223.5c0-15.715,12.785-28.5,28.5-28.5h30c15.715,0,28.5,12.785,28.5,28.5V340.522z
		 M178.62,416.022h-10c-1.355,0-2.5-1.145-2.5-2.5v-29.5h15v29.5C181.12,414.877,179.975,416.022,178.62,416.022z M181.12,180h-15
		v-15h15V180z M181.12,15h221.012v15H181.12V15z M269.125,120V67.5c0-4.141-3.356-7.497-7.495-7.5c-4.147,0-7.505,3.358-7.505,7.5
		V120H211.12V45h73.006v75H269.125z M181.12,45h15v75h-15V45z M372.131,120h-15V67.5c0-4.142-3.358-7.5-7.5-7.5
		c-4.143,0.001-7.5,3.358-7.5,7.5V120h-43.006V45h73.006V120z"/>
	<path style="fill:#570100;" d="M152.62,348.022h42c4.142,0,7.5-3.358,7.5-7.5c-0.001-4.143-3.359-7.5-7.5-7.5h-42
		c-4.141,0-7.499,3.357-7.5,7.498C145.12,344.664,148.478,348.022,152.62,348.022z"/>
	<path style="fill:#570100;" d="M194.62,303.767h-42c-4.142,0-7.5,3.358-7.5,7.5s3.358,7.5,7.5,7.5h42c4.142,0,7.5-3.358,7.5-7.5
		S198.762,303.767,194.62,303.767z"/>
	<path style="fill:#570100;" d="M194.62,274.511h-42c-4.142,0-7.5,3.358-7.5,7.5s3.358,7.5,7.5,7.5h42c4.142,0,7.5-3.358,7.5-7.5
		S198.762,274.511,194.62,274.511z"/>
	<path style="fill:#570100;" d="M194.62,245.255h-42c-4.142,0-7.5,3.358-7.5,7.5s3.358,7.5,7.5,7.5h42c4.142,0,7.5-3.358,7.5-7.5
		S198.762,245.255,194.62,245.255z"/>
	<path style="fill:#570100;" d="M152.62,231h42c4.142,0,7.5-3.358,7.5-7.5s-3.358-7.5-7.5-7.5h-42c-4.142,0-7.5,3.358-7.5,7.5
		S148.478,231,152.62,231z"/>
</g>
<g>
</g>
<g>
</g>
<g>
</g>
<g>
</g>
<g>
</g>
<g>
</g>
<g>
</g>
<g>
</g>
<g>
</g>
<g>
</g>
<g>
</g>
<g>
</g>
<g>
</g>
<g>
</g>
<g>
</g>
</svg>
