<svg width="100" height="100" viewBox="0 0 100 100" fill="none" xmlns="http://www.w3.org/2000/svg">
<path d="M44.0654 90.9056L73.633 99.9999L99.5196 76.7533L69.7476 67.8414L44.0654 90.9056ZM57.3795 89.4859C55.8134 90.8923 53.2614 91.5012 51.6777 90.8452C50.0955 90.1891 50.0808 88.5181 51.648 87.1116C53.2141 85.7052 55.7661 85.0963 57.3498 85.7524C58.9333 86.4084 58.9454 88.0794 57.3795 89.4859ZM66.9276 92.4895C65.3615 93.896 62.8094 94.5048 61.2257 93.8488C59.6436 93.1927 59.6288 91.5217 61.196 90.1152C62.7634 88.7088 65.3142 88.0999 66.8979 88.756C68.4803 89.412 68.4937 91.083 66.9276 92.4895ZM86.1787 79.0405C87.7449 77.634 90.2969 77.0252 91.8806 77.6812C93.4628 78.3373 93.4775 80.0083 91.9116 81.4147C90.3458 82.8212 87.7935 83.43 86.2097 82.774C84.626 82.118 84.6129 80.447 86.1787 79.0405ZM76.6588 76.2302C78.2249 74.8237 80.7769 74.2149 82.3607 74.8709C83.9428 75.5269 83.9575 77.1979 82.3904 78.6044C80.8242 80.0109 78.2722 80.6197 76.6885 79.9637C75.1063 79.3076 75.0929 77.6366 76.6588 76.2302ZM76.4181 91.5663C78.0002 92.2224 78.015 93.8934 76.4478 95.2998C74.8817 96.7063 72.3296 97.3151 70.7459 96.6591C69.1622 96.0031 69.1491 94.3321 70.7149 92.9256C72.2823 91.5205 74.8344 90.9115 76.4181 91.5663ZM72.8123 71.8661C74.3945 72.5221 74.4092 74.1932 72.842 75.5996C71.2759 77.0061 68.7239 77.6149 67.1402 76.9589C65.558 76.3029 65.5433 74.6318 67.1105 73.2254C68.6766 71.8189 71.2289 71.2113 72.8123 71.8661Z" fill="black"/>
<path d="M100 73.5407L90.2244 47.2023L60.8962 38.422L70.6719 64.7593L100 73.5407ZM78.2223 52.8883C79.3176 51.9048 81.5185 52.2854 83.1383 53.7402C84.758 55.1951 85.1831 57.1717 84.0869 58.155C82.9916 59.1386 80.7907 58.758 79.1709 57.3031C77.5509 55.8485 77.1258 53.8717 78.2223 52.8883Z" fill="black"/>
<path d="M29.8436 0L2.19165 12.4158L29.8433 24.8317L57.4937 12.4158L29.8436 0ZM29.8436 14.935C27.5538 14.935 25.6958 13.8065 25.6958 12.4158C25.6958 11.024 27.5525 9.89671 29.8436 9.89671C32.1347 9.89671 33.9914 11.0252 33.9914 12.4158C33.9899 13.8077 32.1334 14.935 29.8436 14.935Z" fill="black"/>
<path d="M36.9512 47.6047C38.2724 47.1674 39.3768 47.8595 39.7589 49.1862L56.3192 34.314L59.684 35.3217V14.9919L31.6151 27.5962V56.4998L34.4525 53.9517C34.1631 53.4913 33.9897 52.8945 33.9897 52.1877C33.9897 50.1976 35.3165 48.146 36.9512 47.6047ZM55.013 20.499C56.649 19.9577 57.9742 21.131 57.9742 23.1196C57.9742 25.1083 56.649 27.1599 55.013 27.7013C53.377 28.2426 52.0518 27.0693 52.0518 25.0807C52.0516 23.0918 53.377 21.0404 55.013 20.499ZM46.5746 33.5105C48.2106 32.9691 49.5358 34.1425 49.5358 36.1311C49.5358 38.1197 48.2106 40.1714 46.5746 40.7127C44.9386 41.2541 43.6135 40.0808 43.6135 38.0921C43.6135 36.1035 44.9399 34.0518 46.5746 33.5105ZM33.9897 33.0791C33.9897 31.0905 35.3149 29.0388 36.9509 28.4975C38.5869 27.9561 39.9121 29.1294 39.9121 31.1181C39.9121 33.107 38.5869 35.1584 36.9509 35.6997C35.3151 36.2411 33.9897 35.068 33.9897 33.0791Z" fill="black"/>
<path d="M6.10352e-05 47.8668L27.6733 60.0387L28.0701 59.6823V27.5962L6.10352e-05 14.9919V47.8668ZM22.6657 47.6046C24.3017 48.146 25.6268 50.1976 25.6268 52.1863C25.6268 54.1749 24.3017 55.3482 22.6657 54.8069C21.0297 54.2655 19.7045 52.2139 19.7045 50.2253C19.7045 48.2366 21.0312 47.0633 22.6657 47.6046ZM14.0352 33.1081C15.6712 33.6495 16.9964 35.7009 16.9964 37.6898C16.9964 39.6784 15.6712 40.8517 14.0352 40.3104C12.3992 39.769 11.074 37.7174 11.074 35.7287C11.0738 33.7401 12.4005 32.5668 14.0352 33.1081ZM5.15274 20.499C6.78876 21.0404 8.11392 23.0918 8.11392 25.0807C8.11392 27.0693 6.78876 28.2426 5.15274 27.7013C3.51673 27.1599 2.19157 25.1085 2.19157 23.1196C2.19157 21.131 3.51673 19.9577 5.15274 20.499Z" fill="black"/>
<path d="M57.3176 38.8523L31.4309 62.0977L41.5589 88.6537L67.2411 65.5872L57.3176 38.8523ZM46.2625 79.8961C44.6964 81.3026 42.8344 81.2906 42.1052 79.8683C41.376 78.4462 42.0526 76.1541 43.6188 74.7477C45.1849 73.3412 47.0469 73.3532 47.7761 74.7743C48.5053 76.1954 47.8286 78.4897 46.2625 79.8961ZM54.8998 52.335C53.3337 53.7415 51.4717 53.7292 50.7425 52.3084C50.012 50.8875 50.6899 48.5942 52.2561 47.1878C53.8222 45.7813 55.6842 45.7936 56.4134 47.2144C57.1441 48.6365 56.4659 50.9286 54.8998 52.335Z" fill="black"/>
</svg>
