<svg width="40" height="40" viewBox="0 0 40 40" fill="none" xmlns="http://www.w3.org/2000/svg">
<path d="M36.8421 26.3369C34.3747 26.3369 31.9579 25.9516 29.6653 25.1937C28.5474 24.8084 27.28 25.1053 26.5432 25.8548L22.0022 29.2843C16.7937 26.5053 13.459 23.1726 10.7138 17.9979L14.0506 13.5643C14.8906 12.7222 15.1917 11.4947 14.8317 10.3432C14.0716 8.04001 13.6843 5.62106 13.6843 3.1579C13.6843 1.41681 12.2674 0 10.5264 0H3.1579C1.41681 0 0 1.41681 0 3.1579C0 23.4716 16.5284 40 36.8421 40C38.5832 40 40 38.5832 40 36.8421V29.4948C40 27.7537 38.5832 26.3369 36.8421 26.3369ZM37.8948 36.8421C37.8948 37.4232 37.4211 37.8948 36.8421 37.8948C17.6884 37.8948 2.10523 22.3116 2.10523 3.1579C2.10523 2.57684 2.57892 2.10523 3.1579 2.10523H10.5264C11.1053 2.10523 11.579 2.57684 11.579 3.1579C11.579 5.84635 12.0001 8.48636 12.8253 10.9895C12.9474 11.3831 12.8485 11.7895 12.4632 12.1895L8.63162 17.2631C8.38955 17.5852 8.35165 18.0168 8.53481 18.3747C11.6569 24.5074 15.4485 28.3011 21.6254 31.4653C21.9811 31.6505 22.4169 31.6126 22.739 31.3685L27.9222 27.4401C28.2044 27.1622 28.619 27.0653 28.9938 27.1895C31.5118 28.0211 34.1518 28.4421 36.8423 28.4421C37.4213 28.4421 37.895 28.9137 37.895 29.4948V36.8421H37.8948Z" fill="white"/>
</svg>
