<svg width="40" height="40" viewBox="0 0 40 40" fill="none" xmlns="http://www.w3.org/2000/svg">
<path d="M19.9999 17.3333C22.5733 17.3333 24.6666 15.2393 24.6666 12.6667C24.6666 10.094 22.5733 8 19.9999 8C17.4266 8 15.3333 10.094 15.3333 12.6667C15.3333 15.2393 17.4266 17.3333 19.9999 17.3333ZM19.9999 9.33333C21.8379 9.33333 23.3333 10.8287 23.3333 12.6667C23.3333 14.5047 21.8379 16 19.9999 16C18.1619 16 16.6666 14.5047 16.6666 12.6667C16.6666 10.8287 18.1619 9.33333 19.9999 9.33333Z" fill="white"/>
<path d="M19.882 36.5047L30.1093 21.7333C33.9453 16.6193 33.3906 8.21333 28.922 3.74533C26.5073 1.33 23.2966 0 19.882 0C16.4673 0 13.2566 1.33 10.842 3.74467C6.37332 8.21267 5.81865 16.6187 9.63932 21.7127L19.882 36.5047ZM11.7846 4.68733C13.948 2.52467 16.8233 1.33333 19.882 1.33333C22.9406 1.33333 25.816 2.52467 27.9793 4.68733C32.0127 8.72 32.5093 16.312 29.028 20.9533L19.882 34.162L10.7213 20.9333C7.25465 16.312 7.75198 8.72 11.7846 4.68733Z" fill="white"/>
<path d="M28.078 28.6715C27.7113 28.6268 27.3807 28.8895 27.338 29.2555C27.2953 29.6215 27.5567 29.9528 27.922 29.9955C34.9327 30.8208 38.6667 33.0448 38.6667 34.3335C38.6667 36.1428 31.5653 38.6668 20 38.6668C8.43467 38.6668 1.33333 36.1428 1.33333 34.3335C1.33333 33.0448 5.06733 30.8208 12.078 29.9955C12.4433 29.9528 12.7047 29.6208 12.662 29.2555C12.6187 28.8895 12.288 28.6255 11.922 28.6715C4.90267 29.4981 0 31.8261 0 34.3335C0 37.1495 6.87 40.0001 20 40.0001C33.13 40.0001 40 37.1495 40 34.3335C40 31.8261 35.0973 29.4981 28.078 28.6715Z" fill="white"/>
</svg>
