<svg width="40" height="40" viewBox="0 0 40 40" fill="none" xmlns="http://www.w3.org/2000/svg">
<path d="M20 0C8.95443 0 0 8.95443 0 20C0 31.0456 8.95443 40 20 40C31.0456 40 40 31.0456 40 20C39.9876 8.95964 31.0404 0.0123698 20 0ZM20 38.6667C9.69076 38.6667 1.33333 30.3092 1.33333 20C1.33333 9.69076 9.69076 1.33333 20 1.33333C30.3092 1.33333 38.6667 9.69076 38.6667 20C38.6549 30.3044 30.3044 38.6549 20 38.6667Z" fill="white"/>
<path d="M28.6667 8H11.3333C9.49316 8.00228 8.00228 9.49316 8 11.3333V28.6667C8.00228 30.5068 9.49316 31.9977 11.3333 32H28.6667C30.5068 31.9977 31.9977 30.5068 32 28.6667V11.3333C31.9977 9.49316 30.5068 8.00228 28.6667 8ZM30.6667 28.6667C30.6667 29.7712 29.7712 30.6667 28.6667 30.6667H11.3333C10.2288 30.6667 9.33333 29.7712 9.33333 28.6667V11.3333C9.33333 10.2288 10.2288 9.33333 11.3333 9.33333H28.6667C29.7712 9.33333 30.6667 10.2288 30.6667 11.3333V28.6667Z" fill="white"/>
<path d="M20 13.3333C16.3181 13.3333 13.3334 16.318 13.3334 19.9999C13.3334 23.6819 16.3181 26.6666 20 26.6666C23.682 26.6666 26.6667 23.6819 26.6667 19.9999C26.6628 16.3196 23.6804 13.3372 20 13.3333ZM20 25.3333C17.0544 25.3333 14.6667 22.9456 14.6667 19.9999C14.6667 17.0543 17.0544 14.6666 20 14.6666C22.9457 14.6666 25.3334 17.0543 25.3334 19.9999C25.3301 22.9439 22.9441 25.33 20 25.3333Z" fill="white"/>
<path d="M27.3334 10.6667C26.2289 10.6667 25.3334 11.5623 25.3334 12.6667C25.3334 13.7712 26.2289 14.6667 27.3334 14.6667C28.4379 14.6667 29.3334 13.7712 29.3334 12.6667C29.3334 11.5623 28.4379 10.6667 27.3334 10.6667ZM27.3334 13.3334C26.9652 13.3334 26.6667 13.0349 26.6667 12.6667C26.6667 12.2986 26.9652 12.0001 27.3334 12.0001C27.7015 12.0001 28 12.2986 28 12.6667C28 13.0349 27.7015 13.3334 27.3334 13.3334Z" fill="white"/>
</svg>
