<svg width="52" height="54" viewBox="0 0 52 54" fill="none" xmlns="http://www.w3.org/2000/svg">
<path d="M26 53.6639C39.8071 53.6639 51 41.8747 51 27.332C51 12.7892 39.8071 1 26 1C12.1929 1 1 12.7892 1 27.332C1 41.8747 12.1929 53.6639 26 53.6639Z" fill="#FEFEFE" stroke="#2B2A29" stroke-width="0.2"/>
<path fill-rule="evenodd" clip-rule="evenodd" d="M36.95 15.3683C36.95 15.3683 36.7202 15.0509 36.5721 15.137C36.3627 15.2553 36.1839 15.2284 35.663 14.9164C34.4985 14.2225 34.8662 14.4914 34.8662 14.4914L35.6834 15.0401C35.6834 15.0401 35.9234 15.5781 36.0562 15.492C36.1941 15.4005 36.3167 15.3037 36.4699 15.2876C36.6997 15.2661 36.95 15.3683 36.95 15.3683ZM42.5782 17.8374C42.0675 17.8858 41.4495 17.8374 40.9592 17.8213L40.5149 17.407C40.6936 17.5093 40.8775 17.6115 41.0613 17.7137C41.4954 17.7083 41.9296 17.7083 42.3637 17.7029L42.1951 17.3532C42.2922 17.477 42.522 17.6437 42.619 17.7621C42.6037 17.789 42.5935 17.8105 42.5782 17.8374ZM40.9234 19.1715C40.9234 19.1715 43.4107 19.6233 43.3749 20.7315C43.3341 21.8343 42.8693 21.7536 42.3228 22.0387C41.7815 22.3238 41.2707 22.2861 41.2707 22.2861L40.9234 19.1715ZM37.9714 17.3317C38.2472 16.9659 37.8693 16.584 37.1747 15.5727C37.4454 15.1961 37.8846 14.3247 37.1134 13.6845C33.2779 10.5161 30.9847 11.6404 28.8703 12.0062C28.8703 12.0062 28.0276 11.6888 27.6293 10.9034C25.9949 7.6704 31.6742 11.479 34.3147 9.59083C34.3147 9.59083 35.142 8.98297 35.4434 8.73014C35.7549 8.46655 36.2912 7.41757 36.0256 6.84736C35.76 6.27715 34.7794 5.21204 34.7794 5.21204C34.7794 5.21204 36.6844 5.82528 37.425 6.97109C38.1655 8.11689 37.9306 7.25619 37.9306 7.25619C37.9306 7.25619 38.1655 7.1755 38.3953 7.50364C38.6303 7.83178 38.3953 7.75109 38.3953 7.75109C38.3953 7.75109 38.6711 7.99316 38.5894 8.28365C38.5128 8.56876 38.2779 8.77317 38.2779 8.77317L38.3596 10.8227L38.5128 11.0648C38.5128 11.0648 39.095 10.7366 39.2125 11.1078C39.33 11.4736 39.4474 11.5166 39.4474 11.5166C39.4474 11.5166 39.1768 10.4946 39.7947 10.699C40.4178 10.9034 40.1471 11.436 40.0705 11.8018C39.9888 12.1729 39.9888 13.0336 39.9888 13.0336L40.1829 13.0713C40.1829 13.0713 39.9531 13.3564 40.1829 13.6469C40.4178 13.932 40.4178 14.5452 40.7294 14.5883C41.0409 14.6259 41.0818 14.8303 41.0818 14.8303C41.0818 14.8303 41.0409 14.5883 41.4699 14.5883C41.8938 14.5883 42.5935 14.7927 42.8284 14.8734C43.0634 14.9541 43.0225 14.7496 43.1808 15.2445C43.3341 15.7341 43.0991 15.8578 43.3341 16.0622C43.569 16.2666 43.0634 17.208 43.0634 17.208C43.0634 17.208 42.8284 17.9019 42.4403 17.988C42.0521 18.0687 41.5874 17.988 41.5874 17.988L40.8826 17.8643C40.8826 17.8643 40.3974 17.5308 40.3974 17.2026C40.3974 16.8799 40.3821 16.5948 40.3821 16.5948L39.4066 17.0466C39.4066 17.0466 40.617 17.7083 40.6476 18.0257C40.6783 18.3431 41.2758 25.0296 41.2758 25.0296C41.2758 25.0296 40.7702 25.6428 40.4178 25.8096C40.0705 25.971 39.8356 26.0517 39.8356 26.0517L40.0297 27.4019C40.0297 27.4019 39.759 27.5256 39.7947 28.0205C39.8356 28.51 39.8764 29.204 39.8764 29.204L39.6415 30.5972L39.4066 29.4945L39.2125 27.8968L38.9418 27.4449V26.1324C38.9418 26.1324 38.2421 26.014 37.9714 25.7666C37.6957 25.5191 37.5424 25.3147 37.5424 25.3147L37.5016 24.4163L37.4914 24.2603C37.379 24.4594 37.19 24.6369 36.8785 24.7015C36.0664 24.8628 35.8724 24.9866 35.5966 24.9059C35.3259 24.8252 35.2084 24.7821 35.2084 24.7821C35.2084 24.7821 35.091 25.3524 34.4321 25.6428C33.8907 25.8849 33.4362 25.7773 33.0327 25.4384C33.0327 25.4384 32.333 26.2991 32.0624 26.3368C31.7866 26.3798 31.0103 26.3368 30.5046 25.9279C29.999 25.5191 29.1461 24.9059 29.1461 24.9059C29.1461 24.9059 27.9051 24.3948 27.4352 23.6794C26.2452 21.8612 27.2258 21.1242 28.0021 20.2958C28.7784 19.4673 28.6762 18.5206 29.2993 18.1494C29.9224 17.7836 30.234 17.3694 30.5455 16.9229C30.857 16.471 31.2043 16.1859 31.6691 16.1859C32.139 16.1859 32.6446 16.3903 33.4209 16.2666C34.1972 16.1429 34.4883 15.8847 35.7753 16.3473C36.1482 16.4818 36.6385 16.8368 36.8223 17.0305C37.047 17.2726 36.5772 17.6168 37.0981 17.7944C37.1492 17.7459 37.2156 17.6975 37.3024 17.6706C37.4811 17.6168 37.9102 17.4124 37.9714 17.3317ZM38.5741 12.6624C38.5741 12.6624 38.6711 12.8884 38.7273 13.2542C38.7835 13.6254 38.7477 13.7276 38.7477 13.7276L38.5128 13.4801L38.5741 12.6624ZM39.4832 11.8448L39.6415 13.0121L39.4679 12.9314L39.3504 12.2321L39.1768 12.2106L39.427 11.9255L39.4832 11.8448ZM28.5537 25.0081C28.5537 25.0081 27.6854 25.4008 26.7712 24.6584C24.9582 23.1845 25.617 20.8498 27.0062 19.6664C27.4556 19.2791 29.4883 17.2726 30.0399 17.3317C30.0399 17.3317 28.8703 18.1494 28.5588 18.682C28.2523 19.2145 28.2523 19.9084 27.8233 20.1559C27.3943 20.4033 26.8887 21.0973 26.7712 21.3824C26.5057 22.0441 26.5363 23.3297 27.3177 24.0452C27.7416 24.4325 28.5537 25.0081 28.5537 25.0081Z" fill="#2B2A29"/>
<path fill-rule="evenodd" clip-rule="evenodd" d="M28.5487 20.5702C28.5487 20.5702 28.1606 21.3878 27.6958 21.3878C27.231 21.3878 27.9307 22.5336 28.7836 23.1092C29.6417 23.6794 31.6999 25.1964 31.9348 25.4008C32.1646 25.6053 31.6795 26.2831 31.894 26.0571L32.517 25.4008C32.517 25.4008 29.9123 23.5611 29.3659 22.5767C28.8245 21.5923 28.5487 20.5702 28.5487 20.5702ZM36.2504 18.6444C35.7806 19.22 35.5661 19.4459 35.8419 19.6503C36.1125 19.8547 36.3066 19.688 36.5977 19.4835C36.8888 19.2791 37.3383 19.2576 37.2208 19.0155C37.1034 18.7681 36.9655 18.483 36.6743 18.5206C36.3832 18.5637 36.2504 18.6444 36.2504 18.6444ZM40.4588 18.0742C40.2239 18.0849 40.0196 18.3969 38.9317 18.3593L39.4987 24.7876C39.4987 24.7876 39.514 25.5246 40.0502 25.4815C40.5865 25.4439 41.1279 24.8683 41.1279 24.8683L40.4588 18.0742ZM42.5681 20.4034C42.0012 20.1398 41.5926 20.0161 41.6897 20.2636C41.7867 20.511 42.1187 20.9198 42.4302 20.9198C42.7418 20.9198 42.8745 20.8768 42.895 20.7531C42.9154 20.6294 42.5681 20.4034 42.5681 20.4034ZM31.5058 17.2511C32.1289 18.0742 34.1514 19.9569 34.5395 20.6132C34.9277 21.2641 35.9389 23.6418 35.9389 23.6418L36.4803 23.3137C36.4803 23.3137 34.5395 20.1183 34.228 18.9725C33.9164 17.8267 34.1514 16.8423 33.4517 17.0897C32.7469 17.3372 32.9052 17.4986 32.2821 17.0897C31.659 16.6809 31.5058 17.2511 31.5058 17.2511ZM30.8061 17.8267C30.8061 17.8267 30.4946 18.483 29.9481 18.6444C29.4067 18.8111 29.1718 19.5858 30.183 20.6132C30.6682 21.1027 31.2862 21.7967 31.6795 22.652C32.2515 23.9 33.4721 26.3799 34.6927 25.035C34.6927 25.035 34.3812 25.1964 33.8398 24.949C33.6253 24.8575 33.0073 23.6848 32.231 22.6681C31.0206 21.0812 29.6008 19.3975 30.0298 19.0962C30.7295 18.6067 30.8061 17.8267 30.8061 17.8267Z" fill="#898989"/>
<path fill-rule="evenodd" clip-rule="evenodd" d="M45.898 17.3155C45.898 17.3155 48.6968 24.9327 46.4802 31.6085C44.4322 37.7786 42.6804 39.925 40.9235 39.6291C41.5466 39.3279 42.2565 38.6555 41.71 38.7254C41.3015 38.7792 40.9337 38.8222 40.7652 38.6124C40.9031 38.5748 41.0614 38.5479 41.2351 38.5263C43.089 38.3166 46.5977 32.2594 46.8326 27.3911C47.0625 22.5174 45.898 17.3155 45.898 17.3155ZM9.16664 26.7187C9.47307 26.568 9.78461 26.4228 10.1319 26.2668C11.4036 25.702 10.7141 25.0403 11.5977 24.5615L11.6845 25.6804C12.2974 25.4437 13.4414 25.32 13.7172 24.852C14.1053 24.185 13.9521 23.6955 14.7131 22.8993C14.9378 23.7331 14.7233 24.1043 14.6927 24.8305L14.9021 24.8735C14.9327 24.8735 15.0706 24.8897 15.1115 24.8897L16.6283 24.7606C17.2872 23.7977 17.1952 22.3076 18.1809 21.4038C18.5384 22.4367 17.8285 23.9106 17.9051 24.7821C18.5589 24.9757 20.7652 24.2979 23.3444 26.1C23.993 26.5519 23.7938 27.8698 25.7192 27.4718C25.6426 27.5955 24.4731 26.5358 24.948 26.0678C25.0247 26.0678 25.1115 26.0785 25.2085 26.0839C25.3056 26.3367 25.2698 26.6487 25.7346 26.9769C26.6181 27.6062 25.8418 26.5089 26.0155 26.5304C26.8377 26.6164 27.7826 27.4664 28.3954 28.2679C28.993 29.0587 30.2953 27.9613 30.4945 28.2249C30.6937 28.4938 30.1881 29.5428 30.5354 29.2523C31.6181 28.3217 33.3035 28.5692 33.3137 28.2034C33.3699 25.9871 32.9818 26.412 31.7764 26.7509C30.8418 27.0199 30.6784 26.7617 30.1523 26.6326C30.1166 25.9386 29.3862 25.5836 28.6457 25.546C27.4097 25.476 25.1115 25.2716 24.9174 22.3076C24.6569 21.3178 22.6294 20.9197 21.6692 21.7589C22.6498 19.392 18.2575 18.8164 16.0001 18.8702C14.9021 18.8971 14.182 20.5055 13.329 21.1887C10.6426 23.3512 8.04304 26.0947 6.19421 27.9882C5.70392 28.4831 5.92353 28.5907 7.41996 28.0904C7.64467 28.0151 8.82445 27.0952 9.16664 26.7187ZM26.4291 17.832C25.8571 17.5199 24.4475 16.9444 23.7581 17.0842C24.4067 17.3908 25.2902 17.4877 25.8674 18.1332L25.1983 18.7195C24.4475 18.5958 22.2208 17.1703 20.5456 17.5199C21.7254 17.762 23.0175 17.988 24.6825 19.2575L24.3301 19.8707C21.9603 18.7249 19.7489 17.8158 17.2106 18.0202C16.3321 18.0955 15.8316 18.2677 15.1268 18.4775C16.613 18.4936 16.9603 18.2569 18.8653 18.6173C19.7693 18.7895 21.2351 19.2413 21.9143 19.9998C22.2565 20.3818 22.1697 20.5216 22.1646 20.9789C23.0737 20.3925 23.947 20.726 25.0144 21.5545C24.8561 20.328 24.8408 19.6771 26.23 18.5797C26.8837 18.0633 28.2116 17.2994 28.8091 17.1434C27.6957 17.0896 27.0216 17.5899 26.4291 17.832ZM18.4567 10.2793C18.7734 10.2901 19.2126 10.0749 19.565 10.0265C20.5047 9.90278 21.8633 10.1771 22.4812 10.7958C22.231 10.785 22.3178 10.7904 22.0727 10.7151C20.469 10.2471 18.7376 10.5537 17.471 11.565C16.9194 12.0061 16.7509 12.3611 16.3628 12.7538C16.0461 11.7963 18.3495 8.97215 18.6304 8.68704C15.5354 11.366 9.49861 19.8438 9.42711 22.1462C10.2545 20.9896 11.5313 19.8116 13.6304 18.1332C13.6406 17.6813 14.611 15.5134 14.9429 15.2014C14.7182 15.8739 14.3199 17.0573 14.422 17.4124L16.0308 16.1751C15.944 15.6641 16.138 14.8088 16.6334 13.9481C16.516 14.6312 16.1074 15.1907 16.5466 15.933L17.6549 14.9863C17.6345 14.8518 17.2208 13.819 18.5027 12.6516C17.9511 13.7759 18.0022 14.0072 18.1758 14.7119C18.5384 14.2385 21.1125 13.2003 21.8684 13.6629C22.6294 14.131 18.421 16.2612 18.7172 16.6001C18.8806 16.7884 23.2627 13.3671 27.7468 12.6624C26.4904 12.4849 24.4169 11.7425 23.4669 11.1562C23.9828 10.9786 24.0645 11.1347 24.5599 11.0809C23.6457 10.0911 22.0522 9.04746 20.658 9.20346C22.5068 6.07267 30.4077 3.24313 34.8408 6.68054C32.2003 2.75361 24.9583 4.74935 23.3086 5.98122C22.2514 6.62675 21.3679 7.27765 20.5047 8.02C19.5752 8.82153 19.1002 9.48319 18.4567 10.2793ZM5.17276 28.6552C5.93885 18.2623 10.4945 13.2703 12.3229 11.097C17.3536 5.12053 23.3648 3.23237 28.1094 3.20009C27.9103 2.60837 17.3076 2.81278 10.9899 9.86512C6.91434 14.4161 4.08492 21.2747 5.17276 28.6552Z" fill="#244082"/>
<path d="M12.6906 45.4496V44.8149L12.2514 45.2829V45.3958C12.2514 45.4873 12.2361 45.5787 12.1135 45.5787C11.9705 45.5787 11.9807 45.4873 11.9807 45.3958V43.9864C11.9807 43.9004 12.0012 43.8035 12.1186 43.8035C12.2361 43.8035 12.2514 43.9004 12.2514 43.9864V44.519L12.6906 44.051V43.9165C12.6906 43.7175 12.5374 43.5507 12.3433 43.5507H11.8888C11.6998 43.5507 11.5415 43.7175 11.5415 43.9165V45.4604C11.5415 45.6648 11.6998 45.8316 11.8888 45.8316H12.3638C12.5527 45.8316 12.6906 45.6487 12.6906 45.4496ZM14.9531 45.4765V43.9757C14.9531 43.7605 14.8153 43.5507 14.611 43.5507H12.8285L13.1043 43.8412V45.9499L13.5435 45.4765V43.8412H13.6866C13.7529 43.8412 13.8142 43.9004 13.8142 43.9703V45.9499L14.2535 45.4765V43.8412H14.3811C14.4526 43.8412 14.5088 43.9111 14.5088 43.9864V45.9499L14.9531 45.4765ZM16.7662 45.8316L16.4904 45.5465V43.4377L16.0512 43.9004V45.5465H15.898C15.8265 45.5465 15.7805 45.4604 15.7805 45.3851V43.4377L15.3413 43.9004V45.4389C15.3413 45.6433 15.4792 45.8316 15.6784 45.8316H16.0512V46.3157C16.0512 46.3856 15.995 46.4394 15.9286 46.4394H15.3413L15.612 46.7245H16.1891C16.373 46.7245 16.4904 46.5363 16.4904 46.3426V45.8316H16.7662ZM18.3801 45.8316L18.1094 45.5465V43.8412L18.3801 43.5507H17.2872C17.0931 43.5507 16.9603 43.7605 16.9603 43.9649V45.4711C16.9603 45.6702 17.1135 45.8316 17.3025 45.8316H17.6804V46.3049C17.6804 46.3856 17.614 46.4502 17.5323 46.4502H16.9399L17.2208 46.7245H17.8132C18.0073 46.7245 18.1196 46.5147 18.1196 46.3103V45.8316H18.3801ZM17.6651 45.5465H17.5374C17.4608 45.5465 17.3995 45.4604 17.3995 45.3797V43.9864C17.3995 43.9057 17.4608 43.8412 17.5374 43.8412H17.6651V45.5465ZM19.9991 45.8316L19.7284 45.5465V43.4377L19.2841 43.9004V45.5787H19.1513C19.0696 45.5787 19.0185 45.4927 19.0185 45.4066V43.4377L18.5793 43.9004V45.5465C18.5793 45.7025 18.7121 45.8316 18.8602 45.8316H19.9991ZM21.6181 44.4813H21.3423V43.8412L21.6181 43.5507H21.3423H20.5252C20.3464 43.5507 20.1932 43.7121 20.1932 43.9004V44.2285C20.1932 44.4275 20.28 44.5674 20.4383 44.6158C20.2749 44.6481 20.1932 44.7772 20.1932 44.9655V45.9499L20.6375 45.4765V44.9063C20.6375 44.8364 20.6886 44.7718 20.7601 44.7718H20.9031V45.9499L21.3423 45.4765V44.7718L21.6181 44.4813ZM20.9031 44.4813H20.7601C20.6886 44.4813 20.6375 44.4168 20.6375 44.3469V43.9757C20.6375 43.9057 20.6886 43.8412 20.7601 43.8412H20.9031V44.4813ZM25.4128 45.4765V43.9757C25.4128 43.7605 25.2749 43.5507 25.0706 43.5507H23.2933L23.564 43.8412V45.9499L24.0032 45.4765V43.8412H24.1462C24.2126 43.8412 24.2739 43.9004 24.2739 43.9703V45.9499L24.7131 45.4765V43.8412H24.8408C24.9123 43.8412 24.9685 43.9111 24.9685 43.9864V45.9499L25.4128 45.4765ZM27.2259 44.831L26.9501 44.5405V43.9165C26.9501 43.7282 26.8224 43.5507 26.6437 43.5507H26.1431C25.9542 43.5507 25.801 43.7175 25.801 43.9165V44.5136L26.2402 44.051V43.9972C26.2402 43.9057 26.2351 43.8035 26.3781 43.8035C26.5058 43.8035 26.5109 43.9057 26.5109 43.9972V44.5405H26.1431C25.9593 44.5405 25.801 44.6858 25.801 44.8794V45.4711C25.801 45.6702 25.944 45.8316 26.138 45.8316H27.2259L26.9501 45.5465V44.831H27.2259ZM26.5109 45.5465H26.3525C26.2861 45.5465 26.2402 45.4819 26.2402 45.412V44.9816C26.2402 44.9063 26.2964 44.831 26.3679 44.831H26.5109V45.5465ZM29.2892 45.4765V43.9757C29.2892 43.7605 29.1564 43.5507 28.947 43.5507H27.1697L27.4404 43.8412V45.9499L27.8796 45.4765V43.8412H28.0226C28.089 43.8412 28.1503 43.9004 28.1503 43.9703V45.9499L28.5895 45.4765V43.8412H28.7172C28.7938 43.8412 28.8449 43.9111 28.8449 43.9864V45.9499L29.2892 45.4765ZM31.1023 45.8316L30.8265 45.5465V43.4377L30.3873 43.9004V45.5465H30.2341C30.1626 45.5465 30.1217 45.4604 30.1217 45.3851V43.4377L29.6774 43.9004V45.4389C29.6774 45.6433 29.8204 45.8316 30.0144 45.8316H30.3873V46.3157C30.3873 46.3856 30.3311 46.4394 30.2647 46.4394H29.6774L29.9532 46.7245H30.5252C30.709 46.7245 30.8265 46.5363 30.8265 46.3426V45.8316H31.1023ZM32.7213 45.8316L32.4455 45.5465V43.4377L32.0063 43.9004V45.5787H31.8684C31.7867 45.5787 31.7356 45.4927 31.7356 45.4066V43.4377L31.2964 43.9004V45.5465C31.2964 45.7025 31.4292 45.8316 31.5824 45.8316H32.7213ZM34.1411 45.4873V43.9434C34.1411 43.739 34.0032 43.5507 33.8142 43.5507H32.7213L32.992 43.8412V45.5465L32.7213 45.8316H32.992V46.8429L33.4312 46.3856V45.8316H33.8142C33.993 45.8316 34.1411 45.6756 34.1411 45.4873ZM33.7019 45.412C33.7019 45.4819 33.6457 45.5465 33.5793 45.5465H33.4312V43.8412H33.5793C33.6457 43.8412 33.7019 43.9057 33.7019 43.9757V45.412ZM35.6835 45.4066V44.0187C35.6835 43.7874 35.566 43.5507 35.3464 43.5507H34.851C34.6365 43.5507 34.5344 43.7982 34.5344 44.0241V45.4066C34.5344 45.611 34.6416 45.8316 34.8408 45.8316H35.3617C35.566 45.8316 35.6835 45.6164 35.6835 45.4066ZM35.2392 45.3958C35.2392 45.4873 35.2187 45.5787 35.1064 45.5787C34.994 45.5787 34.9736 45.4873 34.9736 45.3958V44.008C34.9736 43.9111 34.9889 43.8035 35.1064 43.8035C35.2238 43.8035 35.2392 43.9111 35.2392 44.008V45.3958ZM37.2974 45.4442V44.9063C37.2974 44.7503 37.1952 44.6158 37.0778 44.5889C37.2003 44.562 37.2974 44.4491 37.2974 44.2446V43.9004C37.2974 43.7121 37.1493 43.5507 36.9705 43.5507H35.8776L36.1483 43.8412V44.4813H35.8776L36.1483 44.7718V45.5465L35.8776 45.8316H36.9705C37.1595 45.8316 37.2974 45.6433 37.2974 45.4442ZM36.8582 44.3469C36.8582 44.4168 36.802 44.4813 36.7356 44.4813H36.5926V43.8412H36.7356C36.802 43.8412 36.8582 43.9057 36.8582 43.9757V44.3469ZM36.8582 45.412C36.8582 45.4819 36.802 45.5465 36.7356 45.5465H36.5926V44.7718H36.7356C36.802 44.7718 36.8582 44.8364 36.8582 44.9063V45.412ZM38.9164 45.4765V44.9117C38.8909 44.6589 38.6917 44.5835 38.6917 44.5835C38.6917 44.5835 38.9164 44.5136 38.9164 44.2608V43.4377L38.4772 43.9004V44.3253C38.4772 44.406 38.4261 44.4813 38.3495 44.4813H38.2065V43.4377L37.7673 43.9326V44.4813H37.4966L37.7673 44.7718V45.9499L38.2065 45.4765V44.7718H38.3546C38.421 44.7718 38.4772 44.8364 38.4772 44.9063V45.9499L38.9164 45.4765ZM40.7295 45.8316L40.4588 45.5465V43.4377L40.0144 43.9004V45.5787H39.8817C39.7999 45.5787 39.7489 45.4927 39.7489 45.4066V43.4377L39.3096 43.9004V45.5465C39.3096 45.7025 39.4424 45.8316 39.5905 45.8316H40.7295Z" fill="#2B2A29"/>
<path fill-rule="evenodd" clip-rule="evenodd" d="M14.6057 27.0845C13.5229 26.864 10.3513 28.0098 9.43204 28.2249C8.51784 28.4455 7.17974 29.1932 9.51886 29.0641C11.8529 28.9296 15.7293 28.537 17.7313 28.4455C19.7334 28.3594 20.7344 28.1819 20.2747 28.4455C19.8202 28.7091 14.1869 33.2331 12.5628 34.465C10.9336 35.6969 7.38913 38.946 6.97545 39.5593C6.55665 40.1725 5.34623 41.9746 7.17974 41.2753C9.01835 40.5706 11.6843 39.6937 13.3953 39.6937C15.1062 39.6937 16.3575 39.5593 17.1491 39.6453C17.9407 39.7368 18.9826 39.5162 17.8999 39.2957C16.8171 39.0751 14.524 38.8599 12.6036 38.989C10.6833 39.1235 7.76707 40.4361 8.89067 39.4302C10.0194 38.4188 14.8968 33.8087 16.3575 32.706C17.8181 31.6086 21.3422 28.4885 21.7558 28.3164C22.1542 28.2734 22.2359 28.3594 22.5679 28.3164C22.905 28.2734 23.5485 27.7677 23.1757 27.7677C22.7977 27.7677 22.6343 27.6978 22.4249 27.6978C22.5934 27.4342 23.4055 26.7349 22.8641 26.7779C22.3176 26.8209 21.6946 27.3266 21.3626 27.6547C20.7548 27.6547 17.9407 27.8323 15.8161 27.7892C13.6864 27.7462 13.3135 27.9614 14.3146 27.6117C15.3156 27.262 14.6057 27.0845 14.6057 27.0845ZM39.2073 34.6425C39.667 34.7071 40.336 34.6425 41.0459 34.2445C41.7558 33.8518 42.8386 32.8673 42.2104 33.2331C41.5873 33.6043 40.6067 33.9647 39.8968 33.9593C39.1869 33.954 39.1409 33.1578 39.3146 32.5769C39.5342 31.8399 39.146 32.1035 38.9366 32.8028C38.6813 33.6473 38.7477 34.5726 39.2073 34.6425ZM31.8273 37.4936C32.4709 37.2838 36.24 35.7829 34.6414 34.465C33.8294 33.7926 33.1501 34.0024 31.8273 35.4978C30.5097 36.9933 30.285 38.1983 30.5352 39.0321C30.7855 39.8659 31.2451 40.7911 33.2063 39.6937C35.1624 38.5964 36 37.0579 35.7906 37.6281C35.5812 38.1983 35.1624 40.1725 36.1634 40.0434C37.1644 39.9089 38.4157 38.8599 39.0848 38.1552C39.7538 37.4505 39.9581 36.8803 39.7538 38.0692C39.5444 39.2526 39.907 39.8605 40.5454 39.7583C41.1787 39.6561 42.3789 38.6448 41.7099 38.7255C41.0459 38.8061 40.5046 38.8815 40.7089 37.8701C40.9183 36.8588 41.0051 35.5839 40.2952 36.1541C39.5853 36.7243 38.7936 38.1337 37.7722 38.8115C36.7507 39.4947 36.1225 39.6023 36.8733 37.9347C37.6241 36.2671 38.1654 35.826 37.8743 35.3849C37.5832 34.9491 37.2512 34.7716 37.001 35.2988C36.7507 35.826 36.3728 36.6167 34.4116 38.1552C32.4555 39.6937 31.955 39.8013 31.5771 39.3172C31.2043 38.833 31.8273 37.4936 31.8273 37.4936ZM32.7058 35.9121C33.288 35.3849 33.1603 35.1697 33.7068 35.0352C34.2482 34.9061 34.8304 35.1912 34.2073 35.5409C33.5791 35.8905 32.7466 36.6598 32.4964 36.5307C32.2461 36.3962 32.7058 35.9121 32.7058 35.9121ZM23.6557 35.982C23.9468 35.3634 24.1767 34.422 23.3646 34.3574C22.5475 34.2875 21.7763 34.5941 20.193 36.6167C18.6098 38.6394 18.7323 40.5275 19.2533 40.5921C19.7742 40.6566 21.4034 38.903 21.9039 38.3758C22.4045 37.8486 23.0275 37.187 22.9458 38.3328C22.8641 39.4732 23.1552 40.0864 23.9877 39.3871C24.8202 38.6824 25.239 38.2413 25.1573 38.6824C25.0704 39.1235 25.1573 39.8874 26.1123 39.8874C27.0725 39.8874 27.8641 39.2742 28.7426 38.3973C29.6159 37.5151 30.0347 36.7028 30.285 36.6167C30.5352 36.5307 30.8672 36.2241 30.5352 36.1756C30.2032 36.1326 30.6169 35.1697 30.285 33.9378C29.953 32.706 29.6159 31.1244 30.1164 30.7317C30.6169 30.3337 31.4545 29.984 32.5781 29.984C33.7068 29.984 34.0796 29.7634 33.7885 30.3337C33.4974 30.9092 33.5383 30.9953 34.2482 30.4251C34.9581 29.8549 35.5403 28.9727 34.0388 29.0157C32.5373 29.0641 31.1634 29.3277 30.1164 29.8979C29.0745 30.4681 29.2839 32.0927 29.4525 32.5769C29.6159 33.061 29.953 34.1584 29.953 34.5511C29.953 34.9491 29.6159 34.7501 29.2635 34.7931C28.9111 34.8362 28.431 35.4118 28.3902 35.0567C28.3442 34.7071 28.2829 34.5941 27.8641 34.7286C27.4504 34.8577 25.9489 36.3532 25.239 37.6711C25.05 38.0261 23.1859 40.1886 23.7375 38.1552C24.0694 36.9234 24.2175 36.3962 23.8856 36.4876C23.5485 36.5737 23.1961 36.7243 23.3851 36.4177C23.5689 36.1111 23.6557 35.982 23.6557 35.982ZM26.3217 38.0208C25.8672 38.989 25.908 39.215 26.3217 39.4302C26.9806 39.7637 29.0592 37.8163 29.5904 36.7566C29.764 36.4123 29.5699 36.4231 29.5904 36.0734C29.621 35.6377 29.8151 35.3634 29.3248 35.3849C28.4004 35.4333 26.7048 37.2246 26.3217 38.0208ZM19.7742 38.8599C19.5699 39.4302 19.0694 40.5706 20.571 39.0321C22.0674 37.4936 22.4045 37.2784 22.4045 37.2784C22.4045 37.2784 22.3176 36.7512 22.8181 36.1756C23.3187 35.6054 23.5996 34.7394 23.2778 34.9061C22.2921 35.4225 20.0551 38.0961 19.7742 38.8599Z" fill="#2B2A29"/>
</svg>
