<svg width="40" height="40" viewBox="0 0 40 40" fill="none" xmlns="http://www.w3.org/2000/svg">
<g clip-path="url(#clip0)">
<path d="M35.6046 23.961L35.583 23.9408C35.2415 23.6249 34.1953 22.6049 33.8425 22.1591C33.4284 21.6029 33.5239 21.2384 33.8343 20.6923C34.2264 20.0021 35.0123 18.9436 35.8439 17.8226C38.5075 14.2334 40.2271 11.7487 39.8731 9.9838L39.6824 9.0411L29.8456 9.04539C29.8112 9.13834 29.2978 11.3977 27.1317 15.2449C25.561 18.0345 24.5307 18.9108 24.1678 19.0656L24.1117 19.0484C23.9936 18.9023 23.7873 18.5078 23.7024 17.4911C23.6139 16.4261 23.6924 15.1367 23.7684 13.8897C23.8572 12.4275 23.9338 11.1647 23.7504 10.2611L23.4516 8.78915C23.0906 8.73136 21.7688 8.22041 18.0863 8.18158C14.8981 8.14886 13.9615 8.61027 13.5016 9.01695L11.9803 10.362L13.9032 11.0103C14.635 11.257 14.878 11.5417 15.0772 12.9529C15.2072 13.8726 15.2753 15.4183 15.1349 16.7983C14.9332 18.7769 14.4495 19.1451 14.4245 19.1646C14.3412 19.1362 13.6347 18.8265 12.4082 16.2283C11.5573 14.4264 10.8115 12.2948 10.2664 10.7385C9.64266 8.9561 9.75496 9.33556 9.43849 8.49347L-0.078125 8.49316L0.537721 10.0893C3.10517 16.7499 5.46083 21.9515 8.6133 25.6874C12.0963 29.815 16.4249 31.9762 22.2556 31.9762H23.4275V30.8021C23.4275 29.7043 23.5181 28.9139 23.7125 28.3146C23.8312 27.9495 23.989 27.6477 24.1547 27.3312C24.4007 26.8652 24.6412 26.6656 24.7724 26.6359C24.8914 26.6087 25.1008 26.6961 25.3327 26.8695C25.9986 27.367 26.5272 28.0207 27.0868 28.713C27.8943 29.712 28.7293 30.7446 30.0541 31.4206C30.778 31.79 32.1049 31.9765 32.8351 31.9765C33.0283 31.9765 39.9134 31.9762 39.922 31.9762L39.8716 30.7537C39.7965 28.9258 38.3607 26.6402 35.6046 23.961ZM32.8806 29.6279H32.8617C32.3582 29.6361 31.3972 29.4707 31.1176 29.3282C30.2369 28.8787 29.6213 28.1171 28.9081 27.2352C28.2822 26.4607 27.6349 25.6599 26.7338 24.9869C26.005 24.4423 25.3431 24.283 24.8176 24.283C24.6076 24.283 24.419 24.3084 24.2572 24.345C23.6472 24.4826 22.7747 24.9223 22.081 26.2369C21.8854 26.6108 21.6636 27.0343 21.4838 27.5884C21.2955 28.1681 21.1783 28.8124 21.1225 29.5961C16.7285 29.346 13.2999 27.6043 10.4032 24.1714C7.70998 20.9794 5.59114 16.5148 3.34717 10.8406C3.50953 10.8406 7.57783 10.8412 7.81801 10.8412C7.89156 11.0482 7.9709 11.2751 8.05513 11.5154C8.64259 13.1944 9.44734 15.4935 10.3955 17.4541C11.7533 20.2618 12.9932 21.5139 14.4156 21.5139C15.1258 21.5139 15.7627 21.2124 16.2574 20.6415C16.9626 19.8279 17.3722 18.4849 17.5095 16.5356C17.6178 14.9985 17.5171 13.4675 17.3981 12.6238C17.2998 11.9297 17.1598 11.2011 16.818 10.5483C18.2746 10.4825 20.225 10.5865 21.4606 10.7641C21.5729 11.3769 21.4997 12.5813 21.4289 13.7466C21.2577 16.5616 21.081 19.4664 22.5681 20.8256C22.8296 21.0647 23.107 21.1928 23.115 21.198L23.8718 21.4307C24.1639 21.3405 25.8555 22.2004 29.0586 16.5995C30.0849 14.8049 31.0404 12.737 31.5549 11.3864C32.7482 11.3839 36.8134 11.3885 37.291 11.3891C36.6144 12.881 35.0111 15.0089 33.9631 16.4212C33.0494 17.6523 32.2605 18.7155 31.7975 19.53C30.9376 21.0433 31.0822 22.3921 31.9779 23.5818L31.9919 23.6002C32.4918 24.2377 33.7263 25.418 33.9823 25.6559C35.8372 27.4603 36.731 28.7564 37.1564 29.6276H32.8806V29.6279Z" fill="white"/>
</g>
<defs>
<clipPath id="clip0">
<rect width="40" height="40" fill="white"/>
</clipPath>
</defs>
</svg>
