<?xml version="1.0" encoding="UTF-8"?>
<!DOCTYPE svg PUBLIC "-//W3C//DTD SVG 1.1//EN" "http://www.w3.org/Graphics/SVG/1.1/DTD/svg11.dtd">
<!-- Creator: CorelDRAW X7 -->
<svg xmlns="http://www.w3.org/2000/svg" xml:space="preserve" width="210mm" height="297mm" version="1.1" style="shape-rendering:geometricPrecision; text-rendering:geometricPrecision; image-rendering:optimizeQuality; fill-rule:evenodd; clip-rule:evenodd"
viewBox="0 0 21000 29700"
 xmlns:xlink="http://www.w3.org/1999/xlink">
 <defs>
  <style type="text/css">
   <![CDATA[
    .str0 {stroke:#2B2A29;stroke-width:20}
    .fil0 {fill:#FEFEFE}
    .fil2 {fill:#898989}
    .fil1 {fill:#2B2A29}
    .fil3 {fill:#244082}
    .fil4 {fill:#2B2A29;fill-rule:nonzero}
   ]]>
  </style>
 </defs>
 <g id="Слой_x0020_1">
  <metadata id="CorelCorpID_0Corel-Layer"/>
  <g id="_155335104">
   <circle class="fil0 str0" cx="8908" cy="10988" r="4895"/>
   <path class="fil1" d="M11052 8764c0,0 -45,-59 -74,-43 -41,22 -76,17 -178,-41 -228,-129 -156,-79 -156,-79l160 102c0,0 47,100 73,84 27,-17 51,-35 81,-38 45,-4 94,15 94,15zm1102 459c-100,9 -221,0 -317,-3l-87 -77c35,19 71,38 107,57 85,-1 170,-1 255,-2l-33 -65c19,23 64,54 83,76 -3,5 -5,9 -8,14zm-324 248c0,0 487,84 480,290 -8,205 -99,190 -206,243 -106,53 -206,46 -206,46l-68 -579zm-578 -342c54,-68 -20,-139 -156,-327 53,-70 139,-232 -12,-351 -751,-589 -1200,-380 -1614,-312 0,0 -165,-59 -243,-205 -320,-601 792,107 1309,-244 0,0 162,-113 221,-160 61,-49 166,-244 114,-350 -52,-106 -244,-304 -244,-304 0,0 373,114 518,327 145,213 99,53 99,53 0,0 46,-15 91,46 46,61 0,46 0,46 0,0 54,45 38,99 -15,53 -61,91 -61,91l16 381 30 45c0,0 114,-61 137,8 23,68 46,76 46,76 0,0 -53,-190 68,-152 122,38 69,137 54,205 -16,69 -16,229 -16,229l38 7c0,0 -45,53 0,107 46,53 46,167 107,175 61,7 69,45 69,45 0,0 -8,-45 76,-45 83,0 220,38 266,53 46,15 38,-23 69,69 30,91 -16,114 30,152 46,38 -53,213 -53,213 0,0 -46,129 -122,145 -76,15 -167,0 -167,0l-138 -23c0,0 -95,-62 -95,-123 0,-60 -3,-113 -3,-113l-191 84c0,0 237,123 243,182 6,59 123,1302 123,1302 0,0 -99,114 -168,145 -68,30 -114,45 -114,45l38 251c0,0 -53,23 -46,115 8,91 16,220 16,220l-46 259 -46 -205 -38 -297 -53 -84 0 -244c0,0 -137,-22 -190,-68 -54,-46 -84,-84 -84,-84l-8 -167 -2 -29c-22,37 -59,70 -120,82 -159,30 -197,53 -251,38 -53,-15 -76,-23 -76,-23 0,0 -23,106 -152,160 -106,45 -195,25 -274,-38 0,0 -137,160 -190,167 -54,8 -206,0 -305,-76 -99,-76 -266,-190 -266,-190 0,0 -243,-95 -335,-228 -233,-338 -41,-475 111,-629 152,-154 132,-330 254,-399 122,-68 183,-145 244,-228 61,-84 129,-137 220,-137 92,0 191,38 343,15 152,-23 209,-71 461,15 73,25 169,91 205,127 44,45 -48,109 54,142 10,-9 23,-18 40,-23 35,-10 119,-48 131,-63zm118 -868c0,0 19,42 30,110 11,69 4,88 4,88l-46 -46 12 -152zm178 -152l31 217 -34 -15 -23 -130 -34 -4 49 -53 11 -15zm-2140 2447c0,0 -170,73 -349,-65 -355,-274 -226,-708 46,-928 88,-72 486,-445 594,-434 0,0 -229,152 -290,251 -60,99 -60,228 -144,274 -84,46 -183,175 -206,228 -52,123 -46,362 107,495 83,72 242,179 242,179z"/>
   <path class="fil2" d="M9407 9731c0,0 -76,152 -167,152 -91,0 46,213 213,320 168,106 571,388 617,426 45,38 -50,164 -8,122l122 -122c0,0 -510,-342 -617,-525 -106,-183 -160,-373 -160,-373zm1508 -358c-92,107 -134,149 -80,187 53,38 91,7 148,-31 57,-38 145,-42 122,-87 -23,-46 -50,-99 -107,-92 -57,8 -83,23 -83,23zm824 -106c-46,2 -86,60 -299,53l111 1195c0,0 3,137 108,129 105,-7 211,-114 211,-114l-131 -1263zm413 433c-111,-49 -191,-72 -172,-26 19,46 84,122 145,122 61,0 87,-8 91,-31 4,-23 -64,-65 -64,-65zm-2166 -586c122,153 518,503 594,625 76,121 274,563 274,563l106 -61c0,0 -380,-594 -441,-807 -61,-213 -15,-396 -152,-350 -138,46 -107,76 -229,0 -122,-76 -152,30 -152,30zm-137 107c0,0 -61,122 -168,152 -106,31 -152,175 46,366 95,91 216,220 293,379 112,232 351,693 590,443 0,0 -61,30 -167,-16 -42,-17 -163,-235 -315,-424 -237,-295 -515,-608 -431,-664 137,-91 152,-236 152,-236z"/>
   <path class="fil3" d="M12804 9126c0,0 548,1416 114,2657 -401,1147 -744,1546 -1088,1491 122,-56 261,-181 154,-168 -80,10 -152,18 -185,-21 27,-7 58,-12 92,-16 363,-39 1050,-1165 1096,-2070 45,-906 -183,-1873 -183,-1873zm-7192 1748c60,-28 121,-55 189,-84 249,-105 114,-228 287,-317l17 208c120,-44 344,-67 398,-154 76,-124 46,-215 195,-363 44,155 2,224 -4,359l41 8c6,0 33,3 41,3l297 -24c129,-179 111,-456 304,-624 70,192 -69,466 -54,628 128,36 560,-90 1065,245 127,84 88,329 465,255 -15,23 -244,-174 -151,-261 15,0 32,2 51,3 19,47 12,105 103,166 173,117 21,-87 55,-83 161,16 346,174 466,323 117,147 372,-57 411,-8 39,50 -60,245 8,191 212,-173 542,-127 544,-195 11,-412 -65,-333 -301,-270 -183,50 -215,2 -318,-22 -7,-129 -150,-195 -295,-202 -242,-13 -692,-51 -730,-602 -51,-184 -448,-258 -636,-102 192,-440 -668,-547 -1110,-537 -215,5 -356,304 -523,431 -526,402 -1035,912 -1397,1264 -96,92 -53,112 240,19 44,-14 275,-185 342,-255zm3380 -1652c-112,-58 -388,-165 -523,-139 127,57 300,75 413,195l-131 109c-147,-23 -583,-288 -911,-223 231,45 484,87 810,323l-69 114c-464,-213 -897,-382 -1394,-344 -172,14 -270,46 -408,85 291,3 359,-41 732,26 177,32 464,116 597,257 67,71 50,97 49,182 178,-109 349,-47 558,107 -31,-228 -34,-349 238,-553 128,-96 388,-238 505,-267 -218,-10 -350,83 -466,128zm-1561 -1404c62,2 148,-38 217,-47 184,-23 450,28 571,143 -49,-2 -32,-1 -80,-15 -314,-87 -653,-30 -901,158 -108,82 -141,148 -217,221 -62,-178 389,-703 444,-756 -606,498 -1788,2074 -1802,2502 162,-215 412,-434 823,-746 2,-84 192,-487 257,-545 -44,125 -122,345 -102,411l315 -230c-17,-95 21,-254 118,-414 -23,127 -103,231 -17,369l217 -176c-4,-25 -85,-217 166,-434 -108,209 -98,252 -64,383 71,-88 575,-281 723,-195 149,87 -675,483 -617,546 32,35 890,-601 1768,-732 -246,-33 -652,-171 -838,-280 101,-33 117,-4 214,-14 -179,-184 -491,-378 -764,-349 362,-582 1909,-1108 2777,-469 -517,-730 -1935,-359 -2258,-130 -207,120 -380,241 -549,379 -182,149 -275,272 -401,420zm-2601 3416c150,-1932 1042,-2860 1400,-3264 985,-1111 2162,-1462 3091,-1468 -39,-110 -2115,-72 -3352,1239 -798,846 -1352,2121 -1139,3493z"/>
   <path class="fil4" d="M6302 14356l0 -118 -86 87 0 21c0,17 -3,34 -27,34 -28,0 -26,-17 -26,-34l0 -262c0,-16 4,-34 27,-34 23,0 26,18 26,34l0 99 86 -87 0 -25c0,-37 -30,-68 -68,-68l-89 0c-37,0 -68,31 -68,68l0 287c0,38 31,69 68,69l93 0c37,0 64,-34 64,-71zm443 5l0 -279c0,-40 -27,-79 -67,-79l-349 0 54 54 0 392 86 -88 0 -304 28 0c13,0 25,11 25,24l0 368 86 -88 0 -304 25 0c14,0 25,13 25,27l0 365 87 -88zm355 66l-54 -53 0 -392 -86 86 0 306 -30 0c-14,0 -23,-16 -23,-30l0 -362 -86 86 0 286c0,38 27,73 66,73l73 0 0 90c0,13 -11,23 -24,23l-115 0 53 53 113 0c36,0 59,-35 59,-71l0 -95 54 0zm316 0l-53 -53 0 -317 53 -54 -214 0c-38,0 -64,39 -64,77l0 280c0,37 30,67 67,67l74 0 0 88c0,15 -13,27 -29,27l-116 0 55 51 116 0c38,0 60,-39 60,-77l0 -89 51 0zm-140 -53l-25 0c-15,0 -27,-16 -27,-31l0 -259c0,-15 12,-27 27,-27l25 0 0 317zm457 53l-53 -53 0 -392 -87 86 0 312 -26 0c-16,0 -26,-16 -26,-32l0 -366 -86 86 0 306c0,29 26,53 55,53l223 0zm317 -251l-54 0 0 -119 54 -54 -54 0 -160 0c-35,0 -65,30 -65,65l0 61c0,37 17,63 48,72 -32,6 -48,30 -48,65l0 183 87 -88 0 -106c0,-13 10,-25 24,-25l28 0 0 219 86 -88 0 -131 54 -54zm-140 0l-28 0c-14,0 -24,-12 -24,-25l0 -69c0,-13 10,-25 24,-25l28 0 0 119zm883 185l0 -279c0,-40 -27,-79 -67,-79l-348 0 53 54 0 392 86 -88 0 -304 28 0c13,0 25,11 25,24l0 368 86 -88 0 -304 25 0c14,0 25,13 25,27l0 365 87 -88zm355 -120l-54 -54 0 -116c0,-35 -25,-68 -60,-68l-98 0c-37,0 -67,31 -67,68l0 111 86 -86 0 -10c0,-17 -1,-36 27,-36 25,0 26,19 26,36l0 101 -72 0c-36,0 -67,27 -67,63l0 110c0,37 28,67 66,67l213 0 -54 -53 0 -133 54 0zm-140 133l-31 0c-13,0 -22,-12 -22,-25l0 -80c0,-14 11,-28 25,-28l28 0 0 133zm544 -13l0 -279c0,-40 -26,-79 -67,-79l-348 0 53 54 0 392 86 -88 0 -304 28 0c13,0 25,11 25,24l0 368 86 -88 0 -304 25 0c15,0 25,13 25,27l0 365 87 -88zm355 66l-54 -53 0 -392 -86 86 0 306 -30 0c-14,0 -22,-16 -22,-30l0 -362 -87 86 0 286c0,38 28,73 66,73l73 0 0 90c0,13 -11,23 -24,23l-115 0 54 53 112 0c36,0 59,-35 59,-71l0 -95 54 0zm317 0l-54 -53 0 -392 -86 86 0 312 -27 0c-16,0 -26,-16 -26,-32l0 -366 -86 86 0 306c0,29 26,53 56,53l223 0zm278 -64l0 -287c0,-38 -27,-73 -64,-73l-214 0 53 54 0 317 -53 53 53 0 0 188 86 -85 0 -103 75 0c35,0 64,-29 64,-64zm-86 -14c0,13 -11,25 -24,25l-29 0 0 -317 29 0c13,0 24,12 24,25l0 267zm388 -1l0 -258c0,-43 -23,-87 -66,-87l-97 0c-42,0 -62,46 -62,88l0 257c0,38 21,79 60,79l102 0c40,0 63,-40 63,-79zm-87 -2c0,17 -4,34 -26,34 -22,0 -26,-17 -26,-34l0 -258c0,-18 3,-38 26,-38 23,0 26,20 26,38l0 258zm403 9l0 -100c0,-29 -20,-54 -43,-59 24,-5 43,-26 43,-64l0 -64c0,-35 -29,-65 -64,-65l-214 0 53 54 0 119 -53 0 53 54 0 144 -53 53 214 0c37,0 64,-35 64,-72zm-86 -204c0,13 -11,25 -24,25l-28 0 0 -119 28 0c13,0 24,12 24,25l0 69zm0 198c0,13 -11,25 -24,25l-28 0 0 -144 28 0c13,0 24,12 24,25l0 94zm403 12l0 -105c-5,-47 -44,-61 -44,-61 0,0 44,-13 44,-60l0 -153 -86 86 0 79c0,15 -10,29 -25,29l-28 0 0 -194 -86 92 0 102 -53 0 53 54 0 219 86 -88 0 -131 29 0c13,0 24,12 24,25l0 194 86 -88zm355 66l-53 -53 0 -392 -87 86 0 312 -26 0c-16,0 -26,-16 -26,-32l0 -366 -86 86 0 306c0,29 26,53 55,53l223 0z"/>
   <path class="fil1" d="M6677 10942c-212,-41 -833,172 -1013,212 -179,41 -441,180 17,156 457,-25 1216,-98 1608,-115 392,-16 588,-49 498,0 -89,49 -1192,890 -1510,1119 -319,229 -1013,833 -1094,947 -82,114 -319,449 40,319 360,-131 882,-294 1217,-294 335,0 580,-25 735,-9 155,17 359,-24 147,-65 -212,-41 -661,-81 -1037,-57 -376,25 -947,269 -727,82 221,-188 1176,-1045 1462,-1250 286,-204 976,-784 1057,-816 78,-8 94,8 159,0 66,-8 192,-102 119,-102 -74,0 -106,-13 -147,-13 33,-49 192,-179 86,-171 -107,8 -229,102 -294,163 -119,0 -670,33 -1086,25 -417,-8 -490,32 -294,-33 196,-65 57,-98 57,-98zm4817 1405c90,12 221,0 360,-74 139,-73 351,-256 228,-188 -122,69 -314,136 -453,135 -139,-1 -148,-149 -114,-257 43,-137 -33,-88 -74,42 -50,157 -37,329 53,342zm-1445 530c126,-39 864,-318 551,-563 -159,-125 -292,-86 -551,192 -258,278 -302,502 -253,657 49,155 139,327 523,123 383,-204 547,-490 506,-384 -41,106 -123,473 73,449 196,-25 441,-220 572,-351 131,-131 171,-237 131,-16 -41,220 30,333 155,314 124,-19 359,-207 228,-192 -130,15 -236,29 -196,-159 41,-188 58,-425 -81,-319 -139,106 -294,368 -494,494 -200,127 -323,147 -176,-163 147,-310 253,-392 196,-474 -57,-81 -122,-114 -171,-16 -49,98 -123,245 -507,531 -383,286 -481,306 -555,216 -73,-90 49,-339 49,-339zm172 -294c114,-98 89,-138 196,-163 106,-24 220,29 98,94 -123,65 -286,208 -335,184 -49,-25 41,-115 41,-115zm-1772 13c57,-115 102,-290 -57,-302 -160,-13 -311,44 -621,420 -310,376 -286,727 -184,739 102,12 421,-314 519,-412 98,-98 220,-221 204,-8 -16,212 41,326 204,196 163,-131 245,-213 229,-131 -17,82 0,224 187,224 188,0 343,-114 515,-277 171,-164 253,-315 302,-331 49,-16 114,-73 49,-82 -65,-8 16,-187 -49,-416 -65,-229 -131,-523 -33,-596 98,-74 262,-139 482,-139 221,0 294,-41 237,65 -57,107 -49,123 90,17 139,-106 253,-270 -41,-262 -294,9 -563,58 -768,164 -204,106 -163,408 -130,498 32,90 98,294 98,367 0,74 -66,37 -135,45 -69,8 -163,115 -171,49 -9,-65 -21,-86 -103,-61 -81,24 -375,302 -514,547 -37,66 -402,468 -294,90 65,-229 94,-327 29,-310 -66,16 -135,44 -98,-13 36,-57 53,-81 53,-81zm522 379c-89,180 -81,222 0,262 129,62 536,-300 640,-497 34,-64 -4,-62 0,-127 6,-81 44,-132 -52,-128 -181,9 -513,342 -588,490zm-1282 156c-40,106 -138,318 156,32 293,-286 359,-326 359,-326 0,0 -17,-98 81,-205 98,-106 153,-267 90,-236 -193,96 -631,593 -686,735z"/>
  </g>
 </g>
</svg>
