<?xml version="1.0" encoding="iso-8859-1"?>
<!-- Generator: Adobe Illustrator 18.0.0, SVG Export Plug-In . SVG Version: 6.00 Build 0)  -->
<!DOCTYPE svg PUBLIC "-//W3C//DTD SVG 1.1//EN" "http://www.w3.org/Graphics/SVG/1.1/DTD/svg11.dtd">
<svg version="1.1" id="Capa_1" xmlns="http://www.w3.org/2000/svg" xmlns:xlink="http://www.w3.org/1999/xlink" x="0px" y="0px"
	 viewBox="0 0 304.172 304.172" style="enable-background:new 0 0 304.172 304.172;" xml:space="preserve">
<g>
	<path d="M304.172,100.037c0-28.945-23.548-52.493-52.493-52.493c-23.297,0-43.087,15.26-49.927,36.306H9c-4.971,0-9,4.029-9,9
		v154.778c0,4.971,4.029,9,9,9h251.551c4.971,0,9-4.029,9-9v-98.234C289.723,142.067,304.172,122.709,304.172,100.037z M18,114.577
		l55.662,55.662L18,225.9V114.577z M209.469,131.203L176.9,163.772c-0.035,0.034-0.073,0.063-0.108,0.098
		c-0.035,0.035-0.064,0.073-0.098,0.108l-41.919,41.918L30.729,101.85h168.502C199.606,112.813,203.349,122.935,209.469,131.203z
		 M86.39,182.967l42.021,42.021c1.688,1.688,3.978,2.636,6.364,2.636s4.676-0.948,6.364-2.636l42.022-42.022l55.661,55.661H30.728
		L86.39,182.967z M195.89,170.239l26.597-26.597c8.319,5.588,18.317,8.86,29.064,8.886V225.9L195.89,170.239z M217.186,100.037
		c0-19.02,15.474-34.493,34.493-34.493s34.493,15.474,34.493,34.493s-15.474,34.493-34.493,34.493S217.186,119.057,217.186,100.037z
		"/>
	<path d="M258.728,80.533c0-2.451-1.49-4.655-3.765-5.568c-2.272-0.913-4.875-0.353-6.569,1.418l-9.921,10.361
		c-2.291,2.394-2.209,6.191,0.185,8.483c2.253,2.159,5.755,2.211,8.07,0.208v24.104c0,3.313,2.687,6,6,6s6-2.687,6-6V80.533z"/>
</g>
<g>
</g>
<g>
</g>
<g>
</g>
<g>
</g>
<g>
</g>
<g>
</g>
<g>
</g>
<g>
</g>
<g>
</g>
<g>
</g>
<g>
</g>
<g>
</g>
<g>
</g>
<g>
</g>
<g>
</g>
</svg>
