<svg width="13" height="10" viewBox="0 0 13 10" fill="none" xmlns="http://www.w3.org/2000/svg">
<path fill-rule="evenodd" clip-rule="evenodd" d="M12.9545 4.78703C12.9264 4.71737 12.8818 4.65559 12.8245 4.60703L8.69448 0.677026C8.46298 0.451282 8.09647 0.442556 7.85448 0.657026C7.74307 0.759552 7.67885 0.903473 7.67695 1.05487C7.67506 1.20627 7.73566 1.35175 7.84448 1.45703L7.85448 1.46703L10.9845 4.43703H0.594481C0.386426 4.42459 0.188625 4.52852 0.0808392 4.70691C-0.0269464 4.8853 -0.0269464 5.10875 0.0808392 5.28714C0.188625 5.46553 0.386426 5.56947 0.594481 5.55703H10.9845L7.85448 8.52703C7.74307 8.62955 7.67885 8.77347 7.67695 8.92487C7.67506 9.07627 7.73566 9.22175 7.84448 9.32703C8.07384 9.55207 8.43977 9.55648 8.67448 9.33703C8.68448 9.33703 8.68448 9.32703 8.69448 9.32703L12.8345 5.39703C12.9958 5.23755 13.0434 4.99573 12.9545 4.78703Z" fill="white"/>
</svg>
