<svg width="129" height="24" viewBox="0 0 129 24" fill="none" xmlns="http://www.w3.org/2000/svg">
<path d="M34.1623 18.3672C34.3282 18.3672 34.4762 18.3717 34.6018 18.3851C34.7274 18.3986 34.835 18.412 34.9292 18.4255C35.0234 18.4389 35.1041 18.4569 35.1714 18.4793C35.2387 18.5017 35.3015 18.5197 35.3553 18.5376L35.3643 19.4257H35.2566C35.2566 19.179 35.1714 18.9861 35.0055 18.8471C34.8395 18.708 34.5794 18.6363 34.2251 18.6363C33.9246 18.6363 33.6689 18.717 33.4581 18.883C33.2473 19.0489 33.1442 19.2507 33.1487 19.4884C33.1487 19.5647 33.1576 19.6454 33.1801 19.7261C33.2025 19.8069 33.2384 19.8876 33.2877 19.9639C33.337 20.0401 33.4088 20.1208 33.4985 20.1971L35.3104 21.5964C35.4495 21.7085 35.5482 21.8565 35.6154 22.0315C35.6827 22.2064 35.7186 22.3813 35.7231 22.5562C35.7276 22.8208 35.6603 23.063 35.5168 23.2828C35.3732 23.5025 35.1804 23.6775 34.9382 23.8075C34.696 23.9376 34.4269 24.0004 34.1354 24.0004C33.9605 24.0004 33.7766 23.9869 33.5747 23.9555C33.3729 23.9241 33.189 23.8793 33.0141 23.8165C32.8392 23.7537 32.6957 23.673 32.5835 23.5788C32.5656 23.4936 32.5566 23.3904 32.5566 23.2604C32.5566 23.1303 32.5656 22.9957 32.588 22.8522C32.6105 22.7087 32.6374 22.5786 32.6733 22.4665H32.7809C32.7585 22.7356 32.7943 22.9643 32.8975 23.1572C33.0007 23.3501 33.1487 23.4936 33.346 23.5922C33.5433 23.6909 33.7721 23.7358 34.0367 23.7313C34.409 23.7178 34.7005 23.6236 34.9113 23.4487C35.1221 23.2738 35.2297 23.0361 35.2297 22.7446C35.2297 22.6011 35.2028 22.471 35.1535 22.3544C35.1041 22.2378 35.0189 22.1301 34.9068 22.027L33.1128 20.6456C32.9468 20.5021 32.8302 20.3451 32.7719 20.1702C32.7136 19.9953 32.6822 19.8338 32.6822 19.6768C32.6822 19.4301 32.7495 19.2104 32.8796 19.013C33.0096 18.8157 33.189 18.6587 33.4133 18.5421C33.6375 18.4255 33.8887 18.3672 34.1623 18.3672ZM35.3463 18.4479L35.3553 18.6094H34.7184V18.4479H35.3463Z" fill="#313131"/>
<path d="M51.3223 19.0672H51.2954C51.2909 18.9282 51.2371 18.8161 51.1384 18.7219C51.0397 18.6277 50.9186 18.5829 50.7751 18.5829H50.6675V18.4932H51.3223V19.0672ZM51.3223 23.3011V23.8752H50.6675V23.7855H50.7751C50.9186 23.7855 51.0397 23.7362 51.1384 23.642C51.2371 23.5478 51.2909 23.4312 51.2954 23.3011H51.3223ZM51.8695 18.4932V23.8752H51.2954V18.4932H51.8695ZM55.2691 21.0855V21.3546H51.7708V21.0855H55.2691ZM51.8426 19.0672V18.4932H52.4974V18.5829H52.3897C52.2462 18.5829 52.1251 18.6277 52.022 18.7219C51.9188 18.8161 51.8695 18.9282 51.8695 19.0672H51.8426V19.0672ZM51.8426 23.3011H51.8695C51.8695 23.4312 51.9188 23.5478 52.022 23.642C52.1251 23.7362 52.2462 23.7855 52.3897 23.7855H52.4974V23.8752H51.8426V23.3011ZM55.2063 19.0672H55.1794C55.1749 18.9282 55.1211 18.8161 55.0224 18.7219C54.9238 18.6277 54.8027 18.5829 54.6592 18.5829H54.5515V18.4932H55.2063V19.0672ZM55.2063 23.3011V23.8752H54.5515V23.7855H54.6592C54.8027 23.7855 54.9238 23.7362 55.0224 23.642C55.1211 23.5478 55.1749 23.4312 55.1794 23.3011H55.2063ZM55.7535 18.4932V23.8752H55.1794V18.4932H55.7535ZM55.7266 19.0672V18.4932H56.3814V18.5829H56.2738C56.1302 18.5829 56.0091 18.6277 55.9105 18.7219C55.8118 18.8161 55.758 18.9282 55.7535 19.0672H55.7266V19.0672ZM55.7266 23.3011H55.7535C55.758 23.4312 55.8118 23.5478 55.9105 23.642C56.0091 23.7362 56.1302 23.7855 56.2738 23.7855H56.3814V23.8752H55.7266V23.3011Z" fill="#313131"/>
<path d="M74.1689 18.3672C74.586 18.3672 74.9807 18.4345 75.3485 18.569C75.7162 18.7036 76.0392 18.8964 76.3172 19.1476C76.5953 19.3987 76.8106 19.6948 76.9676 20.0401C77.1245 20.3854 77.2008 20.7667 77.2008 21.1838C77.2008 21.6009 77.1245 21.9821 76.9676 22.3275C76.8106 22.6728 76.5953 22.9688 76.3172 23.22C76.0392 23.4711 75.7162 23.664 75.3485 23.7986C74.9807 23.9331 74.586 24.0004 74.1689 24.0004C73.7518 24.0004 73.3571 23.9331 72.9938 23.7986C72.6305 23.664 72.3076 23.4711 72.0295 23.22C71.7515 22.9688 71.5362 22.6728 71.3792 22.3275C71.2222 21.9821 71.146 21.6009 71.146 21.1838C71.146 20.7667 71.2222 20.3854 71.3792 20.0401C71.5362 19.6948 71.7515 19.3987 72.0295 19.1476C72.3076 18.8964 72.6305 18.7036 72.9938 18.569C73.3571 18.4345 73.7518 18.3672 74.1689 18.3672ZM74.1689 23.7313C74.6129 23.7313 75.0121 23.6236 75.3709 23.4084C75.7297 23.1931 76.0123 22.8926 76.223 22.5114C76.4338 22.1301 76.537 21.6861 76.537 21.1838C76.537 20.677 76.4338 20.233 76.223 19.8517C76.0123 19.4705 75.7297 19.1745 75.3709 18.9592C75.0121 18.7439 74.6129 18.6363 74.1689 18.6363C73.7339 18.6363 73.3347 18.7439 72.9759 18.9592C72.6171 19.1745 72.3345 19.4705 72.1237 19.8517C71.9129 20.233 71.8098 20.677 71.8098 21.1838C71.8098 21.6861 71.9129 22.1301 72.1237 22.5114C72.3345 22.8926 72.6171 23.1931 72.9759 23.4084C73.3347 23.6236 73.7339 23.7313 74.1689 23.7313Z" fill="#313131"/>
<path d="M92.6291 19.0583H92.6112C92.6067 18.9192 92.5529 18.8071 92.4542 18.7174C92.3555 18.6277 92.2344 18.5829 92.0909 18.5829H91.9653V18.4932H92.7457L92.6291 19.0583ZM92.6291 23.3011L92.7457 23.8752H91.9653V23.7855H92.0909C92.2344 23.7855 92.3555 23.7362 92.4542 23.642C92.5529 23.5478 92.6067 23.4312 92.6112 23.3011H92.6291ZM93.1853 18.4932V23.8752H92.6112V18.4932H93.1853ZM93.1584 23.3011H93.1763C93.1808 23.4312 93.2346 23.5478 93.3333 23.642C93.4319 23.7362 93.553 23.7855 93.6966 23.7855C93.701 23.7855 93.7459 23.7855 93.8221 23.7855V23.8752H93.0417L93.1584 23.3011ZM94.0643 18.4932C94.4814 18.4932 94.8447 18.556 95.1497 18.6771C95.4547 18.7981 95.6924 18.9775 95.8583 19.2063C96.0243 19.435 96.1095 19.7086 96.1095 20.027C96.1095 20.3679 96.0332 20.6594 95.8808 20.9016C95.7283 21.1438 95.5264 21.3277 95.2753 21.4578C95.0241 21.5878 94.7461 21.6506 94.4411 21.6461C94.1361 21.6417 93.8311 21.5654 93.5261 21.4174V21.3277C93.7235 21.3636 93.8984 21.3815 94.0554 21.377C94.2123 21.3726 94.3738 21.3456 94.5487 21.2963C94.7236 21.247 94.8851 21.1528 95.0376 21.0138C95.1901 20.8747 95.3112 20.6774 95.4009 20.4217C95.4233 20.3545 95.4412 20.2782 95.4502 20.1885C95.4592 20.0988 95.4637 20.0136 95.4637 19.9373C95.4637 19.5741 95.3381 19.287 95.0869 19.0762C94.8358 18.8654 94.4904 18.7623 94.0464 18.7623H93.1673C93.1359 18.6726 93.1045 18.5829 93.0687 18.4932H94.0643V18.4932Z" fill="#313131"/>
<path d="M0.358802 10.2259H0V6.04582H0.358802C0.358802 7.17156 0.762454 8.12687 1.56976 8.91623C2.37706 9.7056 3.35929 10.1003 4.52091 10.1003C5.0008 10.1003 5.38652 9.96124 5.67804 9.67869C5.96957 9.39613 6.11758 9.02387 6.11758 8.55743C6.11758 8.03268 5.77671 7.58418 5.09499 7.21192C4.72273 7.01906 4.08586 6.71857 3.1754 6.30595C2.26494 5.89332 1.62806 5.54349 1.25581 5.25645C0.515778 4.68237 0.188371 3.9244 0.278072 2.97806C0.367772 2.03172 0.722089 1.30066 1.34551 0.780394C1.96893 0.260131 2.66859 0 3.45347 0C4.23835 0 4.9425 0.103156 5.5704 0.313952C6.19831 0.524748 6.55262 0.627903 6.63784 0.627903C6.87555 0.627903 6.99664 0.417107 6.99664 0H7.35544V3.28304H6.99664C6.99664 2.42191 6.6782 1.71776 6.04582 1.17508C5.41343 0.632389 4.59715 0.358802 3.60596 0.358802C3.16194 0.358802 2.8166 0.488868 2.56544 0.744514C2.31427 1.00465 2.18869 1.2872 2.18869 1.59667C2.18869 1.90614 2.22906 2.14833 2.31427 2.31427C2.39949 2.48022 2.54301 2.63271 2.75381 2.77175C2.9646 2.91078 3.144 3.01842 3.30098 3.10364C3.45796 3.18885 3.70463 3.30098 4.04549 3.4445C4.38636 3.58802 4.62406 3.69118 4.75413 3.74948C5.41343 4.04998 5.79914 4.22489 5.92023 4.27871C6.04133 4.33254 6.21176 4.41775 6.4405 4.53885C6.66923 4.65994 6.83967 4.76758 6.95179 4.86177C7.06392 4.95595 7.21192 5.07705 7.39132 5.22057C7.57072 5.36409 7.70079 5.5121 7.78601 5.6601C7.87122 5.80811 7.95195 5.97854 8.03717 6.1714C8.20311 6.55262 8.2659 7.00112 8.21657 7.5169C8.12238 8.48567 7.7591 9.2257 7.13119 9.73251C6.50329 10.2393 5.65562 10.495 4.59267 10.495C3.63736 10.495 2.68653 10.2483 1.74019 9.75942C1.41727 9.59347 1.17956 9.50826 1.02259 9.50826C0.578568 9.50826 0.358802 9.75045 0.358802 10.2259Z" fill="#313131"/>
<path d="M26.3537 3.22951C26.3537 2.16655 26.1788 1.44895 25.8244 1.08566C25.4701 0.722376 24.8108 0.53849 23.8421 0.53849H23.3039V9.86734H24.5597V10.2261H19.357V9.86734H20.6128V0.53849H20.0746C19.1193 0.53849 18.4645 0.722376 18.1102 1.08566C17.7559 1.44895 17.581 2.16655 17.581 3.22951H17.2222V0.179688H26.7125V3.22951H26.3537Z" fill="#313131"/>
<path d="M46.3569 9.86706V10.2259H41.6386V9.86706H42.6971L41.4951 7.37338H37.8712L36.8307 9.86706H38.2479V10.2259H35.1802V9.86706H36.3822L40.4904 0H40.939L45.4957 9.86706H46.3569ZM38.0327 6.99664H41.3157L39.5576 3.33686L38.0327 6.99664Z" fill="#313131"/>
<path d="M65.6429 10.4055H64.8535C63.36 10.4055 62.3195 10.0826 61.7319 9.43678C61.2655 8.93446 60.9471 8.27067 60.7811 7.44543C60.7093 7.10008 60.6331 6.78165 60.5479 6.4946C60.355 5.84876 59.9693 5.52584 59.3818 5.52584H58.5924V9.86734H59.4894V10.2261H55.0044V9.86734H55.9014V0.53849H55.0044V0.179688H59.7226C62.7725 0.179688 64.2974 1.07221 64.2974 2.85276C64.2974 3.55691 64.0417 4.131 63.5259 4.57501C63.0102 5.01903 62.3554 5.2388 61.5525 5.2388V5.36438C62.75 5.36438 63.5798 6.15374 64.0462 7.73247C64.2839 8.57117 64.5261 9.16319 64.7728 9.51751C65.0195 9.87183 65.3065 10.0467 65.6429 10.0467V10.4055ZM58.5924 0.53849V5.16704C59.7899 5.16704 60.5883 4.99212 60.9964 4.64677C61.4045 4.30143 61.6064 3.71837 61.6064 2.90658C61.6064 2.09479 61.3956 1.4938 60.9785 1.11257C60.5613 0.731346 59.763 0.53849 58.5924 0.53849Z" fill="#313131"/>
<path d="M73.9312 0.53849V0.179688H79.1876V0.53849H78.3085L80.7663 6.08198L81.9145 3.22951L80.7125 0.53849H80.0308V0.179688H84.9464V0.53849H84.1032L86.5072 6.01022L88.4088 0.53849H86.9736V0.179688H90.0593V0.53849H88.8394L85.4846 10.2261H85.054L85.1258 10.0288L85.0361 10.2261L82.1477 3.73183L79.5464 10.2261H79.1158L74.7923 0.53849H73.9312Z" fill="#313131"/>
<path d="M109.524 9.86706V10.2259H104.806V9.86706H105.864L104.662 7.37338H101.038L99.9977 9.86706H101.415V10.2259H98.3472V9.86706H99.5492L103.657 0H104.106L108.663 9.86706H109.524ZM101.2 6.99664H104.483L102.725 3.33686L101.2 6.99664Z" fill="#313131"/>
<path d="M125.366 10.2261H121.24V9.86734H121.957V6.08198L118.746 0.53849H117.813V0.179688H122.836V0.53849H121.957L124.469 5.0594L126.801 0.53849H125.366V0.179688H128.505V0.53849H127.249L124.648 5.5976V9.86734H125.366V10.2261V10.2261Z" fill="#313131"/>
</svg>
