<svg width="68" height="68" viewBox="0 0 68 68" fill="none" xmlns="http://www.w3.org/2000/svg">
<g clip-path="url(#clip0)">
<path d="M28.5129 53.5005C25.2153 53.5005 22.5325 56.1833 22.5325 59.4809C22.5325 62.7785 25.2153 65.4613 28.5129 65.4613C31.8105 65.4613 34.4933 62.7785 34.4933 59.4809C34.4932 56.1833 31.8104 53.5005 28.5129 53.5005ZM28.5129 62.1219C27.0565 62.1219 25.8717 60.9369 25.8717 59.4806C25.8717 58.0242 27.0566 56.8394 28.5129 56.8394C29.9692 56.8394 31.1542 58.0244 31.1542 59.4806C31.1542 60.9372 29.9692 62.1219 28.5129 62.1219Z" fill="#F3C10B"/>
<path d="M49.49 53.5005C46.1924 53.5005 43.5096 56.1833 43.5096 59.4809C43.5096 62.7785 46.1924 65.4613 49.49 65.4613C52.7876 65.4613 55.4704 62.7785 55.4704 59.4809C55.4703 56.1833 52.7875 53.5005 49.49 53.5005ZM49.49 62.1219C48.0336 62.1219 46.8488 60.9369 46.8488 59.4806C46.8488 58.0242 48.0337 56.8394 49.49 56.8394C50.9464 56.8394 52.1313 58.0244 52.1313 59.4806C52.1313 60.9372 50.9463 62.1219 49.49 62.1219Z" fill="#F3C10B"/>
<path d="M50.9624 22.0144H27.0363C26.1142 22.0144 25.3667 22.7619 25.3667 23.684C25.3667 24.6061 26.1143 25.3536 27.0363 25.3536H50.9624C51.8845 25.3536 52.632 24.6061 52.632 23.684C52.632 22.7617 51.8845 22.0144 50.9624 22.0144Z" fill="#F3C10B"/>
<path d="M49.6602 30.6846H28.3387C27.4165 30.6846 26.6691 31.432 26.6691 32.3542C26.6691 33.2763 27.4165 34.0237 28.3387 34.0237H49.66C50.5821 34.0237 51.3296 33.2763 51.3296 32.3542C51.3296 31.4322 50.5821 30.6846 49.6602 30.6846Z" fill="#F3C10B"/>
<path d="M67.2486 14.5754C66.6119 13.7939 65.6683 13.3458 64.6602 13.3458H12.6541L11.6039 8.24727C11.3846 7.1837 10.6592 6.29067 9.66293 5.8581L2.33471 2.67723C1.4887 2.30974 0.505484 2.69795 0.138522 3.5437C-0.228838 4.38972 0.159374 5.37307 1.00499 5.74003L8.33334 8.92103L16.4118 48.1355C16.73 49.6798 18.1054 50.8007 19.6823 50.8007H59.681C60.6031 50.8007 61.3506 50.0533 61.3506 49.1312C61.3506 48.209 60.6031 47.4616 59.681 47.4616H19.6825L18.6998 42.6915H59.9902C61.567 42.6915 62.9425 41.5705 63.2606 40.0262L67.9307 17.3584C68.134 16.3713 67.8854 15.3567 67.2486 14.5754ZM59.9902 39.3525H18.0119L13.3421 16.6849L64.66 16.685L59.9902 39.3525Z" fill="#F3C10B"/>
</g>
<defs>
<clipPath id="clip0">
<rect width="68" height="68" fill="white"/>
</clipPath>
</defs>
</svg>
