<svg width="70" height="70" viewBox="0 0 70 70" fill="none" xmlns="http://www.w3.org/2000/svg">
<g clip-path="url(#clip0)">
<path d="M70 58.4567V49.9295L66.7336 49.0948C66.711 49.0397 66.6884 48.9846 66.6647 48.93L68.3842 46.0319L62.3542 40.0019L59.4561 41.7214C59.4004 41.6977 59.3453 41.6751 59.2913 41.6525L58.4566 38.3872H49.9294L49.0947 41.6536C49.0396 41.6762 48.9845 41.6988 48.9299 41.7225L46.0318 40.003L40.0018 46.033L41.7213 48.9311C41.6976 48.9868 41.675 49.0419 41.6524 49.0959L38.3871 49.9306V58.4578L41.6535 59.2925C41.6761 59.3476 41.6987 59.4028 41.7224 59.4573L40.0029 62.3554L46.0329 68.3854L48.931 66.6659C48.9867 66.6896 49.0418 66.7122 49.0958 66.7348L49.9305 70.0001H58.4577L59.2924 66.7337C59.3475 66.7111 59.4026 66.6885 59.4572 66.6648L62.3553 68.3843L68.3853 62.3543L66.6658 59.4562C66.6895 59.4005 66.7121 59.3454 66.7347 59.2914L70 58.4567ZM65.5484 61.9988L61.9986 65.5485L59.5857 64.1168L59.0427 64.3764C58.6926 64.5424 58.3348 64.6923 57.9665 64.8224L57.3976 65.0242L56.7047 67.742H51.6835L50.9906 65.0242L50.4217 64.8224C50.0534 64.6934 49.6945 64.5435 49.3455 64.3764L48.8025 64.1168L46.3896 65.5485L42.8398 61.9988L44.2715 59.5858L44.0119 59.0428C43.8459 58.6927 43.696 58.3349 43.5659 57.9667L43.3641 57.3977L40.6452 56.7048V51.6837L43.363 50.9907L43.5648 50.4218C43.6938 50.0535 43.8437 49.6946 44.0108 49.3457L44.2704 48.8026L42.8387 46.3897L46.3885 42.8399L48.8014 44.2716L49.3444 44.012C49.6945 43.846 50.0523 43.6961 50.4206 43.566L50.9895 43.3642L51.6824 40.6453H56.7036L57.3965 43.3631L57.9654 43.5649C58.3337 43.6939 58.6926 43.8438 59.0416 44.0109L59.5846 44.2705L61.9975 42.8388L65.5473 46.3886L64.1156 48.8015L64.3752 49.3446C64.5412 49.6946 64.6911 50.0524 64.8212 50.4207L65.023 50.9896L67.7419 51.6826V56.7037L65.0241 57.3966L64.8223 57.9656C64.6933 58.3338 64.5434 58.6927 64.3763 59.0417L64.1167 59.5847L65.5484 61.9988Z" fill="#F3C10B"/>
<path d="M54.1935 45.1614C49.2132 45.1614 45.1613 49.2133 45.1613 54.1936C45.1613 59.1739 49.2132 63.2259 54.1935 63.2259C59.1739 63.2259 63.2258 59.1739 63.2258 54.1936C63.2258 49.2133 59.1739 45.1614 54.1935 45.1614ZM54.1935 60.9678C50.4575 60.9678 47.4193 57.9297 47.4193 54.1936C47.4193 50.4576 50.4575 47.4194 54.1935 47.4194C57.9296 47.4194 60.9677 50.4576 60.9677 54.1936C60.9677 57.9297 57.9296 60.9678 54.1935 60.9678Z" fill="#F3C10B"/>
<path d="M54.1935 49.6775C51.7028 49.6775 49.6774 51.7029 49.6774 54.1936C49.6774 56.6843 51.7028 58.7098 54.1935 58.7098C56.6842 58.7098 58.7097 56.6843 58.7097 54.1936C58.7097 51.7029 56.6842 49.6775 54.1935 49.6775ZM54.1935 56.4517C52.9482 56.4517 51.9355 55.439 51.9355 54.1936C51.9355 52.9483 52.9482 51.9356 54.1935 51.9356C55.4389 51.9356 56.4516 52.9483 56.4516 54.1936C56.4516 55.439 55.4389 56.4517 54.1935 56.4517Z" fill="#F3C10B"/>
<path d="M28.593 19.1169C28.9711 20.2256 29.6294 21.203 30.4839 21.9709V22.9285L25.1155 24.9412C22.9241 25.7621 21.4516 27.8862 21.4516 30.2264V36.129H48.5484V30.2264C48.5484 27.8862 47.0759 25.7621 44.8856 24.9401L39.5161 22.9274V21.9709C40.3706 21.2041 41.0289 20.2267 41.407 19.1169C43.5344 18.752 45.1613 16.9063 45.1613 14.6774V10.1613C45.1613 4.55913 40.6033 0 35 0C29.3967 0 24.8387 4.55913 24.8387 10.1613V14.6774C24.8387 16.9063 26.4656 18.752 28.593 19.1169ZM37.2581 23.3971L35 27.1602L32.7419 23.3971V23.3144C33.4498 23.5663 34.2073 23.7097 35 23.7097C35.7927 23.7097 36.5502 23.5652 37.2581 23.3144V23.3971ZM31.1283 25.0973L33.4046 28.8896L31.1432 30.0197L29.6823 25.6392L31.1283 25.0973ZM46.2903 30.2264V33.871H23.7097V30.2264C23.7097 28.8217 24.5928 27.5483 25.9077 27.0549L27.5676 26.433L29.8245 33.205L35 30.6173L40.1755 33.205L42.4324 26.433L44.0935 27.056C45.4072 27.5483 46.2903 28.8217 46.2903 30.2264ZM40.3177 25.6392L38.8568 30.0208L36.5954 28.8907L38.8717 25.0973L40.3177 25.6392ZM35 21.4516C32.5093 21.4516 30.4839 19.4262 30.4839 16.9355V12.3427C32.1366 12.1685 33.6962 11.566 35 10.5406C36.3038 11.5671 37.8634 12.1685 39.5161 12.3427V16.9355C39.5161 19.4262 37.4907 21.4516 35 21.4516ZM41.7742 16.6218V12.7341C42.4462 13.1261 42.9032 13.8466 42.9032 14.6785C42.9032 15.5104 42.4462 16.2298 41.7742 16.6218ZM35 2.25806C39.3568 2.25806 42.9032 5.80338 42.9032 10.1613V10.7892C42.2362 10.4005 41.4715 10.1613 40.6452 10.1613H40.4511C38.6931 10.1613 37.0403 9.47715 35.7983 8.234L35 7.43463L34.2017 8.234C32.9586 9.47715 31.3069 10.1613 29.5489 10.1613H29.3548C28.5285 10.1613 27.7638 10.4005 27.0968 10.7892V10.1613C27.0968 5.80338 30.6432 2.25806 35 2.25806ZM28.2258 12.733V16.6207C27.5538 16.2287 27.0968 15.5082 27.0968 14.6763C27.0968 13.8444 27.5538 13.125 28.2258 12.733Z" fill="#F3C10B"/>
<path d="M0 70.0001H22.5806V40.6453H0V70.0001ZM2.25806 42.9033H20.3226V67.742H2.25806V42.9033Z" fill="#F3C10B"/>
<path d="M4.51614 45.1614H18.0645V47.4194H4.51614V45.1614Z" fill="#F3C10B"/>
<path d="M4.51614 49.6775H6.77421V51.9356H4.51614V49.6775Z" fill="#F3C10B"/>
<path d="M9.03226 49.6775H18.0645V51.9356H9.03226V49.6775Z" fill="#F3C10B"/>
<path d="M4.51614 54.1936H18.0645V56.4517H4.51614V54.1936Z" fill="#F3C10B"/>
<path d="M4.51614 58.7097H18.0645V60.9678H4.51614V58.7097Z" fill="#F3C10B"/>
<path d="M15.8065 63.2258H18.0645V65.4839H15.8065V63.2258Z" fill="#F3C10B"/>
<path d="M4.51614 63.2258H13.5484V65.4839H4.51614V63.2258Z" fill="#F3C10B"/>
<path d="M30.1531 50.4757L28.5566 48.8792L23.2422 54.1935L28.5566 59.5079L30.1531 57.9114L27.5643 55.3226H36.129V53.0645H27.5643L30.1531 50.4757Z" fill="#F3C10B"/>
<path d="M12.4194 18.0644C12.4194 17.4425 12.9254 16.9354 13.5484 16.9354H18.7261L16.1372 19.5242L17.7337 21.1207L23.0481 15.8063L17.7337 10.4919L16.1372 12.0885L18.7261 14.6773H13.5484C11.6812 14.6773 10.1613 16.1972 10.1613 18.0644V38.387H12.4194V18.0644Z" fill="#F3C10B"/>
<path d="M54.1935 18.0646V32.2745L51.6047 29.6857L50.0082 31.2822L55.3226 36.5966L60.637 31.2822L59.0404 29.6857L56.4516 32.2745V18.0646C56.4516 16.1974 54.9317 14.6775 53.0645 14.6775H47.4194V16.9356H53.0645C53.6875 16.9356 54.1935 17.4427 54.1935 18.0646Z" fill="#F3C10B"/>
</g>
<defs>
<clipPath id="clip0">
<rect width="70" height="70" fill="white"/>
</clipPath>
</defs>
</svg>
