<svg width="70" height="70" viewBox="0 0 70 70" fill="none" xmlns="http://www.w3.org/2000/svg">
<path d="M60.9677 6.77417V31.6129H70V6.77417H60.9677ZM67.7419 29.3548H63.2258V9.03223H67.7419V29.3548Z" fill="#F3C10B"/>
<path d="M49.6774 18.1954C48.9548 17.5496 48.2018 16.9445 47.4194 16.3833V15.8064H46.5692C42.1694 12.8958 36.9679 11.2903 31.6129 11.2903H30.4839V39.5161H58.7097V38.3871C58.7097 36.0929 58.406 33.8235 57.8358 31.6129H58.7097V11.2903H49.6774V18.1954ZM32.7419 37.258V13.5732C35.9371 13.72 39.0498 14.4956 41.9198 15.8064H38.3871V31.6129H47.4194V19.2692C48.2097 19.9217 48.9684 20.6138 49.6774 21.3658V31.6129H55.4987C56.0203 33.4543 56.3398 35.3443 56.4268 37.258H32.7419ZM45.1613 18.0645V29.3548H40.6452V18.0645H45.1613ZM51.9355 13.5483H56.4516V29.3548H51.9355V13.5483Z" fill="#F3C10B"/>
<path d="M18.3944 34.2017L8.79843 43.7976L10.3951 45.3943L19.991 35.7984L18.3944 34.2017Z" fill="#F3C10B"/>
<path d="M13.5484 34.9999C13.5484 33.1325 12.0287 31.6128 10.1613 31.6128C8.29388 31.6128 6.7742 33.1325 6.7742 34.9999C6.7742 36.8673 8.29388 38.387 10.1613 38.387C12.0287 38.387 13.5484 36.8673 13.5484 34.9999ZM9.03226 34.9999C9.03226 34.3767 9.53807 33.8709 10.1613 33.8709C10.7845 33.8709 11.2903 34.3767 11.2903 34.9999C11.2903 35.6231 10.7845 36.1289 10.1613 36.1289C9.53807 36.1289 9.03226 35.6231 9.03226 34.9999Z" fill="#F3C10B"/>
<path d="M19.1936 40.6453C17.3261 40.6453 15.8065 42.1649 15.8065 44.0324C15.8065 45.8998 17.3261 47.4195 19.1936 47.4195C21.061 47.4195 22.5807 45.8998 22.5807 44.0324C22.5807 42.1649 21.061 40.6453 19.1936 40.6453ZM19.1936 45.1614C18.5703 45.1614 18.0645 44.6556 18.0645 44.0324C18.0645 43.4091 18.5703 42.9033 19.1936 42.9033C19.8168 42.9033 20.3226 43.4091 20.3226 44.0324C20.3226 44.6556 19.8168 45.1614 19.1936 45.1614Z" fill="#F3C10B"/>
<path d="M49.516 58.0808C52.5666 53.5861 54.1935 48.3666 54.1935 42.9032V41.7742H28.2258V15.8065H27.0968C25.9813 15.8065 24.8466 15.9047 23.7097 16.0481V0H0V15.8065H14.21L16.415 18.0115C6.53145 22.2555 0 32.0397 0 42.9032C0 57.8437 12.1563 70 27.0968 70C33.6485 70 39.8898 67.6313 44.8215 63.3534L48.3147 66.8466C49.0011 67.5331 49.9044 67.8774 50.8065 67.8774C51.7085 67.8774 52.6118 67.5331 53.2982 66.8466C54.6723 65.4726 54.6723 63.2371 53.2982 61.8631L49.516 58.0808ZM15.1448 13.5484H2.25806V2.25806H21.4516V19.8552L15.1448 13.5484ZM27.0968 67.7419C13.4005 67.7419 2.25806 56.5995 2.25806 42.9032C2.25806 32.6392 8.62129 23.4308 18.1515 19.7479L23.7097 25.3061V18.3129C24.465 18.209 25.2203 18.1255 25.9677 18.0905V44.0323H51.9106C51.7131 48.4863 50.33 52.7348 47.8935 56.4584L46.0927 54.6576C46.2169 54.1461 46.2903 53.6144 46.2903 53.0645C46.2903 49.3285 43.2521 46.2903 39.5161 46.2903C35.7802 46.2903 32.7419 49.3285 32.7419 53.0645C32.7419 56.8005 35.7802 59.8387 39.5161 59.8387C40.066 59.8387 40.5977 59.7653 41.1092 59.6411L43.2205 61.7524C38.7202 65.6092 33.049 67.7419 27.0968 67.7419ZM44.0323 53.0645C44.0323 55.5552 42.0068 57.5806 39.5161 57.5806C37.0255 57.5806 35 55.5552 35 53.0645C35 50.5739 37.0255 48.5484 39.5161 48.5484C42.0068 48.5484 44.0323 50.5739 44.0323 53.0645ZM51.7018 65.2502C51.2073 65.7447 50.4056 65.7447 49.9111 65.2502L43.3244 58.6634C44.0277 58.1835 44.6352 57.5761 45.115 56.8727L51.7018 63.4595C52.1952 63.954 52.1952 64.7556 51.7018 65.2502Z" fill="#F3C10B"/>
<path d="M19.1936 4.51611H4.51614V6.77418H19.1936V4.51611Z" fill="#F3C10B"/>
<path d="M19.1936 9.03223H4.51614V11.2903H19.1936V9.03223Z" fill="#F3C10B"/>
<path d="M40.6452 51.9355H38.3871V54.1936H40.6452V51.9355Z" fill="#F3C10B"/>
<path d="M30.4839 51.9355H28.2258V54.1936H30.4839V51.9355Z" fill="#F3C10B"/>
<path d="M25.9677 51.9355H23.7097V54.1936H25.9677V51.9355Z" fill="#F3C10B"/>
<path d="M21.4516 51.9355H19.1935V54.1936H21.4516V51.9355Z" fill="#F3C10B"/>
</svg>
