<svg width="70" height="70" viewBox="0 0 70 70" fill="none" xmlns="http://www.w3.org/2000/svg">
<g clip-path="url(#clip0)">
<path d="M45.0092 47.9636V46.7448C45.3536 46.4666 45.6848 46.1618 46.0028 45.8439C48.5487 43.0407 50.1517 39.5101 50.5868 35.7486C52.8748 35.4 54.937 34.1738 56.3366 32.3305C58.2576 29.6146 58.4298 25.7063 56.8268 20.8044C56.7325 20.5217 56.5459 20.2789 56.2968 20.1154L55.5682 19.6253C55.6756 15.2023 54.1471 10.8952 51.2757 7.52945C47.7119 3.51517 42.2403 1.48817 34.9934 1.46167C27.7597 1.46167 22.2749 3.51517 18.7111 7.47645C15.8396 10.8422 14.3111 15.1493 14.4186 19.5723L13.6899 20.0625C13.4409 20.2259 13.2542 20.4687 13.16 20.7514C11.5569 25.6798 11.7292 29.5616 13.6502 32.2775C15.0444 34.1338 17.1067 35.374 19.4 35.7353C19.8369 39.5028 21.4449 43.0384 23.9972 45.8439C24.3127 46.1612 24.6442 46.4619 24.9908 46.7448V47.9636C19.9167 48.944 -0.340149 53.7002 0.0043102 67.2136C0.0043102 67.9452 0.597508 68.5384 1.32915 68.5384H68.6708C69.4025 68.5384 69.9957 67.9452 69.9957 67.2136C70.3401 53.7002 50.0833 48.944 45.0092 47.9636ZM18.6051 32.7809C17.4793 32.4029 16.4981 31.6856 15.7964 30.7274L15.8627 30.7407C14.5378 28.8064 14.4186 25.8785 15.5977 22.01L16.5648 21.3608C16.9717 21.0892 17.1958 20.6156 17.1478 20.1287C16.9249 16.1691 18.2128 12.2722 20.7513 9.22524C23.7455 5.83365 28.5546 4.13785 34.9934 4.11135C41.4321 4.08486 46.2413 5.83365 49.2884 9.22524C51.827 12.2722 53.1149 16.1691 52.892 20.1287C52.844 20.6156 53.068 21.0892 53.4749 21.3608L54.442 22.01C55.6212 25.8653 55.5417 28.8064 54.1771 30.7407C53.4706 31.6997 52.4851 32.4169 51.3552 32.7942C52.9533 30.9758 53.7341 28.5809 53.5147 26.17C53.2664 24.7194 52.5103 23.4047 51.3817 22.4604C50.812 9.212 41.5248 7.72817 37.5238 7.72817C36.6769 7.72569 35.831 7.78779 34.9934 7.91365C34.1559 7.78762 33.3098 7.72569 32.4629 7.72817C28.4884 7.72817 19.2145 9.1855 18.6051 22.4604C17.4692 23.3971 16.7038 24.7073 16.4456 26.1567C16.2247 28.5678 17.0057 30.9634 18.6051 32.7809ZM48.7452 21.9172C43.186 22.2385 37.6616 20.8516 32.9134 17.9427C32.376 17.5653 31.6432 17.6387 31.1911 18.1149C28.5414 20.9633 23.7057 21.6258 21.374 21.7715C22.0894 12.4049 27.7597 10.3646 32.5292 10.3646C33.2883 10.3591 34.0464 10.4212 34.7946 10.5501C34.9695 10.5859 35.1497 10.5859 35.3246 10.5501C36.0728 10.4216 36.8309 10.3595 37.5901 10.3646C42.3197 10.3646 48.0166 12.4579 48.679 21.904L48.7452 21.9172ZM21.8377 33.0327L21.8907 33.0459C21.8935 32.7193 21.7756 32.4032 21.5595 32.1583C19.7444 30.0783 18.9098 28.1837 19.135 26.6204C19.243 25.7497 19.6731 24.951 20.3406 24.3814C22.0894 24.3814 28.2897 24.0502 32.2642 20.6189C36.7403 23.1922 41.8069 24.5616 46.9699 24.5934C47.8576 24.5934 48.7585 24.5934 49.6991 24.4477C50.3485 25.0021 50.7726 25.7748 50.8915 26.6204C51.1167 28.1572 50.282 30.0783 48.467 32.1583C48.2509 32.4032 48.133 32.7193 48.1358 33.0459C48.1358 33.0459 48.1358 33.3109 48.1358 33.7348L40.4252 37.8683C38.895 36.4196 36.48 36.4857 35.0313 38.0159C33.5826 39.5461 33.6487 41.9611 35.1789 43.4098C36.709 44.8585 39.1241 44.7924 40.5728 43.2623C41.2441 42.5531 41.6181 41.6137 41.6176 40.6372C41.6235 40.518 41.6235 40.3988 41.6176 40.2795L47.6986 37.0204C47.1766 39.6329 45.9487 42.0522 44.148 44.0156C41.7994 46.2768 38.6203 47.466 35.3643 47.3012H34.7019C31.4529 47.4625 28.2807 46.2791 25.9315 44.0288C21.745 39.8556 21.8377 33.0989 21.8377 33.0327ZM38.9679 40.6372C38.9679 41.2884 38.44 41.8164 37.7888 41.8164C37.1376 41.8164 36.6097 41.2884 36.6097 40.6372C36.6097 39.9861 37.1376 39.4581 37.7888 39.4581C38.44 39.4581 38.9679 39.9861 38.9679 40.6372ZM33.6685 65.8092H2.69374C3.74036 55.8597 19.9167 51.6997 24.9776 50.6266V52.998C24.9776 56.0054 28.6341 58.2974 33.6685 58.6816V65.8092V65.8092ZM27.6273 52.998V52.9583V48.4273C29.8295 49.4486 32.2351 49.956 34.6622 49.9111H35.3246C37.7517 49.956 40.1573 49.4486 42.3595 48.4273V52.998C42.3595 54.2566 39.4846 56.0717 34.9934 56.0717C30.5022 56.0717 27.6273 54.2566 27.6273 52.998ZM36.3182 65.849V58.6683C41.3526 58.3239 45.0092 56.0187 45.0092 52.9848V50.6663C50.1098 51.7262 66.2066 55.8862 67.293 65.849H36.3182Z" fill="#F3C10B"/>
</g>
<defs>
<clipPath id="clip0">
<rect width="70" height="70" fill="white"/>
</clipPath>
</defs>
</svg>
