<svg width="70" height="70" viewBox="0 0 70 70" fill="none" xmlns="http://www.w3.org/2000/svg">
<path d="M8.14645 8.16255V68.7987C8.14645 69.4428 8.66856 69.9649 9.31266 69.9649H53.6238C54.2674 69.9649 54.7895 69.4428 54.7895 68.7987V19.8237C54.7895 19.7977 54.777 19.7757 54.7746 19.7502C54.7689 19.6479 54.7487 19.547 54.7151 19.4505C54.7021 19.413 54.693 19.377 54.6766 19.3405C54.62 19.2137 54.5412 19.0979 54.4432 18.999L42.7826 7.33833C42.6836 7.23987 42.5674 7.16109 42.4396 7.1049C42.4046 7.09001 42.369 7.07752 42.3325 7.06647C42.235 7.03285 42.1337 7.01268 42.0304 7.00595C42.0107 7.00931 41.9876 6.99683 41.9631 6.99683H9.31266C8.66856 6.99683 8.14645 7.51845 8.14645 8.16255ZM50.8087 18.6575H43.1289V10.9777L50.8087 18.6575ZM10.4784 9.32876H40.7969V19.8237C40.7969 20.4673 41.319 20.9894 41.9627 20.9894H52.4576V67.633H10.4784V9.32876Z" fill="#F3C10B"/>
<path d="M57.1219 60.6361V62.9681H60.6201C61.2642 62.9681 61.7863 62.4464 61.7863 61.8023V1.16621C61.7863 0.522104 61.2642 0 60.6201 0H16.309C15.6649 0 15.1428 0.522104 15.1428 1.16621V4.66435H17.4752V2.33194H59.4539V60.6361H57.1219Z" fill="#F3C10B"/>
<path d="M17.4752 23.3218H45.4608V25.6537H17.4752V23.3218Z" fill="#F3C10B"/>
<path d="M17.4752 16.325H26.8039V18.6574H17.4752V16.325Z" fill="#F3C10B"/>
<path d="M17.4752 30.3179H36.1326V32.6503H17.4752V30.3179Z" fill="#F3C10B"/>
<path d="M38.4645 30.3179H45.4608V32.6503H38.4645V30.3179Z" fill="#F3C10B"/>
<path d="M17.4752 37.3142H45.4608V39.6466H17.4752V37.3142Z" fill="#F3C10B"/>
<path d="M17.4752 51.3076H45.4608V53.6401H17.4752V51.3076Z" fill="#F3C10B"/>
<path d="M27.9696 44.3113H45.4608V46.6432H27.9696V44.3113Z" fill="#F3C10B"/>
<path d="M17.4752 44.3113H25.6377V46.6432H17.4752V44.3113Z" fill="#F3C10B"/>
<path d="M17.4752 58.3042H22.1395V60.6361H17.4752V58.3042Z" fill="#F3C10B"/>
<path d="M24.4715 58.3042H45.4608V60.6361H24.4715V58.3042Z" fill="#F3C10B"/>
</svg>
