<svg width="16" height="16" viewBox="0 0 16 16" fill="none" xmlns="http://www.w3.org/2000/svg">
<path d="M12.6377 11.058V13.1667C12.6377 13.9951 11.9661 14.6667 11.1377 14.6667H4.86236C4.03393 14.6667 3.36236 13.9951 3.36236 13.1667V11.058M12.6377 11.058V8.57975C12.6377 8.57975 14.6667 8.00004 14.6667 5.6812C14.6667 3.94207 12.6377 2.20294 10.8986 2.78265C10.8986 2.78265 9.73917 1.33337 8.00004 1.33337C6.26091 1.33337 5.10149 2.78265 5.10149 2.78265C3.36236 2.20294 1.33337 3.94207 1.33337 5.6812C1.33337 8.00004 3.36236 8.57975 3.36236 8.57975V11.058M12.6377 11.058H3.36236" stroke="#65BF4F" stroke-width="1.5" stroke-linecap="round" stroke-linejoin="round"/>
<path d="M12.6377 11.058V13.1667C12.6377 13.9951 11.9661 14.6667 11.1377 14.6667H4.86236C4.03393 14.6667 3.36236 13.9951 3.36236 13.1667V11.058M12.6377 11.058V8.57975C12.6377 8.57975 14.6667 8.00004 14.6667 5.6812C14.6667 3.94207 12.6377 2.20294 10.8986 2.78265C10.8986 2.78265 9.73917 1.33337 8.00004 1.33337C6.26091 1.33337 5.10149 2.78265 5.10149 2.78265C3.36236 2.20294 1.33337 3.94207 1.33337 5.6812C1.33337 8.00004 3.36236 8.57975 3.36236 8.57975V11.058M12.6377 11.058H3.36236" stroke="#A1A75C" stroke-width="1.5" stroke-linecap="round" stroke-linejoin="round"/>
</svg>
