<svg width="24" height="24" viewBox="0 0 24 24" fill="none" xmlns="http://www.w3.org/2000/svg">
<path d="M12 17.5C17.5228 17.5 22 14.8137 22 11.5C22 8.18629 17.5228 5.5 12 5.5C6.47715 5.5 2 8.18629 2 11.5C2 14.8137 6.47715 17.5 12 17.5Z" stroke="#6D7077" stroke-width="1.5"/>
<path d="M19 15.5C18.5 17.5 15.3827 19.5 12 19.5C8.61726 19.5 5.5 17.5 5 15.5" stroke="#6D7077" stroke-width="1.5"/>
<path d="M18.1156 12.6439C17.8758 14.2608 16.397 14.996 13.7171 14.9836C10.2941 14.9679 8.81474 12.9169 9.05455 11.3C9.29436 9.68304 11.5171 8.67309 14.0193 9.04419C16.5214 9.41529 18.3554 11.0269 18.1156 12.6439Z" stroke="#6D7077" stroke-width="1.5"/>
<path d="M9.01073 10.7784C7.09311 10.5351 5.42761 11.2123 5.29072 12.291C5.15384 13.3698 6.59741 14.4415 8.51502 14.6848C9.3956 14.7966 10.223 14.7142 10.8737 14.488" stroke="#6D7077" stroke-width="1.5" stroke-linecap="round"/>
</svg>
