<svg width="40" height="40" viewBox="0 0 40 40" fill="none" xmlns="http://www.w3.org/2000/svg">
<rect x="0.5" y="0.5" width="39" height="39" rx="19.5" fill="#65BF4F"/>
<rect x="0.5" y="0.5" width="39" height="39" rx="19.5" fill="#A1A75C"/>
<rect x="0.5" y="0.5" width="39" height="39" rx="19.5" stroke="#65BF4F"/>
<rect x="0.5" y="0.5" width="39" height="39" rx="19.5" stroke="#A1A75C"/>
<g clip-path="url(#clip0)">
<path d="M18.278 22.1207L18.0133 25.8433C18.392 25.8433 18.556 25.6807 18.7527 25.4853L20.528 23.7887L24.2067 26.4827C24.8813 26.8587 25.3567 26.6607 25.5387 25.862L27.9533 14.5473L27.954 14.5467C28.168 13.5493 27.5933 13.1593 26.936 13.404L12.7427 18.838C11.774 19.214 11.7887 19.754 12.578 19.9987L16.2067 21.1273L24.6353 15.8533C25.032 15.5907 25.3927 15.736 25.096 15.9987L18.278 22.1207Z" fill="white"/>
</g>
<defs>
<clipPath id="clip0">
<rect width="16" height="16" fill="white" transform="translate(12 12)"/>
</clipPath>
</defs>
</svg>
