<svg width="40" height="40" viewBox="0 0 40 40" fill="none" xmlns="http://www.w3.org/2000/svg">
<rect x="0.5" y="0.5" width="39" height="39" rx="19.5" fill="white" stroke="#F0F1EE"/>
<path d="M17.3341 20.5C17.3341 18.7512 18.7515 17.3331 20.5004 17.3331C22.2493 17.3331 23.6674 18.7512 23.6674 20.5C23.6674 22.2488 22.2493 23.6669 20.5004 23.6669C18.7515 23.6669 17.3341 22.2488 17.3341 20.5ZM15.622 20.5C15.622 23.1942 17.8061 25.3781 20.5004 25.3781C23.1947 25.3781 25.3787 23.1942 25.3787 20.5C25.3787 17.8058 23.1947 15.6219 20.5004 15.6219C17.8061 15.6219 15.622 17.8058 15.622 20.5ZM24.4318 15.4284C24.4317 15.6539 24.4985 15.8743 24.6237 16.0619C24.7489 16.2494 24.9269 16.3956 25.1351 16.4819C25.3434 16.5683 25.5726 16.591 25.7938 16.5471C26.015 16.5032 26.2181 16.3947 26.3776 16.2353C26.5371 16.076 26.6458 15.8729 26.6899 15.6518C26.734 15.4306 26.7115 15.2014 26.6253 14.9931C26.5391 14.7847 26.393 14.6066 26.2056 14.4813C26.0182 14.3559 25.7978 14.289 25.5723 14.2889H25.5718C25.2696 14.289 24.9798 14.4091 24.766 14.6228C24.5523 14.8365 24.4321 15.1262 24.4318 15.4284ZM16.6622 28.2328C15.736 28.1906 15.2325 28.0363 14.898 27.906C14.4544 27.7333 14.1379 27.5276 13.8052 27.1954C13.4725 26.8631 13.2665 26.5469 13.0946 26.1034C12.9641 25.769 12.8099 25.2654 12.7678 24.3392C12.7217 23.3378 12.7125 23.037 12.7125 20.5001C12.7125 17.9631 12.7225 17.6631 12.7678 16.6609C12.8099 15.7347 12.9654 15.2321 13.0946 14.8967C13.2672 14.4532 13.4729 14.1367 13.8052 13.804C14.1375 13.4713 14.4537 13.2653 14.898 13.0934C15.2324 12.963 15.736 12.8087 16.6622 12.7666C17.6636 12.7206 17.9645 12.7114 20.5004 12.7114C23.0363 12.7114 23.3374 12.7213 24.3397 12.7666C25.2659 12.8088 25.7685 12.9642 26.1039 13.0934C26.5475 13.2653 26.864 13.4717 27.1967 13.804C27.5294 14.1363 27.7347 14.4532 27.9073 14.8967C28.0378 15.2311 28.192 15.7347 28.2341 16.6609C28.2802 17.6631 28.2894 17.9631 28.2894 20.5001C28.2894 23.037 28.2802 23.337 28.2341 24.3392C28.192 25.2654 28.0369 25.7689 27.9073 26.1034C27.7347 26.5469 27.529 26.8634 27.1967 27.1954C26.8644 27.5273 26.5475 27.7333 26.1039 27.906C25.7695 28.0364 25.2659 28.1907 24.3397 28.2328C23.3383 28.2788 23.0374 28.288 20.5004 28.288C17.9633 28.288 17.6633 28.2788 16.6622 28.2328ZM16.5836 11.0575C15.5722 11.1036 14.8811 11.2639 14.2776 11.4988C13.6525 11.7413 13.1234 12.0667 12.5946 12.5946C12.0659 13.1225 11.7413 13.6524 11.4988 14.2774C11.264 14.8813 11.1036 15.572 11.0575 16.5833C11.0107 17.5963 11 17.9201 11 20.5C11 23.0799 11.0107 23.4037 11.0575 24.4167C11.1036 25.4281 11.264 26.1187 11.4988 26.7226C11.7413 27.3472 12.0659 27.8778 12.5946 28.4054C13.1233 28.9331 13.6525 29.258 14.2776 29.5012C14.8822 29.7361 15.5722 29.8964 16.5836 29.9425C17.5971 29.9885 17.9204 30 20.5004 30C23.0804 30 23.4042 29.9893 24.4172 29.9425C25.4286 29.8964 26.1193 29.7361 26.7232 29.5012C27.3479 29.258 27.8774 28.9333 28.4061 28.4054C28.9349 27.8775 29.2587 27.3472 29.502 26.7226C29.7368 26.1187 29.8979 25.428 29.9432 24.4167C29.9893 23.403 30 23.0799 30 20.5C30 17.9201 29.9893 17.5963 29.9432 16.5833C29.8972 15.5719 29.7368 14.8809 29.502 14.2774C29.2587 13.6528 28.9341 13.1233 28.4061 12.5946C27.8782 12.0658 27.3479 11.7413 26.724 11.4988C26.1193 11.2639 25.4286 11.1028 24.418 11.0575C23.405 11.0115 23.0811 11 20.5011 11C17.9211 11 17.5971 11.0107 16.5836 11.0575Z" fill="#65BF4F"/>
<path d="M17.3341 20.5C17.3341 18.7512 18.7515 17.3331 20.5004 17.3331C22.2493 17.3331 23.6674 18.7512 23.6674 20.5C23.6674 22.2488 22.2493 23.6669 20.5004 23.6669C18.7515 23.6669 17.3341 22.2488 17.3341 20.5ZM15.622 20.5C15.622 23.1942 17.8061 25.3781 20.5004 25.3781C23.1947 25.3781 25.3787 23.1942 25.3787 20.5C25.3787 17.8058 23.1947 15.6219 20.5004 15.6219C17.8061 15.6219 15.622 17.8058 15.622 20.5ZM24.4318 15.4284C24.4317 15.6539 24.4985 15.8743 24.6237 16.0619C24.7489 16.2494 24.9269 16.3956 25.1351 16.4819C25.3434 16.5683 25.5726 16.591 25.7938 16.5471C26.015 16.5032 26.2181 16.3947 26.3776 16.2353C26.5371 16.076 26.6458 15.8729 26.6899 15.6518C26.734 15.4306 26.7115 15.2014 26.6253 14.9931C26.5391 14.7847 26.393 14.6066 26.2056 14.4813C26.0182 14.3559 25.7978 14.289 25.5723 14.2889H25.5718C25.2696 14.289 24.9798 14.4091 24.766 14.6228C24.5523 14.8365 24.4321 15.1262 24.4318 15.4284ZM16.6622 28.2328C15.736 28.1906 15.2325 28.0363 14.898 27.906C14.4544 27.7333 14.1379 27.5276 13.8052 27.1954C13.4725 26.8631 13.2665 26.5469 13.0946 26.1034C12.9641 25.769 12.8099 25.2654 12.7678 24.3392C12.7217 23.3378 12.7125 23.037 12.7125 20.5001C12.7125 17.9631 12.7225 17.6631 12.7678 16.6609C12.8099 15.7347 12.9654 15.2321 13.0946 14.8967C13.2672 14.4532 13.4729 14.1367 13.8052 13.804C14.1375 13.4713 14.4537 13.2653 14.898 13.0934C15.2324 12.963 15.736 12.8087 16.6622 12.7666C17.6636 12.7206 17.9645 12.7114 20.5004 12.7114C23.0363 12.7114 23.3374 12.7213 24.3397 12.7666C25.2659 12.8088 25.7685 12.9642 26.1039 13.0934C26.5475 13.2653 26.864 13.4717 27.1967 13.804C27.5294 14.1363 27.7347 14.4532 27.9073 14.8967C28.0378 15.2311 28.192 15.7347 28.2341 16.6609C28.2802 17.6631 28.2894 17.9631 28.2894 20.5001C28.2894 23.037 28.2802 23.337 28.2341 24.3392C28.192 25.2654 28.0369 25.7689 27.9073 26.1034C27.7347 26.5469 27.529 26.8634 27.1967 27.1954C26.8644 27.5273 26.5475 27.7333 26.1039 27.906C25.7695 28.0364 25.2659 28.1907 24.3397 28.2328C23.3383 28.2788 23.0374 28.288 20.5004 28.288C17.9633 28.288 17.6633 28.2788 16.6622 28.2328ZM16.5836 11.0575C15.5722 11.1036 14.8811 11.2639 14.2776 11.4988C13.6525 11.7413 13.1234 12.0667 12.5946 12.5946C12.0659 13.1225 11.7413 13.6524 11.4988 14.2774C11.264 14.8813 11.1036 15.572 11.0575 16.5833C11.0107 17.5963 11 17.9201 11 20.5C11 23.0799 11.0107 23.4037 11.0575 24.4167C11.1036 25.4281 11.264 26.1187 11.4988 26.7226C11.7413 27.3472 12.0659 27.8778 12.5946 28.4054C13.1233 28.9331 13.6525 29.258 14.2776 29.5012C14.8822 29.7361 15.5722 29.8964 16.5836 29.9425C17.5971 29.9885 17.9204 30 20.5004 30C23.0804 30 23.4042 29.9893 24.4172 29.9425C25.4286 29.8964 26.1193 29.7361 26.7232 29.5012C27.3479 29.258 27.8774 28.9333 28.4061 28.4054C28.9349 27.8775 29.2587 27.3472 29.502 26.7226C29.7368 26.1187 29.8979 25.428 29.9432 24.4167C29.9893 23.403 30 23.0799 30 20.5C30 17.9201 29.9893 17.5963 29.9432 16.5833C29.8972 15.5719 29.7368 14.8809 29.502 14.2774C29.2587 13.6528 28.9341 13.1233 28.4061 12.5946C27.8782 12.0658 27.3479 11.7413 26.724 11.4988C26.1193 11.2639 25.4286 11.1028 24.418 11.0575C23.405 11.0115 23.0811 11 20.5011 11C17.9211 11 17.5971 11.0107 16.5836 11.0575Z" fill="#A1A75C"/>
</svg>
