<svg width="95" height="70" viewBox="0 0 95 70" fill="none" xmlns="http://www.w3.org/2000/svg">
<path d="M26.3593 39.6296C27.6246 36.7525 34.072 25.8438 34.072 23.9258C34.072 23.2664 33.8309 22.5472 33.4996 22.5472C32.9573 22.5472 28.1067 30.5789 24.7926 38.5507C23.3164 38.7905 21.9606 38.9103 20.9363 38.9703C21.5991 37.5317 22.292 36.1831 22.9849 34.8945L23.8285 33.3361C26.2387 28.8708 28.3477 25.7839 28.3477 23.9258C28.3477 23.2664 28.1067 22.5472 27.7753 22.5472C26.8412 22.5472 20.2132 35.434 19.008 38.9703C17.8331 39.1202 16.2967 39.4498 15.1517 39.8095C16.8689 36.2131 17.5619 34.8345 18.044 33.9355C20.3639 29.4701 22.4728 26.3832 22.4728 24.3454C22.4728 23.656 22.2317 22.9368 21.8703 22.9368C21.1773 22.9368 17.4716 29.9496 15.5434 34.0853C13.8562 37.7416 13.7357 38.251 13.5549 38.7306C13.2537 39.5397 13.2537 39.9293 13.5249 40.4388C13.7357 40.8283 13.9165 41.2779 14.1576 41.5476C14.519 41.9973 14.8505 41.9973 15.4228 41.8474C17.11 41.3978 20.394 40.6785 21.7196 40.6486C23.2561 40.6186 24.4009 40.4987 25.3952 40.4388C25.9676 40.3489 26.1183 40.1691 26.3593 39.6296Z" fill="#71B639"/>
<path d="M45.6712 24.7949C46.0328 24.8549 46.093 24.645 46.0026 24.4053C45.6411 23.4164 44.9783 22.9069 43.7129 22.9369C42.0258 22.9668 38.7117 23.8359 36.2111 23.686C35.9098 23.6561 35.8194 23.776 35.8797 24.0457C36.0604 24.6751 36.3919 25.2744 37.1451 25.5741C34.6143 29.4701 31.6016 35.0443 30.2156 38.7306C29.9145 39.5397 29.9145 39.9293 30.1856 40.4389C30.3965 40.8284 30.5773 41.2779 30.8182 41.5476C31.1797 41.9973 31.5112 41.9973 32.0836 41.8474C33.7707 41.3979 37.0547 40.6186 38.7418 40.6486C39.1033 40.6486 39.1335 40.4687 39.0431 40.199C38.7117 39.3 37.9585 38.8205 36.4822 38.8804C35.247 38.9404 33.2586 39.3599 31.8124 39.8095C32.4451 38.4009 33.2586 36.7526 34.1323 35.0743C35.8194 34.6548 38.079 34.2352 39.7059 34.2352C40.0976 34.2352 40.0976 34.0554 40.0071 33.7856C39.7059 32.8566 39.0431 32.3771 37.5367 32.4371C36.9944 32.467 36.2111 32.527 35.3977 32.6768C36.874 30.0096 38.3502 27.4023 39.5554 25.604C41.3931 25.3044 43.502 24.765 45.6712 24.7949Z" fill="#71B639"/>
<path d="M50.2138 35.7699C52.1924 31.9781 54.2896 28.18 55.4026 26.2334C55.9711 25.234 56.2958 24.3964 56.4457 23.6973C58.0998 23.9625 58.7469 24.7774 58.7469 26.4433C58.7469 30.775 54.5143 35.0314 50.2138 35.7699ZM45.1593 32.6768C45.1593 28.7605 50.2643 24.1216 54.2853 23.64C52.3202 26.8699 49.5977 31.9253 47.7554 35.7996C45.9627 35.5226 45.1593 34.5303 45.1593 32.6768ZM60.886 27.1025C60.886 25.129 59.1341 23.2398 56.5335 23.1225C56.5868 22.5094 56.4894 22.025 56.3066 21.6482C56.1258 21.2886 55.8547 21.2285 55.5835 21.6182C55.4018 21.8793 55.2024 22.1794 54.989 22.5117C54.7025 22.4759 54.3255 22.4573 53.8059 22.4573C48.5637 22.4573 42.8695 26.3533 42.8695 32.1973C42.8695 34.1792 44.0112 36.1183 47.3343 36.6977C46.8052 37.8444 46.3747 38.8526 46.0933 39.6296C45.4305 41.4578 45.7919 42.5066 46.2138 42.9563C46.4548 43.2259 46.5753 43.1959 46.6958 42.8963C47.4577 41.1938 48.5123 39.0634 49.6432 36.87C56.2397 36.8178 60.886 32.3166 60.886 27.1025Z" fill="#71B639"/>
<path d="M60.9766 35.9434C61.0369 38.4009 62.2119 40.2589 63.5676 40.9783C65.1944 41.8474 67.7252 41.8773 69.8642 40.349C71.1296 39.4498 73.0578 37.2022 72.3046 35.1942C72.1539 34.8046 71.8226 34.8046 71.6719 35.1342C69.3823 39.5997 66.1887 41.6076 64.2605 40.0492C62.7842 38.8505 62.483 34.4151 65.1342 30.0395C67.8457 25.5742 72.4251 23.1466 73.2686 24.0457C73.9616 24.765 72.877 26.4732 72.3951 28.0615C71.943 29.56 72.4251 30.489 73.1181 30.9385C73.4796 31.1784 73.6905 30.9985 73.7809 30.7588C74.1123 29.8897 74.5341 28.7209 74.986 27.7918C75.4379 26.8628 75.5283 26.0236 75.2571 25.1546C75.0161 24.4053 74.3231 23.5362 73.6603 22.9668C72.6962 22.1276 71.22 22.2475 69.5931 22.8769C66.2188 24.1656 60.856 29.59 60.9766 35.9434Z" fill="#71B639"/>
<path d="M52.1332 44.5763C50.4568 46.8603 50.0519 47.894 49.5846 49.5619C49.2669 50.6804 49.4051 51.248 49.73 51.5337C49.8817 51.6681 50.0424 51.6221 50.0945 51.4748C51.4545 48.0762 52.0148 47.5549 52.6848 46.1803C53.0831 45.3631 52.8736 44.962 52.6879 44.6134C52.5248 44.2995 52.3028 44.3495 52.1332 44.5763Z" fill="#71B639"/>
<path d="M76.453 44.1506C77.0155 43.6651 77.9438 43.4629 78.0821 44.0304C78.1636 44.3494 78.1106 44.8029 78.0031 45.3678C77.8946 45.915 77.5428 46.8195 77.2687 47.3407C76.3747 49.0534 75.1716 49.7591 74.5747 49.3823C74.0199 49.021 74.2212 47.3517 74.9907 45.9349C75.3753 45.2266 75.9289 44.5976 76.453 44.1506ZM66.6406 50.0956C65.8447 50.1277 66.0097 48.5326 66.992 46.9224C68.0117 45.2559 69.4254 43.9967 70.0809 44.0098C70.6752 44.0265 70.5623 45.15 69.4035 47.2035C68.4642 48.8469 67.4773 50.0613 66.6406 50.0956ZM81.0991 39.0153C81.7161 38.4184 81.8404 37.4744 81.6908 37.0516C81.6161 36.8401 81.4938 36.8478 81.3816 37.0168C80.7695 38.0096 79.7621 38.577 78.9119 39.0446C76.2845 40.4866 75.1332 42.0161 73.5815 45.5825C73.202 46.3422 72.9901 47.1134 73.0165 47.8081C72.3805 48.9119 71.4933 49.9043 70.7661 49.9813C70.0755 50.0605 70.0471 49.288 70.4928 48.2517C70.9217 47.2703 71.8552 45.8613 72.2525 45.0261C72.6848 44.0986 72.473 43.3375 72.1469 43.0338C71.994 42.8813 71.8332 42.9275 71.6645 43.1722C71.4586 43.4732 71.2379 43.8652 71.0002 44.3122C70.9968 43.6102 70.5517 43.0439 69.6754 43.0988C68.6565 43.1626 67.0979 44.0706 65.5812 46.2906C64.8982 47.2913 64.6184 48.2873 64.6798 49.0796C64.1473 49.8195 63.5646 50.373 63.02 50.4307C62.2275 50.5164 62.1085 49.9296 62.5101 48.842L63.8792 44.9387C64.1043 44.2943 64.0407 43.6141 63.7146 43.3103C63.5402 43.1412 63.1961 43.1987 63.0082 43.4627L61.0537 46.5203C59.1004 49.5959 58.1701 50.7346 57.6403 50.7679C57.3841 50.784 57.2729 50.4986 57.2898 50.1036C57.5182 49.825 57.6963 49.5408 57.8332 49.2972C58.1107 48.8297 58.1241 48.3966 58.0086 48.1878C57.893 47.9789 57.7108 48.0083 57.6021 48.2314C57.535 48.3742 57.4601 48.5215 57.3792 48.6701C57.133 48.7488 56.8143 48.9738 56.707 49.2779C56.6305 49.4858 56.5686 49.7089 56.5338 49.9283C56.0955 50.4493 55.6166 50.8235 55.1878 50.8136C54.409 50.7903 53.7737 49.8037 53.599 48.338C55.7487 47.3931 56.6111 46.4746 57.2538 45.3179C57.6579 44.5902 57.2172 43.7716 56.6843 44.3991C55.4663 45.8441 54.2033 46.8957 52.5063 47.5602C52.127 47.71 52.0886 47.7484 52.109 48.0714C52.2217 50.4952 53.4888 51.4423 54.9162 51.3708C55.6049 51.3353 56.1563 51.0938 56.5973 50.7684C56.7444 51.1045 57.0829 51.3251 57.7342 51.2842C58.8346 51.2152 60.0841 49.9485 61.6324 46.9343L61.7965 46.942C60.2224 50.1919 60.9359 51.1196 62.8106 51.0021C63.569 50.9546 64.3446 50.5269 64.9322 49.9527C65.2207 50.4548 65.7406 50.7465 66.454 50.7017C67.432 50.6404 68.3072 49.9192 68.9125 49.1431C68.9659 49.986 69.573 50.5242 70.6767 50.5091C71.6505 50.4948 72.6963 49.6922 73.2627 48.8151C73.3614 49.0141 73.4891 49.2003 73.6532 49.3682C74.5275 50.2496 75.5508 50.2575 76.2709 49.9964C77.7504 49.4535 78.9817 47.5756 79.2508 46.0101C79.3402 45.4822 79.3118 45.3579 79.3231 45.2132C79.3636 43.9142 78.7443 43.8269 78.2404 43.3002C77.8022 42.8415 77.4456 42.7017 76.816 42.7772C76.3893 42.8292 75.9681 43.0022 75.5704 43.2568C76.7646 40.9647 79.9545 40.1584 81.0991 39.0153Z" fill="#71B639"/>
<path d="M29.9669 18.5313C30.0184 18.5417 30.0699 18.5522 30.1215 18.5627C30.3777 18.615 30.6409 18.5276 30.8179 18.336C35.3486 13.4353 41.8437 10.3586 49.0487 10.3586C56.0145 10.3586 62.317 13.2345 66.822 17.8542C67.0689 18.1074 67.4608 18.1455 67.7584 17.9538C67.7602 17.9527 67.7619 17.9515 67.7637 17.9504C67.7973 17.9288 67.831 17.9072 67.8648 17.8856C68.258 17.6341 68.3266 17.0874 68.0014 16.7532C63.2009 11.8209 56.4788 8.74996 49.0487 8.74996C41.3431 8.74996 34.3986 12.0526 29.5697 17.3092C29.1806 17.7329 29.4016 18.4167 29.9669 18.5313Z" fill="#71B639"/>
<path d="M65.6307 53.9365C65.6255 53.934 65.6201 53.9315 65.6147 53.929C65.332 53.7955 64.9993 53.8403 64.7574 54.0381C60.4794 57.5374 55.0067 59.6414 49.0487 59.6414C38.4167 59.6414 29.3279 52.9441 25.8214 43.5679C25.6761 43.1794 25.257 42.9662 24.8561 43.0789C24.8507 43.0804 24.8455 43.0819 24.8404 43.0833C24.3913 43.2092 24.1421 43.6889 24.3047 44.1239C28.0393 54.1137 37.7215 61.25 49.0487 61.25C55.4011 61.25 61.2362 59.0054 65.7952 55.2718C66.2483 54.9008 66.1608 54.187 65.6307 53.9365Z" fill="#71B639"/>
</svg>
