<svg width="40" height="40" viewBox="0 0 40 40" fill="none" xmlns="http://www.w3.org/2000/svg">
<rect x="0.5" y="0.5" width="39" height="39" rx="19.5" fill="white" stroke="#F0F1EE"/>
<path fill-rule="evenodd" clip-rule="evenodd" d="M30.5182 14.8125C30.6642 14.3442 30.5182 14 29.8234 14H27.526C26.9418 14 26.6726 14.2973 26.5266 14.6253C26.5266 14.6253 25.3582 17.3652 23.7031 19.145C23.1676 19.6602 22.9243 19.8239 22.6322 19.8239C22.4861 19.8239 22.2747 19.6602 22.2747 19.1919V14.8125C22.2747 14.2504 22.1052 14 21.6183 14H18.0081C17.6432 14 17.4236 14.2608 17.4236 14.5081C17.4236 15.041 18.251 15.1638 18.3363 16.6626V19.9179C18.3363 20.6316 18.2024 20.7611 17.9103 20.7611C17.1315 20.7611 15.2371 18.0086 14.1134 14.8594C13.8931 14.2473 13.6722 14 13.0851 14H10.7877C10.1313 14 10 14.2973 10 14.6253C10 15.2107 10.779 18.1147 13.6266 21.9554C15.5253 24.578 18.1998 26 20.6337 26C22.0942 26 22.2747 25.6842 22.2747 25.1403V23.1579C22.2747 22.5263 22.4131 22.4003 22.8754 22.4003C23.2164 22.4003 23.8004 22.5642 25.1636 23.8288C26.7212 25.3274 26.9779 26 27.8542 26H30.1516C30.808 26 31.1362 25.6842 30.9468 25.061C30.7397 24.4398 29.996 23.5389 29.0091 22.4706C28.4736 21.8616 27.6704 21.2058 27.4272 20.8781C27.0863 20.4565 27.1837 20.2692 27.4272 19.8947C27.4272 19.8947 30.2261 16.1008 30.5182 14.8127V14.8125Z" fill="#65BF4F"/>
<path fill-rule="evenodd" clip-rule="evenodd" d="M30.5182 14.8125C30.6642 14.3442 30.5182 14 29.8234 14H27.526C26.9418 14 26.6726 14.2973 26.5266 14.6253C26.5266 14.6253 25.3582 17.3652 23.7031 19.145C23.1676 19.6602 22.9243 19.8239 22.6322 19.8239C22.4861 19.8239 22.2747 19.6602 22.2747 19.1919V14.8125C22.2747 14.2504 22.1052 14 21.6183 14H18.0081C17.6432 14 17.4236 14.2608 17.4236 14.5081C17.4236 15.041 18.251 15.1638 18.3363 16.6626V19.9179C18.3363 20.6316 18.2024 20.7611 17.9103 20.7611C17.1315 20.7611 15.2371 18.0086 14.1134 14.8594C13.8931 14.2473 13.6722 14 13.0851 14H10.7877C10.1313 14 10 14.2973 10 14.6253C10 15.2107 10.779 18.1147 13.6266 21.9554C15.5253 24.578 18.1998 26 20.6337 26C22.0942 26 22.2747 25.6842 22.2747 25.1403V23.1579C22.2747 22.5263 22.4131 22.4003 22.8754 22.4003C23.2164 22.4003 23.8004 22.5642 25.1636 23.8288C26.7212 25.3274 26.9779 26 27.8542 26H30.1516C30.808 26 31.1362 25.6842 30.9468 25.061C30.7397 24.4398 29.996 23.5389 29.0091 22.4706C28.4736 21.8616 27.6704 21.2058 27.4272 20.8781C27.0863 20.4565 27.1837 20.2692 27.4272 19.8947C27.4272 19.8947 30.2261 16.1008 30.5182 14.8127V14.8125Z" fill="#A1A75C"/>
</svg>
