<svg width="40" height="40" viewBox="0 0 40 40" fill="none" xmlns="http://www.w3.org/2000/svg">
<rect x="0.5" y="0.5" width="39" height="39" rx="19.5" fill="white" stroke="#F0F1EE"/>
<path d="M21.4908 29.9999V20.8769H24.4391L24.8805 17.3216H21.4908V15.0516C21.4908 14.0222 21.766 13.3207 23.1873 13.3207L25 13.3198V10.1399C24.6864 10.0968 23.6104 10 22.3586 10C19.7452 10 17.9559 11.6568 17.9559 14.6996V17.3217H15V20.877H17.9558V30L21.4908 29.9999Z" fill="#65BF4F"/>
<path d="M21.4908 29.9999V20.8769H24.4391L24.8805 17.3216H21.4908V15.0516C21.4908 14.0222 21.766 13.3207 23.1873 13.3207L25 13.3198V10.1399C24.6864 10.0968 23.6104 10 22.3586 10C19.7452 10 17.9559 11.6568 17.9559 14.6996V17.3217H15V20.877H17.9558V30L21.4908 29.9999Z" fill="#A1A75C"/>
</svg>
