<svg width="72" height="72" viewBox="0 0 72 72" fill="none" xmlns="http://www.w3.org/2000/svg">
<g clip-path="url(#clip0)">
<path d="M40.7148 13.4711C37.2699 10.0264 32.69 8.12906 27.8182 8.12906C22.9465 8.12906 18.3664 10.0262 14.9215 13.4711C7.81048 20.5823 7.81048 32.1531 14.9215 39.2643C18.3664 42.7091 22.9464 44.6064 27.8182 44.6064C32.6899 44.6064 37.2699 42.7092 40.7148 39.2643C44.1596 35.8196 46.0567 31.2394 46.0567 26.3677C46.0567 21.4961 44.1596 16.916 40.7148 13.4711ZM16.3903 14.94C19.4427 11.8876 23.5013 10.2064 27.8181 10.2064C32.1348 10.2064 36.1933 11.8876 39.2457 14.94C41.6549 17.349 43.2089 20.3851 43.7572 23.68L38.0958 29.2162C37.5596 28.9136 36.9414 28.7402 36.2831 28.7402C35.0016 28.7402 33.8704 29.3951 33.206 30.3875L24.8848 27.7765C24.8852 27.7525 24.8866 27.7284 24.8866 27.7042C24.8866 25.6633 23.2262 24.0028 21.1852 24.0028C19.1443 24.0028 17.4838 25.6633 17.4838 27.7042C17.4838 28.3714 17.6621 28.9974 17.9723 29.5387L13.6063 34.0644C10.2935 27.9389 11.2206 20.1096 16.3903 14.94ZM37.9075 32.4415C37.9075 33.337 37.1788 34.0657 36.2833 34.0657C35.3878 34.0657 34.6591 33.337 34.6591 32.4415C34.6591 31.546 35.3878 30.8173 36.2833 30.8173C37.1788 30.8173 37.9075 31.5458 37.9075 32.4415ZM22.8096 27.704C22.8096 28.5995 22.0808 29.3282 21.1853 29.3282C20.2897 29.3282 19.561 28.5995 19.561 27.704C19.561 26.8085 20.2897 26.0797 21.1853 26.0797C22.0808 26.0799 22.8096 26.8085 22.8096 27.704ZM39.2458 37.7956C36.1934 40.8481 32.135 42.5292 27.8182 42.5292C23.5014 42.5292 19.4429 40.8482 16.3904 37.7956C15.7842 37.1894 15.2368 36.5462 14.7471 35.8737L19.4672 30.9809C19.981 31.2515 20.5655 31.4054 21.1853 31.4054C22.4669 31.4054 23.598 30.7505 24.2625 29.7581L32.5837 32.3691C32.5833 32.3931 32.5819 32.4172 32.5819 32.4413C32.5819 34.4822 34.2423 36.1427 36.2833 36.1427C38.3242 36.1427 39.9847 34.4822 39.9847 32.4413C39.9847 31.8125 39.8265 31.22 39.5487 30.7008L43.9796 26.368C43.9794 30.6848 42.2982 34.7432 39.2458 37.7956Z" fill="#404040"/>
<path d="M18.6208 15.7725L19.9834 17.3401C23.2043 14.5406 27.7201 13.6774 31.7692 15.0878L32.4525 13.1262C27.7025 11.4716 22.4025 12.4856 18.6208 15.7725Z" fill="#404040"/>
<path d="M35.1183 14.3848L34.0378 16.1588C34.5875 16.4937 35.1151 16.8776 35.6059 17.2997L36.9605 15.7249C36.3843 15.2293 35.7644 14.7785 35.1183 14.3848Z" fill="#404040"/>
<path d="M30.3029 38.0556C27.9659 38.5483 25.5641 38.341 23.3566 37.4566L22.5841 39.3847C24.258 40.0553 26.0264 40.3942 27.8078 40.3942C28.783 40.3942 29.7621 40.2926 30.7314 40.0882L30.3029 38.0556Z" fill="#404040"/>
<path d="M53.8361 43.0545L52.3281 44.5626L48.5866 40.5633C53.0149 34.0902 54.081 25.9921 51.7837 18.7366L54.7522 15.8337C55.2743 16.1157 55.8714 16.2761 56.5055 16.2761C58.5464 16.2761 60.2069 14.6156 60.2069 12.5747C60.2069 11.9703 60.0604 11.3997 59.8023 10.8952L66.1749 4.66365V7.88453H68.2521V1.15688H61.5245V3.23405H64.6658L58.3774 9.38331C57.8278 9.05973 57.1882 8.87312 56.5056 8.87312C54.4647 8.87312 52.8042 10.5336 52.8042 12.5745C52.8042 13.2276 52.9749 13.8413 53.2731 14.3745L50.998 16.5992C49.7733 13.6826 47.9771 10.9511 45.6059 8.57992C35.7976 -1.22827 19.8389 -1.22799 10.0307 8.57992C1.29347 17.3171 0.33961 30.9348 7.16823 40.7378L5.41942 42.5506C4.90557 42.2801 4.32113 42.1262 3.70126 42.1262C1.66036 42.1261 0 43.7866 0 45.8275C0 47.8684 1.66036 49.5289 3.7014 49.5289C5.74243 49.5289 7.4028 47.8684 7.4028 45.8275C7.4028 45.1602 7.22448 44.5343 6.91412 43.993L8.44202 42.4092C8.93983 43.0096 9.4683 43.5928 10.0305 44.1552C14.9347 49.0592 21.3764 51.5111 27.8182 51.5111C32.7632 51.5111 37.7075 50.0644 41.957 47.1745L45.7073 51.1833L44.1478 52.7429L62.3115 70.8432L72.0001 61.1548L53.8361 43.0545ZM56.5056 10.9504C57.4011 10.9504 58.1299 11.6792 58.1299 12.5747C58.1299 13.4702 57.4011 14.1989 56.5056 14.1989C55.61 14.1989 54.8814 13.4702 54.8814 12.5747C54.8814 11.6792 55.61 10.9504 56.5056 10.9504ZM3.7014 47.4516C2.8059 47.4516 2.07718 46.7228 2.07718 45.8273C2.07718 44.9318 2.8059 44.2031 3.7014 44.2031C4.59704 44.2031 5.32562 44.9318 5.32562 45.8273C5.32548 46.723 4.5969 47.4516 3.7014 47.4516ZM11.4994 42.6865C2.50116 33.6883 2.50116 19.0472 11.4994 10.0488C15.9984 5.54959 21.9082 3.30029 27.8181 3.30029C33.728 3.30029 39.6379 5.54987 44.1369 10.0488C53.1351 19.0469 53.1351 33.6881 44.1369 42.6865C35.139 51.6845 20.4973 51.6845 11.4994 42.6865ZM43.6357 45.9284C44.3157 45.3779 44.9737 44.7873 45.6059 44.1552C46.2168 43.5443 46.7894 42.9095 47.3241 42.254L50.8587 46.0319L47.177 49.7137L43.6357 45.9284ZM62.3091 67.9082L47.0881 52.7402L53.839 45.9893L69.06 61.1572L62.3091 67.9082Z" fill="#404040"/>
<path d="M53.8377 49.0048L50.8654 51.9769L52.3344 53.4457L53.8377 51.9423L59.5704 57.675L61.0391 56.2064L53.8377 49.0048Z" fill="#404040"/>
<path d="M62.82 57.9835L61.3512 59.4522L62.8906 60.9916L64.3593 59.5228L62.82 57.9835Z" fill="#404040"/>
<path d="M13.3311 52.5754H11.254V54.8385H13.3311V52.5754Z" fill="#404040"/>
<path d="M13.3311 65.2598H11.254V67.5229H13.3311V65.2598Z" fill="#404040"/>
<path d="M30.4385 56.94H28.3613V59.203H30.4385V56.94Z" fill="#404040"/>
<path d="M60.2069 38.2581H58.1297V40.5212H60.2069V38.2581Z" fill="#404040"/>
<path d="M62.5636 20.2342H60.4865V22.4973H62.5636V20.2342Z" fill="#404040"/>
<path d="M69.4474 29.778H67.3702V32.0411H69.4474V29.778Z" fill="#404040"/>
</g>
<defs>
<clipPath id="clip0">
<rect width="72" height="72" fill="white"/>
</clipPath>
</defs>
</svg>
