<svg width="20" height="22" viewBox="0 0 20 22" fill="none" xmlns="http://www.w3.org/2000/svg">
<path d="M17.2994 2.71957H15.3083V0.50992C15.3083 0.229464 15.0843 0 14.8105 0H13.1513C12.8775 0 12.6535 0.229464 12.6535 0.50992V2.71957H7.34396V0.50992C7.34396 0.229464 7.11996 0 6.84619 0H5.18696C4.91318 0 4.68919 0.229464 4.68919 0.50992V2.71957H2.69811C1.59887 2.71957 0.707031 3.63318 0.707031 4.75925V19.7169C0.707031 20.843 1.59887 21.7566 2.69811 21.7566H17.2994C18.3986 21.7566 19.2904 20.843 19.2904 19.7169V4.75925C19.2904 3.63318 18.3986 2.71957 17.2994 2.71957ZM17.0505 19.7169H2.94699C2.81011 19.7169 2.69811 19.6022 2.69811 19.462V6.79893H17.2994V19.462C17.2994 19.6022 17.1874 19.7169 17.0505 19.7169Z" fill="white"/>
</svg>
