<svg width="45" height="45" viewBox="0 0 45 45" fill="none" xmlns="http://www.w3.org/2000/svg">
<path d="M36.7899 29.5922C35.6903 29.5922 34.6457 30.0228 33.8577 30.8017C33.0696 31.5897 32.6298 32.616 32.6298 33.7156C32.6298 34.8151 33.0605 35.8414 33.8577 36.6294C34.6549 37.4083 35.6903 37.839 36.7899 37.839C39.044 37.839 40.8766 35.988 40.8766 33.7156C40.8766 31.4431 39.044 29.5922 36.7899 29.5922ZM36.7899 36.0063C35.5254 36.0063 34.4624 34.9617 34.4624 33.7156C34.4624 32.4694 35.5254 31.4248 36.7899 31.4248C38.036 31.4248 39.044 32.4511 39.044 33.7156C39.044 34.9801 38.036 36.0063 36.7899 36.0063ZM37.8528 15.8567C37.6878 15.7009 37.4679 15.6184 37.2389 15.6184H32.5382C32.0342 15.6184 31.6219 16.0308 31.6219 16.5347V24.0485C31.6219 24.5525 32.0342 24.9648 32.5382 24.9648H39.9969C40.5009 24.9648 40.9133 24.5525 40.9133 24.0485V19.0179C40.9133 18.7614 40.8033 18.514 40.6109 18.3399L37.8528 15.8567ZM39.0806 23.1322H33.4545V17.4419H36.8815L39.0806 19.4211V23.1322ZM14.4136 29.5922C13.314 29.5922 12.2694 30.0228 11.4814 30.8017C10.6933 31.5897 10.2535 32.616 10.2535 33.7156C10.2535 34.8151 10.6842 35.8414 11.4814 36.6294C12.2786 37.4083 13.314 37.839 14.4136 37.839C16.6677 37.839 18.5003 35.988 18.5003 33.7156C18.5003 31.4431 16.6677 29.5922 14.4136 29.5922ZM14.4136 36.0063C13.1491 36.0063 12.0861 34.9617 12.0861 33.7156C12.0861 32.4694 13.1491 31.4248 14.4136 31.4248C15.6597 31.4248 16.6677 32.4511 16.6677 33.7156C16.6677 34.9801 15.6597 36.0063 14.4136 36.0063ZM8.30177 30.7192H6.45999V28.2818C6.45999 27.7779 6.04765 27.3655 5.54368 27.3655C5.03971 27.3655 4.62737 27.7779 4.62737 28.2818V31.6355C4.62737 32.1395 5.03971 32.5518 5.54368 32.5518H8.30177C8.80574 32.5518 9.21808 32.1395 9.21808 31.6355C9.21808 31.1316 8.80574 30.7192 8.30177 30.7192ZM12.9475 25.7253C12.9475 25.2214 12.5351 24.809 12.0312 24.809H0.91631C0.41234 24.809 0 25.2214 0 25.7253C0 26.2293 0.41234 26.6416 0.91631 26.6416H12.0312C12.5351 26.6416 12.9475 26.2385 12.9475 25.7253ZM2.77642 22.4175L13.8913 22.4816C14.3952 22.4816 14.8076 22.0784 14.8167 21.5745C14.8259 21.0613 14.4136 20.649 13.9096 20.649L2.79475 20.5848C2.78558 20.5848 2.78558 20.5848 2.78558 20.5848C2.28161 20.5848 1.86927 20.988 1.86927 21.492C1.86011 22.0051 2.27245 22.4175 2.77642 22.4175ZM4.64569 18.2574H15.7605C16.2645 18.2574 16.6768 17.8451 16.6768 17.3411C16.6768 16.8371 16.2645 16.4248 15.7605 16.4248H4.64569C4.14172 16.4248 3.72938 16.8371 3.72938 17.3411C3.72938 17.8451 4.14172 18.2574 4.64569 18.2574ZM44.661 17.0204L38.1002 11.5867C37.9352 11.4492 37.7337 11.3759 37.5137 11.3759H29.7984V8.0772C29.7984 7.57323 29.3861 7.16089 28.8821 7.16089H5.54368C5.03971 7.16089 4.62737 7.57323 4.62737 8.0772V14.7846C4.62737 15.2886 5.03971 15.7009 5.54368 15.7009C6.04765 15.7009 6.45999 15.2886 6.45999 14.7846V8.99351H27.975V30.7192H20.4612C19.9572 30.7192 19.5449 31.1316 19.5449 31.6355C19.5449 32.1395 19.9572 32.5518 20.4612 32.5518H31.6494C32.1533 32.5518 32.5657 32.1395 32.5657 31.6355C32.5657 31.1316 32.1533 30.7192 31.6494 30.7192H29.8076V13.2085H37.193L43.1674 18.1566L43.1032 30.7009H42.1503C41.6463 30.7009 41.234 31.1132 41.234 31.6172C41.234 32.1212 41.6463 32.5335 42.1503 32.5335H44.0104C44.5144 32.5335 44.9267 32.1303 44.9267 31.6264L45 17.7351C44.9908 17.4602 44.8717 17.1945 44.661 17.0204Z" fill="black"/>
</svg>
