<svg width="61" height="61" viewBox="0 0 61 61" fill="none" xmlns="http://www.w3.org/2000/svg">
<g clip-path="url(#clip0)">
<path d="M43.8409 61C41.8718 61 39.9194 60.6519 38.0103 59.9583C29.5995 56.9029 21.7926 51.9266 15.4331 45.5673C9.07363 39.2079 4.09733 31.4008 1.0421 22.9901C0.0603005 20.2871 -0.229438 17.497 0.181223 14.6968C0.565912 12.0739 1.5819 9.52764 3.11947 7.33316C4.66382 5.12903 6.72273 3.29577 9.07351 2.03162C11.5804 0.683601 14.3166 0 17.2063 0C18.1051 0 18.8818 0.627965 19.0702 1.50671L22.0622 15.4693C22.1976 16.1016 22.0033 16.7594 21.5462 17.2167L16.4337 22.329C21.2566 31.9178 29.0824 39.7436 38.6711 44.5664L43.7835 39.4539C44.2406 38.9968 44.8986 38.8027 45.5308 38.938L59.4934 41.9299C60.3723 42.1183 61.0001 42.8951 61.0001 43.7938C61.0001 46.6836 60.3165 49.4199 58.9684 51.9267C57.7042 54.2775 55.871 56.3364 53.6669 57.8808C51.4725 59.4184 48.9262 60.4343 46.3032 60.819C45.4813 60.9397 44.6595 60.9999 43.8409 61V61ZM15.6833 3.89574C11.8715 4.31653 8.48832 6.31443 6.24166 9.52097C3.71527 13.1266 3.12614 17.5614 4.62534 21.6885C10.4992 37.8584 23.142 50.5012 39.3118 56.375C43.4388 57.8742 47.8738 57.2852 51.4794 54.7587C54.6859 52.5121 56.6838 49.1288 57.1046 45.3171L45.7461 42.8831L40.4069 48.2223C39.8388 48.7905 38.9755 48.9414 38.2485 48.5998C26.908 43.272 17.7284 34.0924 12.4006 22.7518C12.0591 22.0247 12.2099 21.1615 12.778 20.5934L18.1172 15.2543L15.6833 3.89574Z" fill="white"/>
<path d="M59.0936 32.4049C58.0409 32.4049 57.1875 31.5514 57.1875 30.4987C57.1875 15.7838 45.216 3.81234 30.501 3.81234C29.4484 3.81234 28.5949 2.95886 28.5949 1.90617C28.5949 0.853488 29.4484 0 30.501 0C38.6477 0 46.3066 3.17235 52.067 8.9328C57.8275 14.6932 60.9998 22.3521 60.9998 30.4987C60.9998 31.5514 60.1464 32.4049 59.0936 32.4049Z" fill="white"/>
<path d="M51.4689 32.405C50.4163 32.405 49.5628 31.5515 49.5628 30.4988C49.5628 19.9882 41.0117 11.4371 30.501 11.4371C29.4484 11.4371 28.5949 10.5836 28.5949 9.53093C28.5949 8.47824 29.4484 7.62476 30.501 7.62476C43.1138 7.62476 53.3751 17.886 53.3751 30.4988C53.3751 31.5515 52.5217 32.405 51.4689 32.405Z" fill="white"/>
<path d="M43.8443 32.4051C42.7916 32.4051 41.9381 31.5516 41.9381 30.4989C41.9381 24.1924 36.8075 19.0619 30.501 19.0619C29.4484 19.0619 28.5949 18.2084 28.5949 17.1557C28.5949 16.103 29.4484 15.2495 30.501 15.2495C38.9097 15.2495 45.7504 22.0903 45.7504 30.4989C45.7504 31.5516 44.8971 32.4051 43.8443 32.4051Z" fill="white"/>
</g>
<defs>
<clipPath id="clip0">
<rect width="61" height="61" fill="white"/>
</clipPath>
</defs>
</svg>
