<svg width="72" height="72" viewBox="0 0 72 72" fill="none" xmlns="http://www.w3.org/2000/svg">
<path d="M69.9327 39.02C73.58 35.389 72.453 28.0443 66.1355 28.0443L49.513 28.0554C50.1442 24.5353 51.0586 18.7001 51.0224 18.1491C50.6733 12.9312 47.3473 6.58069 47.2034 6.32077C46.5967 5.19103 43.5338 3.65934 40.4514 4.31565C36.4662 5.16875 36.0592 7.71089 36.0754 8.41175C36.0754 8.41175 36.2472 15.3661 36.2639 17.2217C34.3585 21.4065 27.789 32.404 25.7978 33.2516C25.3216 32.9633 24.7813 32.8083 24.2192 32.8083H3.2184C1.43468 32.8083 0 34.2509 0 36.0262L0.00278489 65.0508C0.127641 66.6154 1.45696 67.8426 3.02717 67.8426H21.8901C23.5629 67.8426 24.9229 66.4827 24.9229 64.8099V63.8463C24.9229 63.8463 25.6237 63.7939 25.9421 63.9986C27.155 64.7686 28.6537 65.7377 30.6087 65.7377H58.7579C69.282 65.7377 68.1522 56.3963 67.191 55.1222C68.9691 53.1862 70.0687 49.7715 68.5676 47.0739C69.7196 45.8527 71.747 42.496 69.9327 39.02ZM21.2422 64.8043H3.0216V35.8378H21.2422V64.8043ZM65.0225 38.7707L64.8507 39.4878C69.7001 40.8668 67.119 46.4561 63.6402 46.8186L63.4685 47.5357C68.1183 48.7184 65.9002 54.4733 62.258 54.8665L62.0863 55.5808C65.8835 56.2041 64.964 62.6846 59.2113 62.6846L30.5799 62.6957C28.5581 62.6957 26.7163 60.3917 25.2292 60.3917H23.9315V38.0949C25.549 37.0924 27.5374 35.7909 28.6426 34.8519C30.7308 33.071 39.2776 19.2598 39.2776 17.5313C39.2776 15.8028 39.0891 8.32542 39.0891 8.32542C39.0891 8.32542 40.7647 6.16528 44.5062 7.74106C44.5062 7.74106 47.655 13.6455 47.9762 18.351C47.9762 18.351 46.5582 28.0443 45.7965 31.0854H65.6458C70.5226 31.0909 69.592 38.0536 65.0225 38.7707Z" fill="#404040"/>
</svg>
