<svg id="Layer_1" height="512" viewBox="0 0 512 512" width="512" xmlns="http://www.w3.org/2000/svg" data-name="Layer 1"><path d="m362.54 79.03-34.39 17.01 46.67 67.28 27.97-26.24z" fill="#e5f5fd"/><path d="m367.93 153.38-.01.01-27.15 25.67-39.28-56.65 33.55-16.44z" fill="#5f6a78"/><path d="m295.63 113.96-213.84 135.22a55.547 55.547 0 1 0 63.26 91.21l201.58-152.89z" fill="#e5f5fd"/><path d="m246.62 263.9-.26-.35-89.92 68.2.01.02 35.65 128.55 91.42-63.4z" fill="#a6b7d0"/><path d="m185.44 182.82.37.58-95.76 60.56-.01-.01a35.237 35.237 0 0 1 10.93-45.54l64.34-44.62z" fill="#50a6ea"/><path d="m227.8 215.46a17.164 17.164 0 1 1 -23.92-4.39 17.189 17.189 0 0 1 23.92 4.39z" fill="#50a6ea"/><path d="m169.54 234.75 19.77 28.51-67.31 49.44a19.621 19.621 0 1 1 -22.36-32.23z" fill="#50a6ea"/><path d="m247.22 350.96 10.02 36.81-52.59 36.47-10.03-36.85 52.49-36.4z" fill="#ed6337"/><path d="m238.26 318.05 8.96 32.91-.11.03-52.49 36.4-8.95-32.92.16-.05z" fill="#c24e38"/><path d="m227.4 278.14 10.86 39.91-52.43 36.37-.16.05h-.01l-10.1-37.14-.04-.05 51.78-39.27z" fill="#ed6337"/><path d="m362.54 79.03-34.39 17.01 13.134 18.934 34.256-16.944z" fill="#a6b7d0"/><path d="m335.04 105.97-33.55 16.44 13.13 18.936 33.42-16.376z" fill="#475673"/><path d="m295.63 113.96-213.84 135.22a55.572 55.572 0 0 0 -8.59 87.092 55.543 55.543 0 0 1 21.59-68.092l213.84-135.22z" fill="#a6b7d0"/><g fill="#284268"><path d="m174.471 231.333a6 6 0 0 0 -8.215-1.6l-69.9 45.72a25.62 25.62 0 0 0 9.8 46.71 26.043 26.043 0 0 0 4.287.357 25.391 25.391 0 0 0 15.1-4.978l67.322-49.442a6 6 0 0 0 1.378-8.255zm-56.025 76.536a13.62 13.62 0 1 1 -15.517-22.375l65.009-42.523 13.117 18.912z"/><path d="m217.808 202.4a23.2 23.2 0 0 0 -8.217 45.669 23.375 23.375 0 0 0 4.225.386 23.216 23.216 0 0 0 3.992-46.055zm6.905 24.877a11.114 11.114 0 0 1 -12.96 8.989 11.289 11.289 0 0 1 -9.067-13.074 11.117 11.117 0 0 1 10.923-9.174 11.35 11.35 0 0 1 2.037.186 11.289 11.289 0 0 1 9.067 13.073z"/><path d="m452.581 51.8-7 4.851-5.813-8.381a6 6 0 1 0 -9.86 6.839l5.813 8.38-10.307 7.148-9.282-13.384a6 6 0 1 0 -9.861 6.839l9.283 13.384-10.307 7.148-12.747-18.393a6 6 0 0 0 -9.86 6.839l12.752 18.388-11.435 7.93-16.491-23.778a6 6 0 0 0 -7.59-1.959l-34.387 17.007a6 6 0 0 0 -2.27 8.8l2.913 4.2-22.658 11.092-2.917-4.206a6 6 0 0 0 -8.137-1.652l-104.93 66.353-17.25-24.874a6 6 0 0 0 -8.35-1.511l-64.338 44.621a41.191 41.191 0 0 0 -15.105 48.189l-3.871 2.448a61.543 61.543 0 0 0 23.258 112.736 62.515 62.515 0 0 0 9.893.791 60.962 60.962 0 0 0 36.945-12.474l4.353-3.3 33.3 120.049a6 6 0 0 0 9.2 3.327l91.414-63.4a6 6 0 0 0 2.362-6.534l-23.975-86.437 19.176-13.3a38.312 38.312 0 0 0 9.636-53.254l-3.4-4.9 59.517-45.141a6 6 0 0 0 1.3-8.2l-2.917-4.2 18.331-17.334 2.913 4.2a6 6 0 0 0 4.3 2.548 6.081 6.081 0 0 0 .632.033 6 6 0 0 0 4.1-1.624l27.986-26.252a6 6 0 0 0 .825-7.8l-16.925-24.404 11.435-7.93 13.189 19.018a6 6 0 0 0 9.861-6.839l-13.19-19.018 10.305-7.148 9.72 14.015a6 6 0 1 0 9.86-6.839l-9.72-14.014 10.306-7.148 6.25 9.011a6 6 0 0 0 9.861-6.838l-6.25-9.012 6.994-4.851a6 6 0 1 0 -6.838-9.86zm-348.19 151.542 59.408-41.2 13.54 19.524-84.428 53.387a29.183 29.183 0 0 1 11.48-31.711zm172.209 191.073-80.97 56.155-32.314-116.5 8.77-6.651 26.781 98.4a6 6 0 0 0 9.209 3.355l52.58-36.474a6 6 0 0 0 2.37-6.506l-28.826-105.894 8.874-6.731zm-78.413-16.793-5.6-20.582 42.113-29.212 5.6 20.581zm45.464-16.928 6.685 24.565-42.12 29.213-6.686-24.566zm-54.409-15.939-6.85-25.155 41.5-31.479 7.464 27.425zm88.422-59.038-15.734 10.912-7.106-25.621 19.793 3.582a6 6 0 0 0 2.136-11.809l-15.7-2.841 20.119-15.26 3.109 4.483a26.3 26.3 0 0 1 -6.62 36.554zm-136.236 49.883a49.544 49.544 0 1 1 -56.428-81.345l208.973-132.147 9.161 13.208-39.049 27.084a6 6 0 1 0 6.839 9.861l39.048-27.082 4.805 6.928-59.034 40.942a6 6 0 1 0 6.839 9.861l59.033-40.943 4.805 6.928-39.049 27.081a6 6 0 1 0 6.839 9.86l39.049-27.081 5.161 7.443zm200.3-165.7-31.333-45.177 22.658-11.094 27.006 38.938zm53.19-33.659-19.132 17.947-38.74-55.857 23.51-11.631z"/><path d="m153.7 430.023a6 6 0 0 0 4.178-7.385l-13.62-49.1a6 6 0 1 0 -11.558 3.202l13.62 49.105a5.993 5.993 0 0 0 7.386 4.178z"/><path d="m163.073 441.362a6 6 0 0 0 -11.563 3.207l4.812 17.35a6 6 0 1 0 11.563-3.207z"/></g></svg>