<?xml version='1.0' encoding='iso-8859-1'?>
<svg version="1.1" xmlns="http://www.w3.org/2000/svg" viewBox="0 0 470 470" xmlns:xlink="http://www.w3.org/1999/xlink" enable-background="new 0 0 470 470">
  <g>
    <path d="m409.631,45c4.142,0 7.5-3.358 7.5-7.5v-30c0-4.142-3.358-7.5-7.5-7.5h-236.011c-4.142,0-7.5,3.358-7.5,7.5v112.5h-43.5c-4.142,0-7.5,3.358-7.5,7.5v7.5h-15v-7.5c0-4.142-3.358-7.5-7.5-7.5h-17.251c-12.407,0-22.5,10.093-22.5,22.5s10.093,22.5 22.5,22.5h17.251c4.142,0 7.5-3.358 7.5-7.5v-7.5h15v7.5c0,4.142 3.358,7.5 7.5,7.5h28.5v15.661c-20.422,3.566-36,21.412-36,42.839v117.022c0,21.427 15.578,39.273 36,42.839v30.161c0,8.798 6.534,16.081 15,17.3v31.678c0,4.142 3.358,7.5 7.5,7.5s7.5-3.358 7.5-7.5v-31.678c8.466-1.22 15-8.502 15-17.3v-30.161c20.422-3.566 36-21.412 36-42.839v-117.022c0-21.427-15.578-39.273-36-42.839v-15.661h213.512c4.142,0 7.5-3.358 7.5-7.5v-30c0-4.142-3.358-7.5-7.5-7.5h-22.5v-75h22.499zm-341.762,97.5c-2.84217e-14-4.136 3.364-7.5 7.5-7.5h9.751v15h-9.751c-4.136,0-7.5-3.364-7.5-7.5zm334.262,7.5h-272.011v-15h272.012v15zm-185.012,190.522c0,15.715-12.785,28.5-28.5,28.5h-30c-15.715,0-28.5-12.785-28.5-28.5v-117.022c0-15.715 12.785-28.5 28.5-28.5h30c15.715,0 28.5,12.785 28.5,28.5v117.022zm-38.5,75.5h-10c-1.355,0-2.5-1.145-2.5-2.5v-29.5h15v29.5c0,1.355-1.145,2.5-2.5,2.5zm2.5-236.022h-15v-15h15v15zm0-165h221.012v15h-221.012v-15zm88.005,105v-52.5c0-4.141-3.356-7.497-7.495-7.5-4.147,0-7.505,3.358-7.505,7.5v52.5h-43.005v-75h73.006v75h-15.001zm-88.005-75h15v75h-15v-75zm191.011,75h-15v-52.5c0-4.142-3.358-7.5-7.5-7.5-4.143,0.001-7.5,3.358-7.5,7.5v52.5h-43.006v-75h73.006v75z"/>
    <path d="m152.62,348.022h42c4.142,0 7.5-3.358 7.5-7.5-0.001-4.143-3.359-7.5-7.5-7.5h-42c-4.141,0-7.499,3.357-7.5,7.498 0,4.144 3.358,7.502 7.5,7.502z"/>
    <path d="m194.62,303.767h-42c-4.142,0-7.5,3.358-7.5,7.5s3.358,7.5 7.5,7.5h42c4.142,0 7.5-3.358 7.5-7.5s-3.358-7.5-7.5-7.5z"/>
    <path d="m194.62,274.511h-42c-4.142,0-7.5,3.358-7.5,7.5s3.358,7.5 7.5,7.5h42c4.142,0 7.5-3.358 7.5-7.5s-3.358-7.5-7.5-7.5z"/>
    <path d="m194.62,245.255h-42c-4.142,0-7.5,3.358-7.5,7.5s3.358,7.5 7.5,7.5h42c4.142,0 7.5-3.358 7.5-7.5s-3.358-7.5-7.5-7.5z"/>
    <path d="m152.62,231h42c4.142,0 7.5-3.358 7.5-7.5s-3.358-7.5-7.5-7.5h-42c-4.142,0-7.5,3.358-7.5,7.5s3.358,7.5 7.5,7.5z"/>
  </g>
</svg>
