<svg width="585" height="346" viewBox="0 0 585 346" fill="none" xmlns="http://www.w3.org/2000/svg">
<g clip-path="url(#clip0)">
<path d="M377.301 196.899C366.733 206.839 352.726 211.131 339.067 214.39C325.409 217.649 311.352 220.311 299.238 227.916C280.496 239.649 269.23 261.269 256.319 280.172C251.982 286.528 247.147 292.883 240.567 296.305C228.604 302.498 214.297 297.446 202.782 290.384C191.267 283.323 180.301 274.088 167.29 271.481C133.493 264.799 105.279 304.453 70.9834 305.649C61.5621 305.974 52.1906 303.258 43.4672 299.347C23.6774 290.493 5.43295 273.436 1.04631 250.622C-3.83882 225.2 9.22143 200.103 22.83 178.81C45.9097 142.632 73.8248 107.541 111.51 91.6251C123.872 86.4103 136.933 83.4227 150.043 81.0326C176.113 76.2524 206.072 74.7857 225.563 94.2325C234.037 102.707 239.72 114.44 249.291 121.393C264.444 132.42 284.733 128.292 301.98 121.99C319.228 115.689 337.173 107.432 355.019 111.398C389.514 119.111 405.016 170.77 377.301 196.899Z" fill="#DBB7F8"/>
<path d="M294.017 149.601C304.472 141.681 317.671 137.16 332.174 137.92C346.032 138.661 359.784 141.61 373.63 140.819C439.824 137.029 474.696 59.2945 541.261 58.9547C551.877 58.8998 562.969 61.432 570.801 68.5913C612.436 106.673 537.165 157.856 529.057 192.757C527.043 201.404 527.74 211.774 534.646 217.334C553.44 232.568 584.193 241.349 568.736 272.7C550.324 310.122 498.818 322.403 461.061 322.467C421.173 322.531 380.143 311.591 345.722 291.413C317.478 274.86 279.082 244.252 271.819 210.387C266.571 186.24 276.35 163.038 294.017 149.601Z" fill="#DEFBFD"/>
<path d="M302.961 0H36.9486C32.169 0 28.2109 3.95856 28.2109 8.73871V199.198C28.2109 203.978 32.169 207.936 36.9486 207.936H140.381V256.485H194.45V207.936H302.961C307.741 207.936 311.699 203.978 311.699 199.198V8.73871C311.699 3.95856 307.741 0 302.961 0Z" fill="#00305E"/>
<path d="M298.405 196.061H41.5039C36.9484 196.061 33.2891 192.326 33.2891 187.845V12.8467C33.2891 8.29066 37.0231 4.63086 41.5039 4.63086H298.405C302.961 4.63086 306.62 8.36535 306.62 12.8467V187.845C306.695 192.326 302.961 196.061 298.405 196.061Z" fill="#E8EEFB"/>
<path d="M217.825 261.564H117.081C115.662 261.564 114.542 260.443 114.542 259.024C114.542 257.605 115.662 256.485 117.081 256.485H217.825C219.244 256.485 220.364 257.605 220.364 259.024C220.364 260.369 219.169 261.564 217.825 261.564Z" fill="#2B499E"/>
<path d="M501.91 261.564H432.308C429.544 261.564 427.304 259.323 427.304 256.559V105.014C427.304 102.25 429.544 100.01 432.308 100.01H501.91C504.673 100.01 506.914 102.25 506.914 105.014V256.559C506.839 259.323 504.599 261.564 501.91 261.564Z" fill="#00305E"/>
<path d="M502.507 115.247H431.71V248.269H502.507V115.247Z" fill="#E8EEFB"/>
<path d="M477.265 109.122H456.878C456.131 109.122 455.459 108.524 455.459 107.703C455.459 106.956 456.056 106.284 456.878 106.284H477.265C478.012 106.284 478.684 106.881 478.684 107.703C478.684 108.524 478.087 109.122 477.265 109.122Z" fill="#2B499E"/>
<path d="M413.264 37.1208H244.785V255.887H413.264V37.1208Z" fill="#E8EEFB"/>
<path d="M408.186 31.5189H249.863C244.934 31.5189 240.901 35.5522 240.901 40.4817V51.0877V53.5524V241.024V241.92V252.526C240.901 257.456 244.934 261.489 249.863 261.489H408.186C413.115 261.489 417.148 257.456 417.148 252.526V241.92V241.024V53.5524V51.0877V40.4817C417.148 35.5522 413.115 31.5189 408.186 31.5189ZM409.754 241.024H248.295V53.5524H409.829V241.024H409.754Z" fill="#00305E"/>
<path d="M493.621 130.11H440.523V183.214H493.621V130.11Z" fill="#4CB3EF"/>
<path d="M467.109 169.247C475.028 169.247 481.448 162.827 481.448 154.907C481.448 146.987 475.028 140.566 467.109 140.566C459.19 140.566 452.77 146.987 452.77 154.907C452.77 162.827 459.19 169.247 467.109 169.247Z" fill="white"/>
<path d="M489.438 196.061H443.734C442.39 196.061 441.344 195.015 441.344 193.671C441.344 192.326 442.39 191.281 443.734 191.281H489.438C490.783 191.281 491.828 192.326 491.828 193.671C491.828 194.941 490.783 196.061 489.438 196.061Z" fill="#A3C2EF"/>
<path d="M489.438 207.712H443.734C442.39 207.712 441.344 206.667 441.344 205.322C441.344 203.978 442.39 202.932 443.734 202.932H489.438C490.783 202.932 491.828 203.978 491.828 205.322C491.828 206.667 490.783 207.712 489.438 207.712Z" fill="#A3C2EF"/>
<path d="M489.438 220.484H443.734C442.39 220.484 441.344 219.439 441.344 218.094C441.344 216.75 442.39 215.704 443.734 215.704H489.438C490.783 215.704 491.828 216.75 491.828 218.094C491.828 219.439 490.783 220.484 489.438 220.484Z" fill="#A3C2EF"/>
<path d="M489.438 232.734H443.734C442.39 232.734 441.344 231.688 441.344 230.344C441.344 228.999 442.39 227.953 443.734 227.953H489.438C490.783 227.953 491.828 228.999 491.828 230.344C491.828 231.688 490.783 232.734 489.438 232.734Z" fill="#A3C2EF"/>
<path d="M323.05 227.58C327.232 226.086 331.34 224.592 335.522 223.098C335.074 194.119 332.759 165.139 327.307 136.682C327.158 135.786 326.859 134.815 326.112 134.292C325.291 133.769 324.17 134.068 323.274 134.367C317.15 136.533 308.487 139.371 308.861 146.317C309.384 154.981 313.64 164.691 315.433 173.28C319.167 191.206 321.706 209.356 323.05 227.58Z" fill="#79A2D3"/>
<path d="M473.979 219.14L481.97 223.995L476.743 231.688L469.275 227.953L473.979 219.14Z" fill="#FDB790"/>
<path d="M431.71 212.941L466.437 234.75C466.511 235.049 467.109 234.75 466.81 234.75L475.398 219.439L444.705 191.654L431.71 180.152V212.941Z" fill="#2B499E"/>
<path d="M476.743 231.912C478.46 229.298 480.253 226.684 481.97 223.995L487.347 224.816L495.338 228.775L484.061 248.194H471.44C471.216 246.999 471.366 245.954 472.411 245.281C473.457 244.609 474.652 244.311 475.847 244.086C477.116 243.788 478.46 243.564 479.73 243.265L476.743 231.912Z" fill="#C7CEE5"/>
<path d="M373.235 215.48L382.645 216.75L381.525 225.414L373.161 225.489L373.235 215.48Z" fill="#FDB790"/>
<path d="M380.405 181.72C375.177 186.949 347.993 212.418 347.993 212.418L376.521 215.928L375.625 228.85C375.625 228.85 337.165 241.622 328.352 241.099C324.469 240.875 319.615 239.605 316.777 236.916C314.088 234.377 313.192 230.269 313.715 226.609C314.611 219.812 318.196 213.837 321.258 207.862C324.17 202.111 345.23 168.65 355.088 159.762C355.163 159.687 355.984 158.94 355.984 158.94C355.984 159.015 380.405 181.72 380.405 181.72Z" fill="#2B3775"/>
<path d="M86.5508 165.139C86.7748 166.932 87.895 168.425 89.1646 169.098C90.4342 169.77 91.9278 169.77 93.272 169.546C94.4669 169.322 95.6618 169.023 96.7073 168.276C97.7529 167.529 98.7237 166.409 99.1718 164.915L86.5508 165.139Z" fill="#DF7842"/>
<path d="M87.3721 134.591C84.9823 143.106 90.5834 152.965 99.097 155.28C100.367 155.654 101.785 155.803 102.98 155.43C104.474 154.907 105.594 153.637 106.416 152.293C110.822 145.048 107.685 134.292 100.068 130.483C96.3338 128.616 90.5834 129.363 89.7619 133.471" fill="#F4976E"/>
<path d="M32.4071 321.689L33.7514 296.668C36.4399 294.651 39.9499 292.635 43.0118 291.216C40.846 286.884 38.755 282.477 36.9626 278.07C31.6603 282.402 25.7605 285.987 19.4874 288.676C18.5165 293.979 20.9063 299.058 22.624 304.212C23.8935 307.871 25.0884 311.606 26.358 315.266C26.8808 316.834 27.4035 318.403 28.3744 319.747C29.2705 320.942 30.7642 321.614 32.4071 321.689Z" fill="#FDB790"/>
<path d="M21.8774 287.108L9.33105 293.606L30.9884 329.009L31.2872 329.905C34.1997 329.905 34.4238 326.245 33.901 323.407C33.3035 320.569 31.5859 318.104 30.391 315.415C28.4493 310.784 28.524 305.705 27.8519 300.701C27.2544 295.697 25.9102 290.095 21.8774 287.108Z" fill="#7774F7"/>
<path d="M179.147 339.315L158.533 325.074C158.262 321.731 158.377 317.682 158.708 314.336C153.862 313.974 149.118 313.398 144.326 312.59C145.23 319.396 145.217 326.316 144.249 333.046C148.245 336.691 153.814 337.292 159.089 338.459C162.899 339.298 166.626 340.202 170.436 341.041C172.049 341.387 173.653 341.808 175.255 341.626C176.987 341.611 178.299 340.717 179.147 339.315Z" fill="#FDB790"/>
<path d="M144.295 330.192L143.186 344.277L184.704 344.353L185.584 344.535C187.086 342.084 184.114 339.918 181.378 338.908C178.642 337.899 175.604 338.132 172.722 337.707C167.773 336.955 163.437 334.247 158.873 332.188C154.308 330.129 148.883 328.342 144.295 330.192Z" fill="#7774F7"/>
<path d="M101.263 172.459C91.181 187.546 92.3759 247.821 92.3759 247.821L36.7388 274.709C36.7388 274.709 40.6968 291.514 41.2196 295.323C67.5072 286.734 95.2137 281.879 112.241 268.435C116.274 265.298 118.141 250.51 119.41 245.58C125.683 221.156 124.19 207.414 122.846 182.243C122.771 181.048 122.696 179.853 122.397 178.658C121.501 175.372 118.663 172.832 115.378 172.011C111.942 171.189 104.101 170.591 101.263 172.459Z" fill="#79A2D3"/>
<path d="M138.827 247.149C82.7421 211.596 95.8859 183.065 101.263 172.459H125.235C127.252 174.55 128.895 176.866 130.314 179.33C139.126 194.194 147.64 209.281 155.705 224.518C158.095 228.999 160.485 233.63 161.754 238.559C162.8 242.518 163.024 246.701 163.248 250.808C164.517 272.842 165.115 294.875 165.19 316.909L143.084 320.195L138.827 247.149Z" fill="#A3C2EF"/>
<path d="M259.511 164.84H59.4417C57.9481 164.84 56.7532 163.645 56.7532 162.152V15.0126C56.7532 13.5188 57.9481 12.3237 59.4417 12.3237H259.511C261.005 12.3237 262.2 13.5188 262.2 15.0126V162.152C262.2 163.645 260.93 164.84 259.511 164.84Z" fill="white"/>
<path d="M262.2 23.0048V15.0876C262.2 13.5938 261.005 12.3988 259.511 12.3988H59.4417C57.9481 12.3988 56.7532 13.5938 56.7532 15.0876V23.0048H262.2V23.0048Z" fill="#00305E"/>
<path d="M62.8022 20.5395C64.1633 20.5395 65.2667 19.436 65.2667 18.0748C65.2667 16.7135 64.1633 15.61 62.8022 15.61C61.4411 15.61 60.3378 16.7135 60.3378 18.0748C60.3378 19.436 61.4411 20.5395 62.8022 20.5395Z" fill="#4CB3EF"/>
<path d="M70.7184 20.5395C72.0794 20.5395 73.1828 19.436 73.1828 18.0748C73.1828 16.7135 72.0794 15.61 70.7184 15.61C69.3573 15.61 68.2539 16.7135 68.2539 18.0748C68.2539 19.436 69.3573 20.5395 70.7184 20.5395Z" fill="#D93F58"/>
<path d="M78.6345 20.5395C79.9956 20.5395 81.099 19.436 81.099 18.0748C81.099 16.7135 79.9956 15.61 78.6345 15.61C77.2734 15.61 76.17 16.7135 76.17 18.0748C76.17 19.436 77.2734 20.5395 78.6345 20.5395Z" fill="#F4976E"/>
<path d="M226.726 54.9717H159.14C157.199 54.9717 155.63 53.4032 155.63 51.4612C155.63 49.5193 157.199 47.9508 159.14 47.9508H226.726C228.668 47.9508 230.236 49.5193 230.236 51.4612C230.311 53.4032 228.668 54.9717 226.726 54.9717Z" fill="#A3C2EF"/>
<path d="M207.384 72.8226H158.692C157.049 72.8226 155.705 71.4782 155.705 69.835V68.7893C155.705 67.1462 157.049 65.8018 158.692 65.8018H207.384C209.027 65.8018 210.371 67.1462 210.371 68.7893V69.835C210.371 71.4035 209.027 72.8226 207.384 72.8226Z" fill="#A3C2EF"/>
<path d="M207.384 108.375H158.692C157.049 108.375 155.705 107.031 155.705 105.387V104.342C155.705 102.699 157.049 101.354 158.692 101.354H207.384C209.027 101.354 210.371 102.699 210.371 104.342V105.387C210.371 107.031 209.027 108.375 207.384 108.375Z" fill="#A3C2EF"/>
<path d="M207.384 126.151H158.692C157.049 126.151 155.705 124.807 155.705 123.163V122.118C155.705 120.475 157.049 119.13 158.692 119.13H207.384C209.027 119.13 210.371 120.475 210.371 122.118V123.163C210.371 124.807 209.027 126.151 207.384 126.151Z" fill="#A3C2EF"/>
<path d="M217.914 90.5986H158.991C157.199 90.5986 155.705 89.1048 155.705 87.3123V86.8641C155.705 85.0716 157.199 83.5778 158.991 83.5778H217.914C219.706 83.5778 221.2 85.0716 221.2 86.8641V87.3123C221.2 89.1048 219.706 90.5986 217.914 90.5986Z" fill="#A3C2EF"/>
<path d="M128.372 47.9508H75.4233V139.446H128.372V47.9508Z" fill="#4CB3EF"/>
<path d="M101.935 90.5988C111.751 90.5988 119.709 82.6401 119.709 72.8226C119.709 63.0051 111.751 55.0464 101.935 55.0464C92.1188 55.0464 84.1611 63.0051 84.1611 72.8226C84.1611 82.6401 92.1188 90.5988 101.935 90.5988Z" fill="white"/>
<path d="M86.924 162.376C86.3266 164.691 86.1025 167.604 87.9696 168.948C89.1644 169.77 90.8821 169.546 92.1517 168.724C93.3466 167.903 94.2427 166.558 94.9895 165.289C96.7072 162.45 98.2008 159.537 99.6944 156.625C100.591 154.907 101.487 153.189 102.308 151.471C103.503 149.23 104.623 146.915 105.146 144.375C105.669 141.836 105.37 139.072 103.802 137.056C95.7363 126.749 88.1189 157.67 86.924 162.376Z" fill="#F4976E"/>
<path d="M132.927 133.993C132.853 131.603 131.956 129.288 131.06 127.122C129.193 122.566 119.335 111.213 115.228 110.392C113.66 117.412 104.175 112.259 102.906 110.765C102.682 110.541 102.458 110.242 102.234 110.018C97.1553 113.753 93.72 119.504 91.4049 125.329C91.4049 125.404 91.3302 125.479 91.3302 125.479C92.077 125.852 92.7491 126.3 93.5706 126.599C97.3047 141.612 99.7691 157.371 101.412 172.758H125.833C129.044 162.45 130.687 151.62 130.239 140.865C132.031 139.296 133.077 136.384 132.927 133.993Z" fill="#2B499E"/>
<path d="M123.144 79.4698C123.443 80.6648 123.891 81.8599 124.488 82.9055C124.937 83.6524 125.385 84.3247 125.907 85.0716C126.654 86.1919 127.476 87.3122 128.222 88.4326C128.073 89.4036 127.102 90.2998 126.206 90.5986C127.625 91.943 127.7 93.9596 127.998 95.9016C128.148 96.7978 128.297 97.7688 128.073 98.6651C127.774 100.383 126.355 101.727 124.862 102.624C123.368 103.52 121.651 104.192 120.232 105.163C117.468 107.18 115.825 110.69 116.124 114.126C116.274 115.545 113.884 115.62 112.54 115.694C111.27 115.769 109.926 115.769 108.88 114.947C108.133 114.35 107.685 113.379 107.387 112.483C104.997 105.985 104.549 98.8892 105.893 92.0924C106.49 89.2542 107.461 86.416 109.03 84.0259C110.673 81.5611 112.913 79.5445 115.751 78.6482C118.514 77.8266 120.829 77.7519 123.144 79.4698Z" fill="#FDB790"/>
<path d="M117.765 73.9611C121.913 76.577 121.655 76.646 124.426 80.7008C125.146 81.7584 125.867 82.8161 126.324 84.0203C126.919 85.6111 127.147 87.5911 128.697 88.2951C129.023 88.4455 129.395 88.5576 129.586 88.8228C129.699 88.9986 129.721 89.2508 129.706 89.4584C129.632 90.4131 128.971 91.3225 128.054 91.7113C128.211 94.6045 127.6 97.6055 126.34 100.264C126.04 100.868 125.695 101.509 125.192 102.013C124.64 102.597 123.894 102.957 123.11 103.273C121.631 103.827 120.014 103.994 118.464 103.833C115.286 103.422 112.436 101.49 110.387 99.036C108.338 96.5816 107.005 93.5979 105.84 90.6271C104.925 88.2601 104.057 85.8132 103.829 83.2904C103.621 81.0613 103.839 78.7815 104.509 76.6618C105.237 74.3379 108.419 76.3758 110.387 74.9407C112.359 73.4641 115.714 72.634 117.765 73.9611Z" fill="#FDB790"/>
<path d="M121.06 85.5829L124.902 83.0438C125.218 82.8554 125.631 82.9096 125.821 83.2061C126.049 83.4937 125.982 83.8889 125.675 84.1132L121.786 86.6253C121.47 86.8137 121.058 86.7595 120.867 86.463C120.639 86.1754 120.744 85.7712 121.06 85.5829Z" fill="#A7523F"/>
<ellipse rx="0.979618" ry="1.46943" transform="matrix(-0.991998 0.126254 0.126254 0.991998 125.101 87.7878)" fill="#231F20"/>
<path d="M146.669 145.421C153.315 151.172 159.514 156.625 165.563 162.898C168.177 163.123 171.985 160.957 174.375 159.911C174.674 159.762 175.047 159.612 175.346 159.612C175.719 159.612 176.093 159.687 176.242 159.986C176.466 160.284 176.392 160.807 176.168 161.106C175.943 161.405 175.57 161.629 175.271 161.853C174.749 162.152 174.226 162.376 173.703 162.6C173.255 162.749 172.807 162.973 172.433 163.272C172.06 163.571 171.836 164.094 171.985 164.542C172.06 164.542 172.284 164.616 172.359 164.616L179.976 163.421C178.333 166.334 175.197 168.5 171.911 169.322C170.193 169.77 168.251 169.845 166.608 169.247C165.638 168.874 164.741 168.276 163.845 167.679C158.543 164.094 153.241 160.508 147.938 156.923C146.519 155.952 145.1 154.832 143.831 153.637C136.064 146.317 143.831 142.882 146.669 145.421Z" fill="#FDB790"/>
<path d="M131.06 144.077C125.907 140.043 120.456 136.309 115.228 132.276C119.41 129.363 124.563 127.944 129.268 129.886C130.463 130.334 131.583 131.006 132.703 131.753C135.541 133.545 138.006 135.861 140.545 137.952C150.477 146.243 153.539 161.554 131.06 144.077Z" fill="#FDB790"/>
<path d="M110.15 120.027C120.605 115.769 132.927 126.674 136.363 132.873C133.45 137.205 131.508 139.969 128.372 144.077C122.771 143.18 117.244 140.492 112.614 136.832C110.598 135.263 108.656 133.321 107.685 130.633C106.714 127.944 106.714 124.284 108.432 121.67C109.03 120.848 109.328 120.4 110.15 120.027Z" fill="#2B3775"/>
<path d="M124.489 80.3662C124.115 77.3039 121.725 74.6898 118.813 73.4948C115.9 72.2997 112.689 72.2997 109.702 72.8972C105.296 73.7188 101.039 75.7355 97.8276 78.8724C94.6163 82.0094 92.3759 86.192 92.0025 90.6734C91.6291 94.632 92.5999 98.5159 93.6455 102.325C94.5416 105.835 90.8823 108.674 87.5217 110.093C84.161 111.512 80.3523 111.96 77.3651 114.051C75.5728 115.321 74.0791 117.338 74.3779 119.504C74.6019 121.147 75.7968 122.566 75.7968 124.134C75.8715 126.375 73.7804 128.168 71.54 128.691C69.2996 129.213 67.0592 128.84 64.8187 128.84C59.6658 128.84 54.1394 131.305 52.0483 136.01C51.3015 137.728 51.0028 139.595 50.1066 141.238C48.1649 144.824 43.9082 146.392 41.145 149.38C37.2616 153.637 37.2616 160.882 41.145 165.139C43.9828 168.201 48.3143 169.546 52.4964 169.546C56.6785 169.546 60.7113 168.201 64.5947 166.558C82.294 159.239 97.3795 145.869 106.715 129.139C108.88 125.255 110.747 121.222 111.793 116.964C113.212 111.288 113.137 105.313 111.644 99.6362C111.27 98.2171 110.747 96.7233 110.747 95.2295C110.747 93.7357 111.27 92.1672 112.54 91.3456C113.809 90.524 115.826 90.9722 116.274 92.3913C116.498 92.9888 116.871 93.9598 117.394 93.661C117.021 88.7315 120.008 82.9804 124.489 80.3662Z" fill="#8A3622"/>
<path d="M409.754 160.732L378.836 133.471L350.682 163.496L409.754 199.795V160.732Z" fill="#2B499E"/>
<path d="M313.043 97.7689C309.831 100.981 306.844 104.416 304.006 108.001C300.944 106.508 299.749 102.848 297.733 100.159C297.21 99.4121 296.613 98.7399 296.314 97.9183C296.015 97.0967 296.09 96.2752 296.165 95.4536C296.389 92.9141 298.106 82.0841 301.99 86.2667C305.574 90.1506 309.084 94.1091 313.043 97.7689Z" fill="#F4976E"/>
<path d="M280.482 92.3165C280.631 96.2004 281.154 100.234 282.946 103.744C283.842 105.611 285.261 107.404 287.278 108.001C288.846 108.449 290.489 108.001 291.908 107.18C293.252 106.358 294.372 105.088 295.269 103.819C298.106 99.8602 299.6 95.1547 300.795 90.4492C301.542 87.5363 302.139 84.5487 301.915 81.5611C301.691 78.5736 300.571 75.5113 298.33 73.5693C291.161 67.3701 281.079 74.6897 280.631 82.8309C280.407 85.8932 280.332 89.1048 280.482 92.3165Z" fill="#FDB790"/>
<path d="M285.806 92.2376C285.264 92.2376 284.825 91.5055 284.825 90.6024C284.825 89.6994 285.264 88.9673 285.806 88.9673C286.348 88.9673 286.788 89.6994 286.788 90.6024C286.788 91.5055 286.348 92.2376 285.806 92.2376Z" fill="#231F20"/>
<path d="M280.231 91.3218C279.797 91.3218 279.446 90.7361 279.446 90.0137C279.446 89.2912 279.797 88.7056 280.231 88.7056C280.664 88.7056 281.016 89.2912 281.016 90.0137C281.016 90.7361 280.664 91.3218 280.231 91.3218Z" fill="#231F20"/>
<path d="M285.872 85.8279C286.526 86.1549 287.246 86.5473 287.9 86.8744" stroke="#A7523F" stroke-width="2" stroke-miterlimit="10"/>
<path d="M281.997 85.2391C281.343 85.1737 280.623 85.3699 280.034 85.7623" stroke="#A7523F" stroke-width="2" stroke-miterlimit="10"/>
<path d="M282.717 87.3322C282.717 88.4441 281.997 89.4251 281.343 90.3408C280.754 91.1257 280.165 91.976 279.577 92.7608C279.184 93.3495 278.726 94.0035 278.726 94.723C278.726 95.4425 279.249 96.1619 279.904 96.489C280.558 96.816 281.343 96.816 282.063 96.5544" fill="#FDB790"/>
<path d="M275.852 70.2832C274.433 72.4492 273.537 74.914 273.313 77.5282C273.163 79.246 273.313 81.0386 274.134 82.5324C274.956 84.0262 276.524 85.2212 278.241 85.2212C279.063 85.2212 279.884 84.9971 280.631 84.6237C281.976 84.0262 283.17 83.1299 284.141 81.9349C285.112 80.8145 285.859 79.3954 287.054 78.4991C288.323 77.6028 290.34 77.6028 291.012 78.9473C291.46 79.7689 291.236 80.7398 291.236 81.6361C291.236 82.5324 291.46 83.6527 292.356 83.8768C293.327 84.1756 294.148 83.2793 294.671 82.383C295.119 81.4867 295.567 80.4411 296.538 80.1423C297.733 79.7689 298.928 80.8145 299.376 82.0096C299.824 83.1299 299.899 84.4743 300.571 85.52C303.782 83.8768 304.902 79.9182 305.201 76.4078C305.351 74.6153 305.351 72.748 304.828 71.0301C304.006 68.5654 301.99 66.5488 299.6 65.5778C297.21 64.6068 294.373 64.7562 291.983 65.8019C290.414 66.4741 288.921 67.5944 287.129 67.6691C284.888 67.6691 282.722 65.8019 280.482 66.3994C278.615 66.9222 276.823 68.7894 275.852 70.2832Z" fill="#34325F"/>
<path d="M377.642 225.489C379.359 222.874 380.928 219.364 382.645 216.75L388.022 217.571L396.013 221.53L384.736 240.949H372.115C371.891 239.754 372.041 238.709 373.086 238.036C374.132 237.364 375.327 237.066 376.521 236.841C377.791 236.543 379.135 236.319 380.405 236.02L377.642 225.489Z" fill="#A1ABCE"/>
<path d="M350.682 163.496L378.837 133.471L314.163 93.0634C311.176 92.9887 307.591 100.308 306.172 102.922C301.318 111.96 297.584 121.446 293.925 131.006C276.449 176.268 256.808 168.276 256.808 168.276C256.808 168.276 251.655 174.849 250.909 177.015C254.045 179.106 289.294 191.131 316.329 141.014L350.682 163.496Z" fill="#A3C2EF"/>
<path d="M244.785 164.84C243.291 164.99 236.719 164.84 236.644 164.84C238.81 171.637 250.908 177.089 250.908 177.089C250.908 177.089 254.493 171.413 255.091 170.591C253.298 168.724 252.103 166.409 252.253 163.869C252.327 162.45 252.701 161.106 252.925 159.761C253.149 158.417 253.149 156.923 252.477 155.653C252.327 155.28 252.029 154.981 251.73 154.757C250.759 154.234 249.489 154.907 249.489 156.027C249.489 163.869 245.531 164.766 244.785 164.84Z" fill="#FDB790"/>
</g>
<defs>
<clipPath id="clip0">
<rect width="585" height="346" fill="white"/>
</clipPath>
</defs>
</svg>
