<svg width="536" height="346" viewBox="0 0 536 346" fill="none" xmlns="http://www.w3.org/2000/svg">
<path d="M450.065 257.863C433.92 262.718 417.105 259.924 401.186 256.239C385.267 252.553 369.241 248.041 352.691 249.67C327.1 252.155 304.203 268.781 280.992 281.734C273.193 286.091 264.874 290.189 256.249 290.338C240.584 290.577 228.277 277.923 219.917 264.626C211.557 251.329 200.867 239.443 188.65 229.999C156.867 205.562 111.022 228.763 74.6561 212.25C64.6672 207.711 56.2997 200.038 49.2242 191.459C33.1635 172.016 22.9454 144.852 30.1431 118.882C38.1665 89.9445 64.7278 70.6362 89.899 55.5617C132.622 29.9293 179.824 7.92868 227.318 10.9051C242.895 11.8881 258.05 15.5459 272.949 19.8502C302.591 28.3814 334.577 42.3676 344.861 72.659C349.322 85.8489 349.193 100.979 355.582 113.157C365.689 132.457 388.967 138.672 410.197 141.055C431.427 143.438 454.392 144.152 470.949 157.51C502.927 183.381 492.435 245.069 450.065 257.863Z" fill="#DEFBFD"/>
<path d="M291.246 145.452C301.397 140.703 313.234 139.284 325.216 142.512C336.663 145.608 327.075 115.184 351.667 108.099C406.106 92.415 428.066 58.4338 483.747 70.0475C492.626 71.899 501.442 75.9972 506.706 83.3792C534.689 122.64 462.647 151.954 449.634 179.667C446.406 186.532 445.135 195.321 449.911 201.202C462.892 217.29 487.019 230.123 468.5 253.556C446.427 281.534 401.195 282.589 369.635 275.894C336.295 268.819 334.256 296.199 309.102 273.187C288.461 254.307 261.849 221.869 261.833 192.275C261.764 171.161 274.082 153.521 291.246 145.452Z" fill="#DBB7F8"/>
<mask id="mask0" mask-type="alpha" maskUnits="userSpaceOnUse" x="36" y="21" width="384" height="274">
<rect width="382.885" height="273.071" transform="matrix(-1 0 0 1 419.273 21.6541)" fill="#C4C4C4"/>
</mask>
<g mask="url(#mask0)">
<path d="M164.129 188.553C161.545 176.767 166.255 158.87 175.103 150.604L185.99 145.926L192.536 170.394L181.393 187.174L173.894 211.277L164.129 188.553Z" fill="#F8B68F"/>
<path d="M189.285 170.941L168.183 187.36L182.615 185.264L203.571 161.498C203.571 161.498 201.243 158.152 196.289 162.095C191.787 165.973 189.285 170.941 189.285 170.941Z" fill="#F8B68F"/>
<path d="M196.038 226.252C191.039 212.316 185.994 198.502 180.912 184.601C180.489 183.442 179.672 182.139 179.057 180.825C177.253 178.578 174.53 176.918 171.874 177.295C169.338 177.727 167.46 179.744 166.416 182.139C165.908 183.305 165.375 186 165.375 190.625C167.954 210.418 171.184 230.148 175.149 249.779C176.248 255.004 177.346 260.228 179.474 265.13C181.602 270.032 184.842 274.575 189.263 277.288C192.692 279.481 197.035 280.367 200.602 278.682C208.281 274.984 205.704 262.213 204.527 255.162C202.96 245.324 199.49 235.764 196.084 226.378L196.038 226.252Z" fill="#FDB790"/>
<path d="M212.81 119.828C212.81 119.828 217.984 154.168 195.844 180.71C194.461 182.331 192.218 183.519 189.772 183.781C184.883 184.264 181.525 182.373 178.883 181.549C175.061 180.278 173.268 178.21 172.456 176.541C171.755 175.116 172.022 173.41 173.118 171.976C177.638 165.769 191.704 144.454 186.458 124.882C198.065 116.164 212.81 119.828 212.81 119.828Z" fill="#CCE3FF"/>
<path d="M176.062 180.198C173.679 178.905 173.274 178.051 172.497 176.503C171.796 175.077 172.064 173.372 173.159 171.938C177.679 165.731 191.746 144.416 186.5 124.844C190.613 121.815 195.065 120.316 199.165 119.602C198.995 140.834 193.882 154.882 176.062 180.198Z" fill="#629ADE"/>
<path d="M187.315 155.071C185.412 154.6 184.838 150.3 186.034 145.467C187.23 140.634 189.742 137.098 191.645 137.569C193.549 138.04 194.122 142.34 192.926 147.173C191.731 152.006 189.218 155.542 187.315 155.071Z" fill="#4CB3EF"/>
<path d="M192.013 137.72L190 137.16L190.119 138.163L191.452 138.775L192.013 137.72Z" fill="#4CB3EF"/>
<path d="M187.765 155.116L185.313 154.539L188.119 154.252L187.765 155.116Z" fill="#4CB3EF"/>
<path d="M185.686 154.698C183.783 154.228 183.209 149.928 184.404 145.094C185.599 140.261 188.112 136.724 190.015 137.195C191.918 137.665 192.493 141.965 191.297 146.799C190.102 151.632 187.59 155.169 185.686 154.698Z" fill="#CCE3FF"/>
<path d="M222.528 91.4318L226.275 91.5816C233.45 91.8685 239.086 97.683 238.812 104.539L238.416 114.424C238.142 121.279 232.06 126.625 224.885 126.338L221.139 126.189L222.528 91.4318Z" fill="#4CB3EF"/>
<path d="M119.265 145.949C111.626 145.643 106.307 123.553 107.385 96.6088C108.462 69.6644 115.528 48.0693 123.166 48.3747C130.805 48.6801 136.124 70.7705 135.047 97.7148C133.969 124.659 126.904 146.254 119.265 145.949Z" fill="#629ADE"/>
<path d="M136.363 79.7627L125.157 86.4607L124.526 102.245L135.356 112.938L140.083 92.5669L136.363 79.7627Z" fill="#FCFCFF"/>
<path d="M135.047 97.7155C135.952 75.0758 132.328 55.8878 126.609 50.1499C126.609 50.1499 126.61 50.11 126.65 50.1116C171.165 85.0272 224.722 91.4803 224.722 91.4803L223.331 126.277C223.331 126.277 150.831 119.306 122.878 144.457C122.878 144.457 122.838 144.456 122.839 144.416C128.995 139.232 134.14 120.395 135.047 97.7155Z" fill="#CCE3FF"/>
<path d="M135.058 96.4381C142.457 99.0894 149.906 101.503 157.444 103.681C179.113 109.897 201.31 113.898 223.678 116.589L223.289 126.315C223.289 126.315 150.79 119.344 122.836 144.495C122.836 144.495 122.796 144.494 122.798 144.454C128.957 139.191 134.1 120.393 135.007 97.7136C135.063 97.3166 135.08 96.8781 135.058 96.4381Z" fill="#4CB3EF"/>
<path d="M124.526 102.245C123.711 102.212 123.193 98.6348 123.368 94.2541C123.543 89.8735 124.345 86.3486 125.16 86.3812C125.974 86.4138 126.493 89.9914 126.318 94.3721C126.142 98.7527 125.34 102.278 124.526 102.245Z" fill="#CCE3FF"/>
<path d="M91.227 56.8592C90.4315 57.5934 89.1568 57.5425 88.4225 56.747L70.1543 36.7797C69.42 35.9843 69.471 34.7095 70.2664 33.9753C71.0618 33.241 72.3366 33.292 73.0708 34.0874L91.3425 53.9697C92.0734 54.8501 92.0224 56.1249 91.227 56.8592Z" fill="#4CB3EF"/>
<path d="M87.3429 141.361C86.6086 140.566 85.3339 140.515 84.5385 141.249L64.5711 159.517C63.7757 160.251 63.7247 161.526 64.459 162.322C65.1933 163.117 66.468 163.168 67.2634 162.434L87.2307 144.165C88.0262 143.431 88.0771 142.156 87.3429 141.361Z" fill="#4CB3EF"/>
<path d="M81.9918 99.5414C81.9476 100.646 80.9754 101.544 79.874 101.414L52.8562 100.164C51.7514 100.12 50.854 99.1475 50.9831 98.0461C51.0273 96.9413 51.9995 96.0439 53.1009 96.1731L80.1187 97.4236C81.2201 97.5528 82.0359 98.4366 81.9918 99.5414Z" fill="#4CB3EF"/>
<path d="M174.088 169.949C175.094 169.792 178.379 169.691 185.805 164.406C191.375 160.443 188.846 152.174 187.318 147.668C186.896 146.29 185.946 144.169 183.297 144.377L174.983 150.616L174.088 169.949Z" fill="#F8B68F"/>
<path d="M196.344 279.522C204.446 282.168 211.425 271.166 215.456 265.262C235.516 236.345 257.828 200.223 271.757 168.521L271.757 162.126C272.01 159.256 271.193 156.172 269.015 154.607C266.886 153.163 264.134 153.319 261.723 154.325C259.312 155.331 257.312 157.009 255.361 158.809C242.16 171.364 208.289 224.781 198.119 240.821L197.977 241.044C195.154 245.575 192.331 250.107 190.474 255.117C188.618 260.128 187.811 265.65 189.125 270.668C190.082 274.624 192.603 278.269 196.344 279.522Z" fill="#FDB790"/>
<path d="M225.747 261.509C225.16 262.151 224.005 261.73 223.226 261.244C212.838 253.43 204.833 242.81 199.982 230.721C214.949 218.258 240.159 169.243 255.126 156.779C260.265 152.575 270.29 152.608 275.444 156.779C282.816 162.789 279.426 169.142 279.426 181.506C279.426 193.869 254.901 232.926 245.92 243.746C240.118 250.54 231.346 254.44 225.747 261.509Z" fill="#20306D"/>
<path d="M271 119.812C271.166 129.399 270.254 139.044 268.493 148.496C268.226 150.19 265.598 152.371 264.083 153.173C269.199 171.079 300.078 144.727 307.664 129.918C310.153 124.984 311.752 119.139 310.022 113.836C307.557 106.055 298.317 101.643 290.349 102.919C282.268 104.321 275.418 112.853 271 119.812Z" fill="#DF7842"/>
<path d="M265.403 155.48C266.641 155.731 281.189 148.753 289.484 147.453C297.779 146.154 306.985 147.249 313.972 152.05C323.548 158.889 327.076 171.454 328.316 183.196C329.953 199.584 328.158 216.067 326.326 232.241C324.277 249.224 322.026 267.757 318.225 284.479C316.384 292.579 325.887 329.805 321.209 335.211C301.756 333.345 289.263 337.736 270.904 342.458C262.813 344.539 243.62 353.969 237.774 357.362C233.234 333.655 228.987 282.145 229.71 257.968C229.866 251.379 230.33 244.754 229.096 238.33C227.396 229.302 222.284 220.524 223.689 211.283C224.976 202.37 228.088 194.334 232.99 186.868C237.892 179.402 243.965 172.578 250.038 165.755C254.598 160.676 259.139 155.443 265.363 152.512C265.146 153.32 264.165 155.228 265.403 155.48Z" fill="#2B499E"/>
<path d="M286.551 31.4C274.592 38.6522 266.117 50.3913 257.989 61.8716C255.873 64.8662 253.758 67.8608 252.387 71.2944C250.596 75.8305 249.827 81.51 245.374 83.4332C244.437 83.8444 243.373 84.1425 242.814 84.8928C242.482 85.3908 242.401 86.1149 242.434 86.7128C242.585 89.4633 244.41 92.1221 246.994 93.2999C246.37 101.61 247.924 110.281 251.347 118.01C252.163 119.764 253.105 121.632 254.506 123.115C256.039 124.83 258.138 125.914 260.35 126.872C264.522 128.563 269.113 129.151 273.532 128.789C282.596 127.813 290.819 122.444 296.798 115.52C302.777 108.595 306.751 100.101 310.246 91.6338C312.995 84.8861 315.612 77.9059 316.415 70.6652C317.144 64.2682 316.664 57.6975 314.888 51.5576C312.96 44.8264 309.37 38.4261 303.858 34.1701C298.34 29.7946 292.468 27.7174 286.551 31.4Z" fill="#FDB790"/>
<path d="M282.194 28.5205C273.922 28.6138 265.297 28.8465 258.343 33.3056C251.848 37.3797 247.929 44.6712 246.906 52.2838C245.884 59.8963 248.62 66.2912 251.758 73.1961C259.627 58.2887 262.998 54.7607 270.931 46.2897C276.138 40.6069 281.046 36.02 282.194 28.5205Z" fill="#8A3622"/>
<path d="M272.892 74.2366L259.804 69.9738C258.746 69.6843 257.616 70.2094 257.327 71.2676C256.922 72.3321 257.447 73.4614 258.512 73.8663L271.709 78.0073C272.767 78.2968 273.897 77.7717 274.186 76.7135C274.591 75.649 273.951 74.526 272.892 74.2366Z" fill="#A7523F"/>
<path d="M247.03 102.868C247.259 104.94 248.509 111.126 248.963 113.07C252.137 113.939 262.446 109.541 263.657 104.147C258.51 107.44 249.441 104.589 247.03 102.868Z" fill="white"/>
<ellipse cx="262.893" cy="81.6705" rx="2.45034" ry="3.6755" transform="rotate(7.25319 262.893 81.6705)" fill="#231F20"/>
<path d="M309.234 82.8041C304.972 77.0831 298.28 82.0569 295.45 85.8981C288.482 95.3566 292.942 101.134 295.714 103.524C298.485 105.914 303.456 102.952 306.286 99.1104C309.116 95.2685 313.266 88.2157 309.234 82.8041Z" fill="#FDB790"/>
</g>
<path d="M347.787 251.899L343.094 258.107C340.465 261.339 338.612 262.517 333.873 266.361C319.248 277.736 275.445 302.972 275.445 302.972L245.93 307.783C245.93 307.783 244.944 311.636 251.161 312.576C256.812 313.772 262.162 312.037 262.162 312.037C262.162 312.037 261.432 316.456 253.553 322.4C247.528 327.165 231.734 332.936 239.33 337.683C247.966 337.19 259.743 334.597 259.743 334.597C264.783 333.684 269.621 330.817 272.305 326.197L279.17 314.237L346.92 291.476C354.379 289.129 360.97 284.108 366.074 278.055L366.229 277.644L347.787 251.899Z" fill="#F8B68F"/>
<path d="M372.896 278.939C372.794 279.893 371.492 280.273 370.482 280.351C356.139 280.194 342.08 275.985 329.866 268.409C335.025 247.546 301.281 191.802 306.44 170.938C307.33 167.47 308.815 163.992 311.813 161.974C314.811 159.955 318.796 159.824 322.488 159.995C332.97 160.52 343.853 163.536 351.186 170.962C362.332 181.949 380.131 234.47 379.219 249.96C378.503 259.793 373.253 268.993 372.896 278.939Z" fill="#20306D"/>
<path d="M401.906 200.098C395.736 198.546 397.643 181.072 381.443 181.072C351.601 178.782 360.255 148.021 353.608 137.4C349.4 130.657 344.943 127.827 342.524 120.277C341.218 116.341 344.373 100.303 345.935 96.4865C351.601 82.4427 351.886 60.8318 342.524 49.5787C322.044 24.9617 286.974 11.4037 268.487 33.811C263.187 40.9605 257.261 63.2208 291.793 91.3577C292.702 92.1394 293.084 89.586 294.777 86.6683C297.476 82.0153 303.73 78.1419 308.419 81.5525C314.814 86.2033 307.993 98.6051 303.303 102.016C300.319 105 300.372 108.718 300.319 110.116C299.955 119.715 296.259 131.25 293.432 134.842C288.226 141.623 275.369 144.809 275.845 153.346C275.959 154.851 276.239 156.342 277.176 157.616C280.718 162.224 287.697 156.655 293.432 156.895C299.167 157.134 302.706 163.928 301.951 169.532C300.366 181.315 286.954 192.212 285.704 204.117C283.08 226.878 300.885 222.553 309.583 233.176C324.234 250.865 315.249 264.132 342.524 280.999C360.001 291.807 401.799 278.661 413.844 264.472C429.208 246.373 440.275 206.493 401.906 200.098Z" fill="#8A3622"/>
</svg>
