<svg width="24" height="24" viewBox="0 0 24 24" fill="none" xmlns="http://www.w3.org/2000/svg">
<path d="M12 20C16.4183 20 20 16.4183 20 12C20 7.58172 16.4183 4 12 4C7.58172 4 4 7.58172 4 12C4 16.4183 7.58172 20 12 20Z" stroke="#6D7077" stroke-width="1.5"/>
<path d="M11 7.5C11 7.22386 11.2239 7 11.5 7H12C12.2761 7 12.5 7.22386 12.5 7.5V12.5C12.5 12.7761 12.2761 13 12 13H11.5C11.2239 13 11 12.7761 11 12.5V7.5Z" fill="#6D7077"/>
<path d="M15.5 12C15.7761 12 16 12.2239 16 12.5V13C16 13.2761 15.7761 13.5 15.5 13.5H11.5C11.2239 13.5 11 13.2761 11 13V12.5C11 12.2239 11.2239 12 11.5 12H15.5Z" fill="#6D7077"/>
</svg>
